<svg xmlns="http://www.w3.org/2000/svg" xmlns:xlink="http://www.w3.org/1999/xlink" data-name="Layer 1" viewBox="0 0 557.6 439.58" style="fill: #D79AAE;" original_string_length="18934" width="183.35686006613926px" height="144.5824703030489px"><path d="M193.5,194.71c-.78.62-1.53,1.29-2.36,1.85-4.43,3.01-8.87,5.99-13.31,8.98-2.54,1.72-5.42,2.52-8.34,3.34-3.26.91-6.21.56-8.96-1.42-3.28-2.36-3.36-1.53-5.69.47-2.18,1.87-4.19,3.95-6.3,5.91-4.03,3.74-8.08,7.47-13.08,9.95-.12.06-.22.15-.33.21-5.86,2.81-11.46,1-13.42-6.57-.16-.62-.14-1.29-.19-1.94-.28-3.32-.72-3.59-3.83-2.15-3.55,1.65-7.1,3.31-10.59,5.08-4.16,2.11-8.66,3.09-13.18,3.74-8.75,1.24-15.36-4.28-15.82-13.22-.17-3.36.29-6.76.62-10.13.17-1.77.68-3.51,1.21-6.07-1.55,1.18-2.56,1.89-3.51,2.68-6.64,5.55-13.62,10.59-21.3,14.66-6.66,3.53-13.67,6.02-21.09,7.14-4.83.72-9.68.48-14.03-2.32-2.64-1.7-4.4-3.96-5.35-7.01-2.17-6.95-.97-13.69.75-20.5,2.67-10.6,7.48-20.38,11.58-30.43,5.36-13.14,11.58-25.84,19.53-37.63,10.49-15.56,22.86-29.32,38.59-39.81,7.9-5.27,16.34-9.42,25.71-11.27,10.19-2.01,20.3-1.95,30.06,2.22,7.73,3.3,14.23,8.32,19.79,14.56,5.85,6.58,10.53,13.99,15.08,21.5,4.88,8.05,9.61,16.21,14.95,23.94,3.8,5.51,8.69,10.13,15.24,12.58,2.65.99,5.36,1.36,8.09,1.11,1.48-.13,2.91-1,4.32-1.63.58-.26,1.02-.82,1.59-1.11.28-.14.83-.09,1.06.11.2.17.29.79.14,1-1.45,2.03-3.01,3.9-5.52,4.77-5.89,2.06-11.35.83-16.64-1.96-6.9-3.63-12.18-9.08-16.61-15.33-4.16-5.86-7.96-11.98-11.9-18-5.24-8-10.42-16.03-17.31-22.76-7.47-7.29-16.13-12.09-26.75-12.55-9.8-.43-18.88,2.28-27.48,6.83-8.41,4.46-15.6,10.55-22.53,16.95-8.48,7.83-16.29,16.3-23.56,25.27-6.28,7.75-12.63,15.55-17.09,24.44-3.17,6.31-6.61,12.53-9.29,19.1-2.67,6.56-5.18,13.17-6.57,20.14-.87,4.37-1.56,8.72-.79,13.23,1.17,6.92,5.22,8.29,10.87,8.18,6.74-.13,12.7-2.82,18.55-5.78,7.99-4.03,15.22-9.17,21.84-15.18,2.91-2.64,5.84-5.26,8.75-7.9,1.67-1.52,3.44-2.81,5.76-3.18,2.77-.44,5.06.78,5.67,3.52.39,1.74.47,3.66.18,5.41-.59,3.48-1.7,6.88-2.28,10.36-.55,3.34-.87,6.74-.95,10.12-.07,3.07,1.57,4.51,4.6,4.65,3.21.15,6.26-.57,9.17-1.82,5.51-2.38,10.93-4.99,16.5-7.23,1.73-.69,3.85-.83,5.72-.64,2.79.29,5.07,3.15,5.58,6.32.29,1.81.49,3.64.85,5.44.46,2.28,1.17,2.64,3.21,1.44,2.02-1.2,4.01-2.5,5.8-4.01,3.51-2.94,6.84-6.11,10.34-9.06,1.48-1.25,3.21-2.22,4.83-3.31,2.78-1.86,5.47-1.37,8.06.38.87.58,1.62,1.33,2.46,1.95,1.62,1.19,3.42,1.05,5.28.71,6.12-1.11,11.71-3.59,17.21-6.38,1.94-.99,3.95-1.84,5.93-2.76.16.26.33.52.49.78Z" style="fill: inherit;"/><path d="M109.17,355.31c.98,1.15,2.03,2.24,2.93,3.44,4.03,5.4,9.32,9.13,15.42,11.81.12.05.25.09.36.16,5.46,3.66,11.28,3.5,17.34,1.83,4.41-1.22,9.1-1.66,13.03-4.19,7.96-5.14,15.07-11.27,21.04-18.7,3.28-4.08,6.68-8.08,10.34-11.8,2.65-2.68,5.72-4.99,8.8-7.2,5.49-3.94,9.98-8.8,14.13-14.08,2.58-3.28,5.58-6.23,8.45-9.27,1.25-1.33,2.63-2.55,3.99-3.77.32-.29.85-.35,1.29-.51.17.47.47.93.48,1.4.09,10.62-4.13,19.48-10.79,27.52-5.57,6.72-12.56,11.39-20.19,15.27-3.91,1.99-7.1,4.52-9.8,8.14-5.84,7.82-13.03,14.32-21.66,19.05-3.33,1.83-6.83,3.17-10.66,3.63-3.76.46-7.51,1.08-11.25,1.71-6.27,1.07-11.89-.86-17.31-3.7-.93-.49-1.78-1.14-2.75-1.53-6.62-2.66-10.21-7.87-12.33-14.38-.32-.99-.9-1.89-1.25-2.86-.18-.52-.13-1.13-.18-1.7.19-.09.37-.18.56-.27Z" style="fill: inherit;"/><path d="M147.96,399.44c-1.03.23-2.08.12-1.73-1.21,2.16-8.27,6.19-14.95,15.06-17.55,4.97-1.46,9.93-2.08,15.11-1.54,4.02.42,8.08.35,12.12.61,2.47.16,4.93.48,7.38.79,3.75.47,7.52.83,11.22,1.53,4.37.82,8.57.34,12.77-.85.38-.11.76-.23,1.15-.27,9.51-1.18,17.67-5.5,25.24-11.04,2.19-1.6,4.11-3.63,5.96-5.64,5.38-5.87,9.4-12.48,11.41-20.32,1.8-7.02,4.88-13.58,9.14-19.47,1.82-2.52,4.18-4.66,6.32-6.94.44-.47.99-.89,1.57-1.16.42-.2.98-.11,1.48-.15-.08.44-.14.88-.25,1.31-.03.11-.17.2-.25.29-5.11,5.6-7.48,12.52-9.31,19.67-1,3.93-1.92,7.89-2.63,11.87-1.18,6.63-4.22,12.34-8.15,17.68-1.09,1.48-2.12,2.99-3.24,4.45-3.41,4.46-7.86,7.68-12.73,10.27-1.79.95-3.96,1.52-5.99,1.65-6.24.39-12.51.51-18.76.68-5.98.16-11.97.41-17.95.31-4.29-.07-8.58-.99-12.85-.9-6.91.14-13.85.46-20.69,1.35-4.54.59-8.54,3.14-12.39,5.65-.88.57-1.7,1.22-2.56,1.82-1.17.83-2.4,1.62-1.37,3.35-1.6,5.37-2.35,11.03-5.48,15.88-3.9,6.05-10.15,5.96-14.68,1.62-6.87-6.58-7.31-18.98-1.01-26.17.38-.43,1.37-.96,1.57-.8.53.41,1.12,1.21,1.08,1.81-.13,1.95-.48,3.89-.86,5.81-.99,5.02.83,9.26,3.67,13.17,1.55,2.13,2.58,2.24,4.48.38,2.39-2.35,4.92-4.65,6.15-7.93.86-.79,1.71-1.58,2.57-2.37-1.59.15-2.39,1-2.57,2.37Z" style="fill: inherit;"/><path d="M229.84,118.18c-1.3-.6-1.73-.68-1.97-.93-6.76-7.11-13.84-14.03-17.59-23.35-1.99-4.94-4.01-9.93-4.44-15.39-.47-5.99-1.21-11.95-1.81-17.93-.91-9.09-4.84-16.49-12.28-21.91-5.25-3.83-10.99-5.17-17.44-3.73-8.98,2-16.85,6.27-24.29,11.46-4.18,2.91-8.21,6.04-12.34,9.02-1.05.75-2.22,1.36-3.4,1.86-.28.12-.94-.36-1.26-.71-.14-.16,0-.8.22-1.02,1.31-1.28,2.67-2.51,4.02-3.74,7.64-6.99,15.44-13.8,24.84-18.35,4.09-1.98,8.35-3.84,12.74-4.94,8.62-2.15,16.61-.14,23.74,5.15,5.88,4.36,10.85,9.51,13.27,16.6,1.09,3.21,2.12,6.51,2.58,9.85.83,6.08,1.26,12.21,1.77,18.33.91,10.82,3.61,21.11,9.01,30.61.97,1.7,1.94,3.4,2.85,5.13.53,1,.93,2.07,1.78,3.99Z" style="fill: inherit;"/><path d="M159.65,309.46c.53-1.7,1.04-3.4,1.59-5.09,2.09-6.4,2.98-12.98,2.92-19.69,0-.74-.06-1.88-.49-2.13-1.62-.91-1.23-2.28-1.42-3.7-1.47-10.65,2.57-19.5,8.87-27.59,5.48-7.03,12.65-12.03,20.34-16.37,4.77-2.69,9.49-5.5,14.25-8.21,3.9-2.23,6.91-5.13,7.91-9.72.28-1.26.69-3.18,2.07-2.87,2,.44.75,2.34.67,3.66-.44,6.98-4.83,11.37-10.09,15.1-5.01,3.55-10.19,6.85-15.17,10.45-6.89,4.98-12.61,11.05-15.93,19.01-1.15,2.76-1.86,5.7-2.67,8.59-.56,2.01-1.15,4.04-1.35,6.1-.23,2.31-.35,4.71.02,6.98,1.18,7.3-.48,13.71-5.2,19.4-1.81,2.18-3.45,4.5-5.38,6.56-.3-.16-.61-.32-.91-.48Z" style="fill: inherit;"/><path d="M291.45,77.04c3.59-5.62,7.55-10.64,12.81-14.46,2.93-2.13,6.03-3.53,9.79-3.31,2.32.13,4.42.74,6.23,2.09,1.89,1.41,3.66,1.42,5.83.69,4.9-1.67,9.91-2.32,15.03-.83,3.09.89,5.8,2.44,8.22,4.47,2.2,1.84,3.32,4.3,3.53,7.2.13,1.81.23,3.67.74,5.39,1.55,5.16-1.16,11.53-8.02,13.1-3.17.73-6.32,1.31-9.29,2.8-1.31.66-3.06.57-4.61.59-4.23.06-8.32-.71-12.17-2.53-.7-.33-1.36-.79-1.98-1.27-.81-.61-1.32-1.49-.58-2.34.4-.46,1.32-.72,1.97-.67,2.72.19,5.44.57,8.16.8,3.29.27,6.07-.75,8.64-2.93,1.64-1.39,3.75-2.3,5.77-3.15,2.22-.94,2.37-.83,1.81-3.01-.47-1.82-.72-3.58-.19-5.41.52-1.81-.24-3.04-1.82-3.87-2.73-1.44-5.65-2.31-8.68-1.73-2.66.51-5.26,1.47-7.82,2.41-2.09.77-3.98.63-5.12-1.35-2.62-4.57-6.44-4.75-10.83-3.48-4.88,1.41-8.8,4.5-12.81,7.42-1.54,1.12-3.06,2.27-4.59,3.4Z" style="fill: inherit;"/><path d="M243.39,220.63c3.07-3.71,6.84-5.99,11.6-6.46,6.81-.68,13.51.27,20.26.92,8.6.82,16.56,3.81,24.5,6.75,7.52,2.78,15.1,2.77,22.79,2.16,3.41-.27,6.52-1.9,9.44-3.64,4.71-2.8,9.37-5.69,13.96-8.68,4.97-3.24,23.33-11.5,28.86-13.48.61-.22,1.27-.34,1.92-.42,2.78-.34,5.57-.66,8.55-.38-2.71,1.34-5.34,2.89-8.15,3.98-9.01,3.49-29.68,15.06-37.17,21.01-5.24,4.16-10.82,7.95-17.57,9.11-8.71,1.49-17.44,1.86-25.85-1.66-4.7-1.97-9.31-4.14-14.04-6.04-7.27-2.91-14.54-5.93-22.43-6.75-5.14-.53-10.16-.27-14.59,2.94-.56.41-1.38.45-2.08.66Z" style="fill: inherit;"/><path d="M320.24,241c-3.67,4.91-5.77,10.45-7.45,16.09-2.99,9.98-6.91,19.51-12.7,28.2-6.76,10.16-15.98,17.45-26.74,23.08-7.45,3.9-15.04,4.87-23.14,3.02-5.48-1.25-10.99-2.41-16.48-3.62-.64-.14-1.29-.26-1.89-.51-.3-.12-.73-.67-.68-.75.26-.39.64-.7,1.01-1.02.08-.07.25-.01.38-.02,8.7-.91,17.4-1.77,26.09-2.77,4.2-.48,8.16-1.93,11.96-3.7,12.15-5.65,22.08-13.86,29.33-25.26,4.5-7.08,8.7-14.29,12.23-21.94,1.68-3.63,4.45-6.75,6.78-10.06.26-.37.84-.5,1.28-.74Z" style="fill: inherit;"/><path d="M290.99,162.13c.74-.08,1.5-.3,2.21-.21,4.27.54,8.53,1.23,12.8,1.74,5.67.66,11.4.69,16.24-2.77,3.79-2.71,7.26-6.01,9.59-10.08,2.63-4.59,1.79-9.71,3.81-14.21.48-1.06,1.21-2.01,1.57-3.11.95-2.89-.81-5.87-1.71-8.77-1.8-5.74-.35-13.93,4.8-17.57.53-.37,1.1-.74,1.71-.93,3.2-1.02,1.61,3.65,1.15,4.86-1.17,3.06-2.49,5.94-2.62,9.28-.18,4.63.57,9.11.17,13.75-.4,4.63-1.69,8.98-3.65,13.15-1.45,3.08-2.73,6.26-4.5,9.15-4.44,7.27-10.26,12.92-19.18,14.11-5.22.69-10.14-.79-14.77-3.03-2.69-1.3-5.13-3.1-7.68-4.68.01-.22.03-.45.04-.67Z" style="fill: inherit;"/><path d="M296.77,61.85c-2.11.27-3.41-.62-4.81-1.23-3.66-1.6-7.39-2.58-11.42-1.39-4.59,1.36-8.18,5.92-8.34,10.74-.02.52.11,1.06.02,1.56-.39,2.18-1.88,3.54-4.06,3.24-4.45-.62-8.22.94-11.8,3.27-8.27,5.41-13.61,12.86-15.67,22.58-.19.89-.25,1.81-.3,2.72-.15,3.09-.13,3.07,2.99,4.24.22.08.36.52.41.82.02.08-.39.36-.6.36-2.69-.07-5.16-1.95-5.63-4.59-.3-1.64-.35-3.4-.11-5.05,1.22-8.45,5.09-15.6,11.01-21.67,4.08-4.18,8.75-7.45,14.51-8.84,1.34-.32,1.93-.99,2.16-2.35.54-3.17,2.01-5.91,4.2-8.28,4.63-5.01,12.28-6.57,19.05-2.8,3.05,1.7,5.56,4.07,8.36,6.67Z" style="fill: inherit;"/><path d="M65.5,308.67c-4.54-3.07-9.06-1.01-13.51-.92-2.86.06-5.72.42-8.58.52-1.16.04-2.36-.13-3.49-.42-4.82-1.21-6.97-5.44-5.01-10.03,2.23-5.21,6.12-8.87,11.47-10.6,7.9-2.55,15.98-3.81,24.36-2.92,2.66.28,5.41-.29,8.24-.47-.63,1.72-2.4,2.25-3.94,2.78-2.1.71-4.31,1.34-6.5,1.46-6.66.36-12.83,2.5-18.86,5.01-3.27,1.36-6.12,3.5-7.54,7.24.98.87,2.13.83,3.28.78,3-.13,6.01-.45,9-.34,4.69.16,8.71,1.76,10.9,6.34.15.31.1.7.2,1.57Z" style="fill: inherit;"/><path d="M131.33,328.85c-2.7-5.56-5.13-10.19-8.79-14-1.08-1.12-2.24-2.27-3.59-2.99-3.92-2.1-7.83-4.3-11.97-5.9-6.89-2.66-9.5-6.4-7.83-14.8.18-.9.42-1.79.67-2.67.69-2.47.03-4.6-1.4-6.66-1.07-1.55-2.17-2.68-4.39-2.12.73-.42,1.46-1.18,2.18-1.17.95.02,2.07.42,2.81,1.03,3.29,2.72,5.07,6.27,5.31,10.56.04.65-.16,1.32-.07,1.96.66,4.66.6,5.28,5.53,6.87,4.47,1.44,8.96,2.98,13.21,4.96,6.18,2.88,9.9,7.66,9.49,14.87-.17,3.06.18,6.19-1.16,10.06Z" style="fill: inherit;"/><path d="M248.76,131.32c6.61-.73,12.74-2.4,18.89-3.93,3.01-.75,5.62-2.19,7.68-4.46,1.83-2.03,3.37-4.15,3.31-7.25-.07-3.32,1.95-4.45,4.91-2.93,1.87.96,3.33.71,5.13-.15,4.01-1.91,6.92-5.08,9.94-8.13,2.02-2.04,3.85-4.26,5.82-6.35.71-.75,1.52-1.44,2.38-1.99.31-.2.98-.02,1.39.18.16.08.19.78.03,1.06-.64,1.14-1.32,2.26-2.07,3.33-3.5,5.06-7.23,9.91-12.02,13.86-2.24,1.84-4.52,3.57-7.42,4.18-1.31.28-1.84,1.08-2.37,2.27-4.35,9.88-12.22,14.28-22.76,13.97-3.08-.09-6.16-.94-9.18-1.69-1.3-.32-2.44-1.29-3.66-1.96Z" style="fill: inherit;"/><path d="M200.81,162.86c-1.08.26-1.71.58-2.3.53-6.87-.62-13.81-.65-20.57-2.32-9.37-2.32-17.46-6.99-24.6-13.33-4.3-3.82-8.32-7.96-12.58-11.82-3.61-3.27-7.58-6.05-12.42-7.25-6.46-1.6-12.41-.73-17.6,3.72-.22.19-.65.15-.98.22-.02-.44-.25-1.05-.04-1.29,3.18-3.74,7.19-6.12,12.1-6.48,5.31-.39,10.37.69,15.06,3.39,4.56,2.63,8.64,5.86,12.51,9.42,5.39,4.95,10.66,10.07,17.01,13.85,5.55,3.29,11.41,5.86,17.68,7.38,4.94,1.2,9.96,2.08,14.95,3.13.47.1.89.42,1.78.86Z" style="fill: inherit;"/><g><path d="M366.7,328.46c4.38-4.72,9.76-6.24,15.89-5.44,5.55.72,11.22,5.98,9.74,14.49-1.02,5.85-4.28,10.38-8.49,14.25-4.76,4.37-10.38,7.07-16.94,7.29-7.82.27-13.87-3.3-18.66-9.18-1.65-2.03-3.3-3.92-5.41-5.55-2.12-1.64-3.89-3.9-5.38-6.18-4.72-7.19-7.81-15.11-9.04-23.61-1.07-7.39-.79-14.83.56-22.22,3.28-17.99,11.91-33.11,24.48-46.17,9.34-9.7,19.98-17.69,31.78-24.09,10.45-5.67,21.08-10.99,31.53-16.63,4.24-2.29,8.31-4.94,12.33-7.6,3.63-2.4,6-5.79,6.97-10.09.11-.48.34-.94.76-1.35.85,3.73.29,7.25-1.45,10.62-2.43,4.7-6.19,8.14-10.71,10.65-7.41,4.11-14.93,8.02-22.44,11.94-11.01,5.75-22.04,11.46-31.95,19.05-11.43,8.76-21.53,18.77-28.82,31.3-6.56,11.27-10.31,23.45-10.62,36.56-.3,12.69,3.44,24.15,10.62,34.54.22.32.47.63.76.9.15.14.4.17.89.35-.34-1.17-.56-2.18-.93-3.13-6.17-16.15-5.92-32.51-1.38-48.93,3.75-13.55,11.35-24.95,20.43-35.46,14.83-17.16,32.75-30.34,52.96-40.45,5-2.5,10.32-4.42,15.6-6.32,9-3.24,13-13.22,8.37-21.36-3.26-5.73-10.15-7.66-15.89-4.45-.57.32-1.07.8-1.67,1.01-.42.14-1.01.05-1.43-.14-.18-.08-.23-.69-.17-1.03,1.17-7.63,8.59-11.53,15.72-8.35,11.74,5.25,13.69,17.78,9.66,26.47-2.96,6.38-7.45,11.31-14.22,14.46-17.14,7.97-33.11,17.91-47.22,30.62-10.17,9.16-19.4,19.16-26.36,31.02-7.41,12.62-10.78,26.32-9.85,40.99.22,3.39.45,6.8,1.08,10.12,1.15,6.1,3.31,11.85,7.16,16.81,3.63,4.67,8.39,7.35,14.35,6.14,4.69-.95,8.69-3.58,11.66-7.46,1.03-1.35,1.96-2.81,2.73-4.32,2.34-4.58.91-8.2-3.99-9.94-3.23-1.15-6.58-1.7-10.01-.75-.99.27-2.01.39-3.02.58Z" style="fill: inherit;"/><g><path d="M441.58,123.27c-1.07-7.21-5.49-14.02-10.02-20.78-3.79-5.65-7.47-11.35-10.19-17.63-3.05-7.07-4.83-14.46-4.99-22.08-.29-13.49,1.94-26.6,7.45-39.01,1.98-4.45,4.49-8.64,8.03-12.04,2.46-2.36,5.16-4.28,8.96-4.1,3.5.16,6.95,4.46,6.02,8.14-.2.77-.83,1.64-1.52,2.04-.98.58-2.04.17-2.8-.72-.25-.3-.37-.7-.6-1.01-2.65-3.66-3.26-3.69-6.45-.23-4.19,4.55-6.56,10.07-8.32,15.88-3.21,10.61-4.81,21.49-3.76,32.53.75,7.98,2.96,15.71,7.41,22.57,3.7,5.7,7.62,11.27,11.22,17.04,5.28,8.47,9.57,17.39,11.99,27.15,2.33,9.4.47,18.19-3.77,26.61-1.72,3.41-3.96,6.5-6.92,8.98-2.92,2.45-6.19,3.64-10.11,3.46-7.15-.33-12.85-8.27-10.61-16.01.38-1.31,1.45-2.45,2.33-3.57.2-.26.95-.19,1.41-.08.12.03.24.85.08,1.15-1.87,3.53-.57,6.71,1.41,9.52,2.38,3.37,6.84,3.57,9.49.31,3.57-4.4,6.37-9.27,6.54-15.24.2-7.15-.46-15.21-2.24-22.87Z" style="fill: inherit;"/><path d="M496.09,183.4c.01-2.69-.09-5.28.06-7.85.14-2.46,1.43-4.52,3.13-6.18,3.01-2.96,6.7-3.64,10.85-1.73,2.2,1.01,4.38,2.55,5.91,4.4,2.57,3.1,4.76,6.55,6.85,10.01,2.63,4.37,4.92,8.95,9.29,11.96,1.09.75.92,2.59,2.71,2.9,1.35.24,2.6,1.05,4.82,1.99-2.28.78-3.75,1.09-5.03,1.76-3,1.57-5.92,3.3-8.84,5.01-2.59,1.51-5.11,3.15-7.72,4.63-7.76,4.4-15.62,1.77-21.11-3.7-2.4-2.39-3.93-5.2-4.33-8.59-.53-4.54,2.53-8.34,7.96-8.96-1.45-.41-2.2-.69-2.97-.83-15.21-2.78-29.56-7.89-42.8-15.96-1.22-.74-2.49-1.56-3.36-2.65-.65-.82-1.16-2.26-.9-3.18.41-1.43,2.05-1.47,3.35-1.35.89.08,1.76.49,2.6.85,8.92,3.77,17.86,7.49,26.73,11.36,4.31,1.88,8.49,4.06,12.8,6.14ZM527.99,195.26c-6.51-1.61-10.97-5.6-14.44-10.91-.85-1.31-1.62-2.68-2.53-3.95-1.06-1.49-2.09-3.01-3.36-4.32-2.45-2.52-4.85-1.88-5.68,1.54-1.05,4.33.39,7.96,3.6,10.92.64.58,1.94.91,1.12,1.96-.38.48-1.61.38-2.46.39-.49,0-1.01-.23-1.48-.44-.66-.28-1.09-.46-1.32.54-.13.56-.75,1.02-1.16,1.5-2.01,2.35-2.13,3.9-.14,6.18,3.67,4.21,8.57,6.58,14.47,2.35,4.06-2.91,8.15-5.6,13.39-5.76Z" style="fill: inherit;"/><path d="M371.06,132.39c.59.14,1.12.22,1.61.4,7.67,2.84,15.43,5.5,22.99,8.58,7.4,3.02,14.77,6.16,21.46,10.55.46.3,1.17.86,1.11,1.19-.14.82-.97.43-1.56.46-5.23.26-10.07-1.3-14.9-2.87-7.3-2.38-14.3-5.41-21.13-8.83-3.25-1.63-6.56-3.15-9.84-4.71-1.56-.75-1.58-.78-.86-2.35.36-.79.73-1.58,1.12-2.42Z" style="fill: inherit;"/><path d="M424.41,17.9c-2.62,2.62-4.72,4.4-6.44,6.5-5.17,6.3-7.41,13.8-8.1,21.74-.74,8.5-.41,16.96,1.81,25.29,1.12,4.22,2.79,8.15,5.07,11.85,3.98,6.45,8.07,12.84,11.86,19.39,5.1,8.81,8.11,18.43,9.79,28.43.85,5.03.38,10.16-.42,15.2-.39,2.42-.95,4.81-1.99,7.19-.09-.67-.28-1.34-.25-2.01.39-9.2-.27-18.3-3.13-27.09-3.32-10.22-7.79-19.92-13.74-28.93-3.52-5.33-7.4-10.52-9.55-16.62-1.39-3.93-2.75-7.97-3.28-12.08-.95-7.25-.97-14.6.17-21.87,1.22-7.74,3.67-15.05,8.96-21.02,1.87-2.11,4.34-3.71,6.6-5.46.41-.32,1.14-.24,2.65-.52Z" style="fill: inherit;"/><path d="M390.92,105.4c-1.49,1.2-2.97,1.22-4.53.49-1.59-.74-2.52-1.96-2.42-3.7.08-1.28.33-2.61.79-3.81,4.35-11.5,8.74-23,13.17-34.47,2.59-6.71,5.3-13.38,7.91-20.09.47-1.21.68-2.51,1.09-3.75.09-.27.62-.66.78-.6.42.17,1.08.57,1.07.87-.02,1.17-.13,2.37-.44,3.49-1.74,6.45-3.51,12.88-5.32,19.31-1.87,6.68-3.91,13.32-5.65,20.03-1.58,6.08-2.87,12.25-4.28,18.37-.36,1.54-.62,3.14-2.16,3.83Z" style="fill: inherit;"/><path d="M355.31,218.75c.46.14.8.57.94,1.03.16.5.12,1.04.05,1.56-.31,2.28-1.5,4.12-2.13,6.29-.59,2.03-1.09,3.96-1.87,5.95-1.96,5.01-4.02,9.98-5.99,14.99-2.99,7.57-5.38,15.4-9.03,22.72-.7,1.41-1.6,2.68-2.51,3.97-.11.16-1.51,1.97-1.37,1.39,3.24-13.2,6.5-23.4,8.3-29.93,2.35-8.55,4.06-17.22,8.64-24.94.37-.62.76-1.24,1.3-1.71.68-.58,1.55-.89,2.4-1.17.37-.12.75-.25,1.13-.17.04,0,.08.02.12.03Z" style="fill: inherit;"/></g></g><path d="M374.5,133.38c.58.75,1.39,1.38,1.61,2.17.41,1.46,1.02,3.22.55,4.49-.93,2.49-1.88,5.04-3.11,7.38-1.33,2.53-4.05,3.55-6.69,4.47-.7.25-1.48.68-1.9,1.27-1.72,2.43-4.26,2.63-6.68,2.11-3.55-.75-6.95-2.1-10.56-4.93,1.43.03,2.08.01,2.73.07,1.94.18,3.89.56,5.83.54,2.07-.02,4.04-.26,5.55-2.26.85-1.13,2.58-1.66,3.98-2.3,1.27-.58,2.06-1.09,2.1-2.82.04-1.7.97-3.37,1.57-5.25-.48-.28-1.3-.68-2.04-1.18-2.65-1.78-2.8-4.46-.3-6.45.9-.72,2.05-1.14,3.04-1.76.66-.41,1.33-.87,1.86-1.43.64-.69.65-1.55-.4-1.79-1.77-.41-3.58-.72-5.39-.9-1.63-.16-3.29-.02-4.93-.14-.42-.03-1.06-.48-1.15-.84-.1-.39.22-1.06.57-1.35.59-.47,1.33-1,2.03-1.04,2.98-.16,5.98-.27,8.96-.16,2.74.1,5.21,1.02,6.21,3.91.97,2.81-.07,5.11-2.22,7-.39.34-.74.73-1.2,1.19Z" style="fill: inherit;"/><path d="M398.73,165.54c-1.37-.36-2.63-.6-3.8-1.06-.53-.2-1.31-.98-1.23-1.27.19-.64.77-1.47,1.35-1.63,2.75-.73,5.42-.51,7.79,1.3,1.39,1.06,1.83,2.49,1.69,4.15-.11,1.32-.19,2.48,1,3.54,2.54,2.26,2.8,5.15,1.73,8.24-.3.86-.61,1.74-1.05,2.53-.62,1.14-.79,2.15.11,3.25,1.27,1.56.84,3.09-.07,4.71-1.26,2.24-2.99,3.93-5.18,5.21-1.8,1.05-3.55,2.19-5.39,3.15-.62.32-1.44-.06-1.18-.93.42-1.36,1.02-2.67,1.64-3.96.93-1.94,1.63-3.65-.03-5.76-1.25-1.59-.96-3.75-.18-5.65.55-1.33,1.29-2.58,1.77-3.92.23-.66.38-1.7.03-2.15-2.15-2.77-1.37-5.37.19-8,.26-.44.43-.93.8-1.76Z" style="fill: inherit;"/><path d="M215.12,192.21c-1.46-1.62-1.68-3.15-1.61-4.68.33-6.88,2.55-13,7.08-18.31,5.51-6.46,12.43-10.71,20.31-13.58,4.17-1.52,8.32-3.08,12.48-4.6.7-.26,1.46-.37,2.45-.06-.51.49-.98,1.07-1.55,1.47-7.29,5.09-14.62,10.12-21.88,15.24-2.67,1.89-5.26,3.9-7.76,6.01-4.22,3.56-6.93,8.18-8.71,13.34-.49,1.44-.49,3.04-.81,5.16Z" style="fill: inherit;"/><path d="M368.77,178.36c-.65.62-1.37,1.19-1.95,1.87-2.71,3.2-6.16,4.64-10.32,4.81-6.26.26-12.52.53-18.76,1.07-6.82.59-12.99,2.92-17.93,7.9-.32.33-.63.66-1.61,1.69.31-1.49.26-2.17.56-2.59,5.03-7.12,11.84-11.27,20.56-12.24,5.71-.64,11.41-1.35,17.11-2.02,1.68-.19,3.38-.26,5.05-.49,1.78-.24,3.54-.69,5.33-.82.6-.04,1.26.61,1.89.94l.07-.13Z" style="fill: inherit;"/><path d="M255.79,181.52c1.81-3.77,5.4-4.45,8.83-4.61,7.02-.32,14.05-.3,21.05.77,4.07.62,7.83,1.99,11.39,3.98,3.88,2.17,7.75,4.34,11.61,6.54.49.28.87.76,2,1.77-6.08-.56-11.36-.72-15.92-3.34-6.9-3.95-14.41-5.27-22.08-6.18-2.33-.28-4.66-.47-7-.68-3.42-.3-6.69.19-9.88,1.75Z" style="fill: inherit;"/><path d="M73.26,303.36c.52-.09.95-.31,1.23-.19,3.78,1.62,7.19,3.8,9.61,7.21,3.2,4.51,5.42,9.47,6.99,14.79,2.06,7.01,4.36,13.96,6.71,20.88.73,2.15,1.99,4.11,3.41,6.97-3.63-2.52-4.81-5.66-6.11-8.54-2.46-5.46-4.49-11.11-6.7-16.68-1.89-4.76-4.24-9.24-7.83-12.99-3.15-3.29-5.76-6.95-7.31-11.44Z" style="fill: inherit;"/><path d="M368.7,178.49c.12-.06.32-.11.34-.18.9-5.44,3.97-9.84,6.8-14.37,1.58-2.53,3.38-4.88,3-8.26-.21-1.84,1.43-2.86,3.29-3.31,4.59-1.1,7.2,1.27,6.3,5.93-.27,1.4-.8,2.75-1.23,4.12-.66,2.08-1.33,4.16-2.27,7.09-1.33-4.52-.42-8.37-1.24-12.12-.95,4.09-3.9,6.86-6.26,9.99-2.37,3.14-4.76,6.26-5.83,10.13-.41,1.5-.65,3.05-.8,4.6-.04.4.54.92.93,1.28.26.23.69.28,1.04.41-.5.3-1.11.95-1.49.85-1.33-.37-2.25-1.2-2.21-2.81.02-1.15-.19-2.31-.3-3.47,0,0-.07.13-.07.13Z" style="fill: inherit;"/><path d="M369.05,118.48c-.38-1.31-.61-1.78-.64-2.27-.09-1.47-.88-1.64-2.12-1.36-5.52,1.24-10.93,2.65-14.4,7.73-.15.22-.75.39-.93.27-.26-.18-.51-.68-.44-.97.51-2.38,1.91-4.22,3.59-5.91,2.65-2.67,6.15-3.87,9.48-5.26,2.39-1,5-1.46,7.52-2.17,1.55-.44,2.88-.15,3.72,1.31.83,1.46,1.16,3.15-.1,4.37-1.55,1.49-3.44,2.62-5.66,4.26Z" style="fill: inherit;"/><path d="M315.81,115.65c1.03,1.43,1.94,2.8,2.97,4.07,1.48,1.82,3.18,2.98,5.77,2.1,1.13-.39,2.48-.14,4.48-.21-1.68,2.2-2.54,4-4.47,5.06-2.73,1.51-5.58,1.36-7.33-1.08-1.09-1.52-1.58-3.51-2.14-5.35-.44-1.46-.7-3.03.72-4.6Z" style="fill: inherit;"/><path d="M282.83,280.89c.39,1.66-1.22,4.13-2.97,4.54-1.49.35-3.36-.72-3.73-2.15-.43-1.65.87-3.88,2.55-4.37,1.82-.53,3.78.4,4.15,1.97Z" style="fill: inherit;"/><path d="M431.58,63.98c-.68.61-1.36,1.23-2.03,1.84-.15-.16-.3-.33-.46-.49l2.02-1.94c.16.2.31.4.47.6Z" style="fill: inherit;"/></svg>