<svg xmlns="http://www.w3.org/2000/svg" xmlns:xlink="http://www.w3.org/1999/xlink" version="1.0" viewBox="0 0 6250 6250" style="fill: rgb(0, 0, 0);" original_string_length="5928" width="366.4058231467837px" height="366.4058231467837px"><g><path d="M34835 58200 c-176 -5 -401 -13 -500 -20 -1853 -115 -4227 -393 -6970 -816 -1237 -191 -1891 -313 -2930 -549 -526 -120 -1374 -330 -1540 -381 l-80 -25 -580 120 c-1737 358 -2997 595 -3512 661 -87 11 -239 31 -338 45 -670 91 -1276 125 -1880 105 -364 -11 -431 -16 -680 -50 -1293 -174 -2435 -527 -3310 -1023 -561 -319 -1006 -671 -1404 -1112 -240 -266 -339 -410 -458 -665 -209 -447 -304 -893 -290 -1350 10 -296 44 -514 128 -802 109 -379 352 -875 587 -1197 253 -348 553 -670 837 -900 311 -252 561 -392 914 -515 402 -140 756 -162 1056 -65 117 37 143 54 274 176 310 290 483 591 509 885 40 449 -222 826 -828 1193 -212 129 -810 399 -931 420 -43 8 -136 -8 -187 -32 -133 -63 -204 -237 -156 -380 40 -117 96 -161 329 -254 818 -327 1182 -626 1134 -932 -18 -112 -153 -311 -297 -435 -60 -52 -63 -53 -151 -65 -210 -26 -499 44 -816 198 -373 181 -797 566 -1154 1048 -137 185 -304 488 -404 732 -199 488 -255 966 -166 1433 62 326 211 680 371 885 713 911 1893 1580 3408 1931 368 85 891 179 1205 215 294 35 987 42 1391 16 429 -28 654 -53 1314 -146 669 -94 2226 -396 4500 -874 871 -183 950 -198 1395 -269 232 -37 795 -120 880 -130 28 -4 97 -13 155 -21 593 -83 1624 -165 2435 -195 373 -14 1294 -14 1575 0 836 41 1526 129 2025 260 2137 559 4964 1222 5625 1319 792 117 1546 180 2025 168 525 -13 1567 -118 1954 -198 52 -11 262 -66 465 -124 3862 -1086 6868 -1764 8836 -1990 124 -14 297 -35 385 -45 420 -51 989 -91 1770 -122 430 -17 2513 -17 2925 0 1866 79 3009 172 3430 278 162 41 281 118 330 214 46 89 46 220 1 308 -94 185 -332 231 -493 97 -53 -45 -398 -91 -1128 -150 -254 -21 -1387 -80 -2095 -110 -513 -21 -1860 -30 -2460 -16 -1156 27 -1575 55 -2565 171 -1988 232 -4750 851 -8645 1940 -616 172 -668 184 -1000 231 -86 12 -92 14 -124 52 -19 21 -50 49 -70 62 -130 81 -634 198 -1951 451 -635 122 -813 150 -1435 228 -793 99 -1724 140 -2640 116z m1295 -640 c469 -21 911 -58 1355 -114 409 -52 526 -69 518 -76 -5 -4 -111 -19 -238 -34 -601 -71 -870 -119 -1700 -302 -1098 -242 -3134 -736 -4405 -1069 -753 -197 -1610 -285 -2785 -285 -915 0 -1898 59 -2875 171 -419 48 -1666 234 -1765 263 -38 11 1302 297 1970 420 1078 199 3639 563 5275 750 1187 136 2688 267 3200 279 326 8 1245 6 1450 -3z" transform="translate(0.000000,6250.000000) scale(0.100000,-0.100000)" style="fill: inherit;"/><path d="M5715 57844 c-247 -44 -523 -186 -713 -369 -103 -97 -168 -184 -226 -295 -83 -160 -116 -293 -123 -500 -6 -153 3 -253 38 -423 11 -54 19 -101 17 -103 -3 -2 -60 9 -129 23 -114 25 -142 28 -339 28 -237 -1 -298 -10 -465 -74 -247 -95 -494 -339 -643 -636 -234 -467 -157 -973 225 -1488 286 -385 849 -619 1600 -665 85 -6 328 -5 595 0 677 14 1137 -2 1341 -47 79 -18 151 -9 223 25 76 37 163 153 164 218 0 23 4 25 95 58 70 25 156 112 179 182 20 60 23 148 8 207 -41 155 -57 603 -44 1240 7 346 7 579 1 670 -37 551 -158 974 -366 1290 -209 316 -639 587 -1048 661 -100 18 -284 17 -390 -2z m410 -664 c153 -48 369 -179 449 -273 160 -191 270 -529 305 -942 15 -175 15 -214 6 -850 -8 -584 -2 -794 29 -1068 6 -59 10 -109 9 -111 -2 -2 -26 1 -54 5 -27 4 -148 15 -267 24 -180 14 -344 16 -967 13 -685 -3 -761 -1 -875 15 -422 62 -752 202 -883 375 -145 193 -215 363 -224 542 -6 132 12 224 67 335 100 202 228 297 443 327 164 23 411 -29 699 -149 152 -62 168 -67 238 -67 106 -1 160 28 273 143 108 111 132 157 132 261 0 65 -6 87 -39 165 -121 284 -177 501 -177 685 0 226 68 364 233 474 91 60 108 68 218 103 66 21 89 23 195 19 85 -3 140 -11 190 -26z" transform="translate(0.000000,6250.000000) scale(0.100000,-0.100000)" style="fill: inherit;"/><path d="M7475 50493 c-144 -11 -280 -27 -340 -38 -318 -61 -598 -159 -910 -318 -147 -76 -258 -153 -441 -309 -1166 -999 -1908 -2576 -2213 -4705 -42 -291 -49 -370 -62 -683 -25 -599 13 -1323 106 -2000 13 -96 36 -260 50 -365 82 -601 337 -1942 746 -3925 20 -98 20 -107 5 -150 -47 -135 -312 -1211 -450 -1830 -199 -896 -325 -1570 -476 -2550 -422 -2743 -684 -4892 -815 -6700 -37 -511 -45 -695 -52 -1235 -13 -1023 45 -1867 202 -2935 53 -359 280 -1540 400 -2085 115 -520 155 -638 243 -723 l50 -47 22 -145 c42 -280 71 -414 159 -728 812 -2886 1416 -5386 1745 -7222 195 -1086 326 -2166 376 -3100 53 -994 58 -2733 11 -3775 -65 -1424 -127 -2313 -192 -2755 -27 -181 -41 -231 -77 -277 -41 -52 -62 -120 -62 -202 0 -129 90 -253 209 -288 70 -20 166 -20 231 2 107 36 206 164 249 325 91 337 171 1174 241 2510 58 1128 62 1281 63 2370 2 1798 -44 2634 -219 3980 -250 1931 -937 4946 -1945 8530 -110 389 -125 458 -169 760 -54 374 -100 840 -136 1390 -35 526 15 1254 152 2215 93 655 621 2908 1273 5440 129 499 163 668 221 1090 162 1182 157 2800 -16 4540 -84 854 -236 1872 -385 2576 -575 2737 -883 4333 -994 5149 -111 811 -139 1180 -138 1775 1 541 19 755 103 1258 278 1656 827 2896 1660 3750 283 291 459 434 659 533 509 252 1000 320 1547 213 273 -53 476 -124 769 -269 361 -178 639 -379 964 -695 409 -399 631 -757 743 -1195 35 -140 47 -304 28 -406 l-12 -69 -107 -106 c-113 -113 -226 -194 -319 -229 -45 -18 -72 -21 -130 -17 -282 17 -563 389 -862 1145 -93 233 -126 276 -249 323 -44 17 -70 20 -123 16 -170 -14 -289 -145 -290 -318 0 -60 8 -87 83 -275 95 -240 277 -609 376 -766 264 -417 528 -649 840 -739 119 -34 321 -33 461 3 120 31 276 103 386 178 155 104 370 307 464 439 39 54 87 199 108 329 23 139 14 384 -20 547 -44 209 -112 410 -214 630 -217 468 -661 973 -1236 1405 -320 240 -782 478 -1175 604 -369 119 -792 176 -1116 149z m-2695 -14183 c254 -1531 371 -2894 372 -4334 0 -648 -21 -1105 -73 -1586 -53 -492 -104 -768 -240 -1295 -560 -2179 -982 -3945 -1213 -5081 -46 -224 -94 -547 -141 -934 -14 -118 -27 -224 -28 -235 -6 -44 -94 627 -127 966 -84 852 -99 1963 -39 2844 125 1850 384 4003 819 6835 166 1078 304 1803 536 2820 72 314 76 330 80 315 2 -5 26 -147 54 -315z" transform="translate(0.000000,6250.000000) scale(0.100000,-0.100000)" style="fill: inherit;"/></g></svg>