<svg xmlns="http://www.w3.org/2000/svg" xmlns:xlink="http://www.w3.org/1999/xlink" version="1.0" viewBox="0 0 1500 1500" style="fill: rgb(0, 0, 0);" original_string_length="25122" width="266.5523507982732px" height="266.5523507982732px"><g><path d="M7258 14317 c-81 -24 -118 -58 -118 -108 0 -22 -8 -47 -22 -64 -18 -23 -23 -45 -26 -115 l-4 -86 41 -27 c67 -45 78 -38 100 65 8 36 20 64 34 75 12 10 35 35 50 56 52 70 99 40 167 -108 71 -151 142 -497 280 -1355 59 -368 141 -687 315 -1220 122 -374 149 -467 210 -710 50 -200 95 -389 270 -1145 122 -526 234 -879 380 -1200 38 -82 201 -414 362 -737 263 -526 296 -596 314 -678 11 -50 26 -102 34 -114 8 -12 52 -54 97 -93 107 -91 589 -580 828 -838 102 -110 233 -250 292 -311 59 -60 110 -122 113 -136 4 -16 1 -38 -9 -56 -34 -66 -259 -292 -625 -627 -478 -438 -812 -882 -967 -1286 -34 -90 -74 -149 -100 -149 -18 0 -89 84 -131 154 -20 34 -89 138 -153 231 -64 94 -185 276 -270 405 -84 129 -186 278 -226 331 -154 201 -421 424 -634 530 -32 16 -61 33 -64 38 -3 5 -10 40 -15 77 -9 60 -15 73 -45 101 -44 41 -131 68 -305 94 -269 40 -454 103 -671 226 -161 91 -309 202 -634 472 -531 442 -881 681 -1157 790 -151 59 -391 90 -765 98 -278 6 -337 2 -544 -42 -212 -45 -394 -54 -705 -35 -184 11 -286 33 -393 86 -145 71 -339 244 -384 342 -37 82 1 122 157 166 122 35 234 46 465 46 412 0 742 70 1033 219 156 81 213 125 563 447 254 233 273 259 282 388 9 138 -42 350 -113 468 -54 92 -183 256 -274 351 -203 211 -410 323 -671 363 -184 28 -516 3 -742 -56 -130 -33 -184 -54 -361 -139 -217 -104 -359 -140 -507 -126 -90 8 -138 28 -146 62 -9 36 12 122 48 195 101 205 605 539 1133 748 444 177 592 219 795 227 267 10 437 -36 775 -208 116 -59 275 -133 355 -164 79 -31 169 -74 200 -95 48 -33 205 -190 475 -477 100 -106 136 -122 224 -99 71 18 163 56 159 65 -2 3 -37 58 -79 121 -42 63 -129 207 -193 320 -132 229 -213 355 -373 576 -157 216 -304 452 -547 877 -118 205 -264 455 -326 557 -62 102 -131 222 -152 268 -84 177 -147 421 -133 511 14 83 13 81 43 70 42 -16 64 -40 211 -234 366 -480 645 -899 953 -1430 80 -137 177 -299 215 -360 154 -243 436 -671 456 -692 11 -13 45 -40 74 -60 45 -31 63 -37 108 -37 43 -1 58 4 79 23 41 39 48 75 36 202 -14 160 -18 184 -45 269 -13 41 -33 125 -45 185 -26 132 -88 377 -165 650 -31 110 -83 304 -115 430 -32 127 -91 352 -130 500 -134 513 -160 676 -167 1028 l-5 267 26 -10 c102 -38 177 -123 266 -300 82 -163 119 -290 430 -1480 94 -360 190 -711 212 -779 46 -139 151 -357 225 -471 58 -87 118 -145 162 -155 38 -8 128 17 165 46 62 48 61 45 60 479 -1 217 -10 548 -19 735 -22 450 -31 1453 -16 1736 10 189 26 362 47 524 l6 50 -22 -21 c-13 -13 -28 -49 -38 -90 -20 -81 -34 -89 -93 -50 l-39 26 -9 -22 c-18 -48 -31 -139 -40 -294 -6 -89 -16 -174 -22 -190 -6 -16 -11 -58 -10 -94 1 -36 1 -76 1 -90 -5 -710 -4 -917 4 -928 6 -8 5 -22 -3 -38 -16 -36 -14 -266 4 -339 21 -85 21 -325 0 -325 -17 0 -30 -40 -21 -67 6 -19 -17 -63 -28 -53 -2 3 -6 27 -7 53 -2 26 -6 47 -9 47 -15 0 -29 52 -31 114 -1 43 -7 70 -16 78 -29 24 -54 92 -66 176 -7 53 -17 92 -28 103 -9 9 -19 36 -22 60 -3 24 -15 62 -27 84 -11 21 -20 51 -20 66 0 14 -18 57 -40 95 -29 50 -42 88 -49 136 -6 42 -17 78 -30 94 -12 15 -21 37 -21 49 0 13 -9 42 -20 66 -11 24 -20 52 -20 62 0 11 -9 30 -20 44 -11 14 -20 37 -20 50 0 14 -11 38 -25 55 -14 16 -25 40 -25 53 0 13 -11 45 -25 71 -14 26 -25 53 -25 59 0 7 -6 18 -14 24 -8 7 -17 27 -20 45 -4 18 -15 41 -25 50 -11 10 -22 29 -25 42 -4 13 -15 33 -26 44 -11 11 -20 31 -20 44 0 13 -7 29 -15 36 -8 7 -15 17 -15 22 0 6 -13 26 -30 45 -16 18 -30 40 -30 48 0 8 -7 15 -15 15 -9 0 -18 8 -22 18 -7 19 -15 29 -78 93 -25 26 -45 52 -45 58 0 6 -11 16 -25 21 -14 5 -25 16 -25 24 0 8 -9 17 -19 21 -11 3 -23 15 -26 26 -4 10 -15 19 -26 19 -11 0 -22 7 -25 15 -4 8 -12 15 -18 15 -7 0 -22 11 -34 25 -12 14 -32 25 -44 25 -13 0 -38 9 -56 20 -38 24 -108 26 -136 5 -11 -8 -30 -15 -43 -15 -12 0 -36 -12 -53 -27 -31 -28 -31 -29 -36 -153 -3 -69 -1 -226 3 -350 8 -186 12 -231 27 -259 11 -20 22 -72 26 -120 5 -47 16 -111 25 -141 9 -30 18 -97 21 -149 2 -51 11 -105 18 -120 7 -14 16 -56 19 -92 3 -37 15 -81 25 -100 11 -19 22 -56 25 -84 3 -27 15 -70 26 -95 10 -25 21 -63 22 -85 1 -22 11 -57 21 -77 10 -21 18 -53 18 -73 0 -20 20 -92 44 -159 62 -170 108 -325 147 -496 18 -80 41 -156 50 -170 19 -28 34 -150 19 -150 -6 0 -10 -9 -10 -21 0 -30 -34 -20 -38 11 -2 14 -10 29 -18 33 -8 4 -14 14 -14 22 0 8 -25 48 -55 91 -31 42 -81 118 -112 168 -57 93 -203 381 -203 403 0 7 -9 17 -20 23 -11 6 -20 15 -20 20 0 4 -13 22 -30 38 -16 17 -30 37 -30 45 0 8 -7 20 -15 27 -8 7 -15 19 -15 27 0 15 -27 55 -67 99 -13 14 -23 30 -23 36 0 6 -13 26 -30 45 -16 18 -30 40 -30 48 0 8 -7 15 -15 15 -9 0 -18 8 -22 18 -3 9 -26 38 -50 64 -23 26 -43 56 -43 66 0 11 -7 25 -15 32 -8 7 -15 17 -15 23 0 5 -10 20 -22 32 -49 48 -78 86 -78 100 0 9 -7 18 -15 21 -8 3 -17 15 -21 27 -4 12 -17 30 -30 40 -13 10 -24 24 -24 31 0 7 -9 21 -20 31 -11 10 -20 23 -20 29 0 6 -9 17 -20 24 -11 7 -20 18 -20 25 0 6 -16 22 -36 35 -20 13 -43 41 -53 62 -17 39 -65 102 -109 145 -12 12 -22 27 -22 33 0 6 -16 20 -35 32 -35 22 -145 137 -145 152 0 4 -7 8 -15 8 -8 0 -20 9 -27 20 -7 11 -18 20 -25 20 -6 0 -19 8 -28 17 -21 21 -234 41 -268 26 -12 -6 -43 -20 -69 -31 -34 -15 -51 -31 -64 -57 -9 -20 -23 -39 -31 -42 -10 -4 -13 -44 -13 -184 0 -160 2 -184 20 -219 12 -23 20 -59 20 -88 0 -26 5 -53 12 -60 7 -7 8 -12 3 -12 -4 0 0 -8 9 -19 9 -10 20 -36 23 -57 3 -22 13 -48 23 -59 10 -11 20 -35 24 -53 3 -19 15 -45 26 -59 11 -14 20 -30 20 -35 0 -5 9 -18 20 -30 11 -12 20 -31 20 -43 0 -12 9 -30 20 -40 11 -10 22 -27 26 -39 4 -11 17 -34 30 -49 13 -16 24 -37 24 -47 0 -10 18 -40 40 -66 22 -27 40 -54 40 -60 0 -6 11 -21 25 -34 14 -13 25 -30 25 -37 0 -8 7 -16 15 -19 8 -3 19 -21 25 -39 6 -18 19 -40 30 -50 10 -9 22 -30 25 -45 3 -16 13 -31 21 -34 8 -3 14 -13 14 -22 0 -9 11 -29 25 -46 14 -16 25 -36 25 -45 0 -8 11 -24 25 -35 14 -11 25 -28 25 -39 0 -10 16 -39 35 -65 19 -25 38 -58 42 -72 3 -15 17 -35 29 -45 12 -9 25 -31 29 -47 4 -17 11 -30 16 -30 5 0 11 -11 15 -24 3 -13 17 -34 30 -47 13 -12 24 -28 24 -34 0 -7 9 -20 20 -30 11 -10 20 -25 20 -33 0 -8 11 -23 25 -34 14 -11 25 -26 25 -34 0 -20 35 -67 93 -125 26 -26 47 -55 47 -64 0 -16 0 -17 84 -112 30 -34 62 -76 72 -95 19 -37 152 -198 164 -198 4 0 13 -13 19 -28 7 -15 30 -47 53 -70 22 -23 33 -40 24 -36 -10 4 -16 1 -16 -9 0 -9 -4 -18 -9 -21 -14 -9 -41 4 -41 19 0 7 -20 18 -44 24 -24 6 -46 17 -49 25 -3 8 -23 24 -44 35 -21 10 -51 33 -67 50 -17 17 -40 31 -53 31 -13 0 -31 9 -40 20 -10 11 -27 20 -39 20 -26 0 -71 34 -79 60 -4 11 -13 20 -21 20 -8 0 -14 4 -14 9 0 5 -14 14 -30 21 -17 7 -39 23 -49 36 -11 13 -24 24 -30 24 -6 0 -16 9 -23 20 -7 11 -18 20 -25 20 -6 0 -25 11 -41 25 -17 14 -34 25 -39 25 -6 0 -18 9 -28 20 -10 11 -27 20 -37 20 -10 0 -30 11 -44 25 -14 14 -35 27 -49 31 -13 3 -31 14 -41 25 -9 10 -26 19 -37 19 -12 0 -30 9 -42 20 -12 12 -40 23 -61 27 -21 3 -44 12 -50 20 -7 7 -37 18 -69 23 -31 5 -64 15 -72 21 -8 7 -59 16 -112 19 -56 4 -112 14 -130 23 -22 11 -46 14 -79 10 -26 -3 -74 -6 -107 -7 -33 -1 -77 -10 -98 -19 -24 -11 -58 -17 -95 -15 -43 1 -69 -4 -104 -21 -26 -12 -56 -20 -66 -17 -12 4 -25 -1 -37 -14 -11 -12 -31 -20 -49 -20 -17 0 -40 -6 -51 -14 -11 -7 -38 -16 -60 -19 -22 -4 -44 -13 -50 -20 -16 -22 -51 -37 -88 -37 -21 0 -41 -7 -52 -20 -10 -11 -31 -20 -46 -20 -17 0 -32 -7 -38 -19 -6 -10 -26 -22 -45 -25 -19 -4 -37 -13 -40 -21 -2 -8 -23 -19 -45 -26 -23 -7 -41 -16 -41 -20 0 -4 -16 -13 -36 -19 -38 -13 -91 -45 -119 -74 -9 -9 -22 -16 -29 -16 -7 0 -24 -9 -38 -19 -13 -11 -37 -23 -53 -27 -15 -4 -35 -13 -44 -21 -63 -54 -91 -73 -104 -73 -9 0 -21 -9 -27 -20 -6 -11 -16 -20 -22 -20 -6 0 -31 -18 -55 -41 -51 -47 -79 -49 -76 -4 9 110 8 162 -4 185 -7 14 -13 34 -13 46 0 12 -19 37 -45 60 -24 21 -45 45 -45 52 0 6 -6 12 -14 12 -8 0 -21 8 -28 19 -7 10 -24 22 -38 26 -23 7 -60 33 -100 69 -8 7 -27 16 -41 19 -14 4 -36 16 -49 27 -13 11 -36 20 -51 20 -18 0 -32 7 -39 20 -6 11 -23 23 -38 26 -15 3 -43 16 -62 29 -105 66 -107 67 -150 67 -34 0 -50 -5 -90 -30 -19 -12 -39 -22 -43 -22 -11 0 -67 -59 -67 -70 0 -5 -8 -15 -18 -22 -9 -7 -23 -26 -30 -41 -6 -15 -19 -30 -27 -33 -8 -4 -15 -13 -15 -21 0 -8 -9 -26 -20 -40 -11 -14 -20 -31 -20 -38 0 -6 -11 -22 -25 -35 -14 -13 -25 -32 -25 -42 0 -10 -11 -30 -25 -44 -14 -14 -25 -32 -25 -40 0 -8 -7 -17 -15 -20 -8 -4 -15 -12 -15 -19 0 -6 -8 -20 -19 -29 -10 -9 -28 -43 -40 -74 -11 -32 -34 -71 -51 -87 -16 -16 -30 -36 -30 -45 0 -9 -11 -31 -25 -50 -14 -19 -25 -39 -25 -45 0 -6 -11 -22 -25 -35 -14 -13 -25 -28 -25 -34 0 -5 -10 -20 -22 -33 -32 -34 -38 -195 -9 -275 29 -84 76 -148 137 -188 66 -43 332 -303 357 -349 22 -40 17 -57 -20 -73 -15 -7 -34 -21 -41 -30 -7 -10 -20 -18 -28 -18 -8 0 -14 -7 -14 -15 0 -9 -8 -19 -17 -22 -20 -8 -111 -98 -130 -128 -7 -11 -17 -31 -23 -45 -6 -14 -19 -34 -29 -45 -10 -11 -24 -37 -30 -57 -7 -20 -19 -42 -27 -48 -7 -7 -14 -27 -14 -44 0 -18 -9 -50 -21 -71 -26 -50 -43 -272 -34 -450 5 -100 10 -128 31 -167 13 -26 24 -61 24 -77 0 -17 11 -47 25 -67 14 -20 25 -42 25 -49 0 -7 9 -15 20 -18 11 -3 20 -14 20 -25 0 -11 11 -27 25 -36 13 -9 36 -37 51 -62 30 -50 63 -88 94 -104 11 -6 20 -17 20 -25 0 -8 9 -15 20 -15 12 0 33 -12 47 -26 14 -14 47 -32 72 -40 26 -7 67 -27 91 -43 43 -27 53 -29 185 -35 140 -6 270 6 338 33 43 17 46 14 29 -31 -8 -24 -17 -90 -20 -148 -4 -94 -2 -110 17 -145 11 -22 21 -53 21 -68 0 -16 11 -42 25 -59 14 -16 25 -35 25 -42 0 -17 247 -258 327 -319 65 -50 100 -67 137 -67 13 0 35 -9 49 -20 14 -11 40 -20 60 -20 19 0 54 -8 78 -17 35 -14 83 -17 244 -19 110 -1 225 -3 255 -4 30 -1 69 4 85 11 17 6 95 15 175 19 111 6 166 14 235 35 103 30 254 55 335 55 36 0 70 7 95 20 46 23 100 25 135 5 33 -19 153 -20 169 -1 6 7 25 16 43 20 17 3 36 13 43 22 10 15 13 15 27 0 9 -9 30 -16 46 -16 17 0 37 -9 48 -21 10 -12 46 -35 79 -51 33 -17 71 -38 85 -48 14 -10 45 -23 69 -30 24 -6 57 -24 72 -39 15 -15 42 -34 60 -41 18 -8 58 -39 88 -70 31 -31 64 -60 74 -63 9 -4 17 -11 17 -17 0 -5 22 -21 49 -35 27 -13 57 -35 68 -48 10 -13 36 -30 57 -37 22 -7 58 -29 80 -50 50 -45 166 -111 226 -129 24 -7 59 -28 78 -47 19 -19 42 -34 52 -34 10 0 32 -11 48 -25 17 -14 39 -25 51 -25 12 0 30 -9 41 -20 11 -11 29 -20 41 -20 19 0 51 -21 102 -65 9 -8 26 -15 36 -15 18 0 34 -11 98 -67 14 -13 31 -23 38 -23 6 0 24 -12 38 -27 49 -50 71 -68 109 -85 21 -9 49 -28 63 -43 15 -14 43 -32 63 -41 20 -8 54 -28 74 -44 20 -17 42 -30 48 -30 6 0 22 -11 35 -24 13 -14 34 -27 45 -31 11 -3 20 -10 20 -16 0 -5 15 -15 33 -22 17 -8 38 -21 46 -30 7 -10 22 -17 32 -17 11 0 19 -5 19 -11 0 -5 15 -16 33 -24 19 -8 39 -20 46 -28 6 -8 25 -17 41 -21 16 -3 38 -15 47 -26 10 -11 30 -20 45 -20 16 0 36 -8 46 -18 11 -11 39 -22 63 -26 24 -4 53 -13 64 -20 11 -7 45 -15 76 -18 31 -2 75 -14 99 -26 40 -19 59 -21 208 -21 90 1 166 -2 169 -5 4 -3 19 -6 35 -6 41 0 85 -25 143 -80 28 -26 60 -51 73 -55 12 -3 22 -13 22 -21 0 -8 4 -14 9 -14 24 0 171 -152 171 -176 0 -8 23 -39 51 -70 28 -31 60 -76 71 -100 10 -24 30 -55 43 -69 14 -13 25 -34 25 -45 0 -12 18 -42 39 -68 41 -48 80 -124 81 -154 0 -9 11 -30 25 -46 14 -17 25 -38 25 -47 0 -9 14 -30 30 -45 16 -15 30 -37 30 -49 0 -12 -23 -44 -55 -76 -30 -30 -55 -57 -55 -61 0 -4 -10 -17 -22 -28 -24 -23 -39 -44 -61 -83 -7 -12 -27 -42 -45 -68 -18 -26 -39 -62 -47 -81 -8 -19 -19 -34 -24 -34 -6 0 -11 -11 -11 -24 0 -13 -8 -34 -18 -47 -10 -13 -24 -38 -31 -56 -7 -18 -19 -38 -27 -44 -8 -6 -14 -21 -14 -33 0 -11 -11 -39 -25 -61 -15 -25 -24 -55 -25 -80 0 -23 -10 -58 -22 -80 -21 -37 -23 -52 -21 -175 2 -216 51 -414 120 -487 34 -36 119 -73 237 -103 113 -29 147 -26 220 15 34 19 81 41 104 49 23 8 52 24 64 36 12 11 29 20 37 20 9 0 22 9 29 20 7 11 16 20 21 20 8 0 109 92 156 141 40 42 52 57 61 79 16 36 90 127 119 146 23 15 27 15 51 -1 15 -9 33 -35 42 -56 8 -21 19 -39 24 -39 5 0 16 -15 24 -33 31 -65 52 -98 90 -140 22 -24 47 -57 56 -73 27 -45 41 -65 66 -91 13 -13 32 -43 42 -66 11 -24 29 -52 41 -63 19 -16 66 -81 104 -143 6 -9 17 -20 25 -25 32 -20 74 -73 96 -121 13 -27 46 -72 74 -98 28 -27 59 -66 70 -87 10 -21 26 -40 35 -43 8 -4 15 -13 15 -20 0 -8 9 -22 20 -32 11 -10 20 -24 20 -30 0 -7 11 -20 24 -29 14 -8 28 -26 32 -38 4 -13 28 -46 53 -74 25 -27 55 -68 66 -89 22 -43 37 -62 78 -102 15 -14 27 -36 27 -47 0 -12 9 -27 20 -34 11 -7 20 -17 20 -22 0 -6 7 -18 15 -27 72 -84 105 -125 105 -133 0 -9 12 -23 106 -121 24 -26 44 -56 44 -67 0 -12 9 -23 19 -27 11 -3 23 -14 26 -25 3 -10 12 -21 20 -24 8 -3 15 -11 15 -17 0 -7 19 -33 43 -59 23 -26 56 -70 72 -98 17 -28 48 -67 70 -86 23 -18 52 -55 65 -82 14 -26 33 -56 43 -66 9 -10 17 -24 18 -30 0 -18 145 -131 172 -135 44 -7 83 8 130 50 38 34 48 50 53 85 6 40 5 42 -19 42 -18 0 -37 14 -68 53 -24 28 -51 58 -61 65 -9 6 -20 27 -23 45 -4 17 -13 35 -19 40 -8 5 -7 10 3 16 20 13 6 78 -19 86 -10 3 -22 16 -26 28 -3 12 -16 33 -29 47 -12 14 -32 43 -45 65 -13 22 -38 56 -56 76 -17 20 -35 47 -39 60 -5 13 -27 47 -51 74 -24 28 -48 62 -54 75 -16 37 -35 68 -53 88 -10 10 -17 21 -17 25 0 3 -13 19 -30 35 -16 17 -30 37 -30 45 0 8 -7 17 -15 21 -8 3 -15 12 -15 20 0 9 -9 20 -20 26 -11 6 -20 15 -20 21 0 5 -19 28 -42 52 -24 23 -58 68 -76 99 -18 31 -42 64 -53 74 -10 9 -19 22 -19 29 0 7 -9 20 -20 30 -11 10 -20 22 -20 27 0 4 -8 17 -17 27 -29 31 -77 88 -95 113 -10 13 -27 35 -38 50 -11 14 -20 29 -20 33 0 10 -61 85 -102 126 -21 20 -38 41 -38 47 0 6 -16 19 -36 28 -43 20 -68 59 -84 126 -7 27 -20 53 -30 58 -9 5 -23 24 -31 42 -7 18 -19 37 -26 41 -7 4 -13 14 -13 22 0 8 -9 19 -20 25 -11 6 -20 17 -20 24 0 8 -7 20 -16 27 -15 13 -93 123 -124 177 -8 14 -32 41 -52 61 -21 19 -38 40 -38 46 0 6 -11 21 -25 33 -14 12 -25 28 -25 35 0 15 -24 49 -61 86 -15 14 -34 40 -42 57 -9 17 -27 39 -41 48 -15 9 -26 26 -26 37 0 12 -11 34 -25 51 -14 16 -25 38 -25 49 0 11 11 31 25 45 14 14 25 31 25 39 0 8 4 16 9 20 12 7 41 64 41 81 0 7 6 17 13 21 15 10 30 34 56 91 11 23 24 42 30 42 5 0 20 21 33 46 12 26 43 65 68 88 26 22 49 49 53 59 4 9 13 20 22 23 22 9 70 56 78 77 3 9 13 17 22 17 8 0 15 7 15 15 0 9 8 19 18 22 9 4 52 43 94 87 66 69 80 79 95 70 11 -7 19 -26 21 -49 2 -21 12 -50 23 -63 10 -14 19 -30 19 -37 0 -7 11 -24 25 -39 14 -15 25 -31 25 -37 0 -5 5 -9 11 -9 14 0 79 -67 79 -81 0 -5 23 -9 51 -9 40 0 58 5 81 25 16 14 37 25 46 26 20 0 53 41 72 89 7 19 22 47 32 62 10 14 18 37 18 50 0 12 9 38 21 57 17 27 20 48 18 115 -1 45 -8 90 -15 101 -7 11 -16 37 -20 59 -4 21 -13 46 -21 55 -7 9 -25 31 -39 48 l-26 33 49 50 c26 28 64 60 84 70 20 11 39 26 42 35 4 8 13 15 21 15 8 0 18 9 21 20 3 11 11 20 16 20 5 0 30 22 56 50 54 59 126 90 211 90 65 1 90 17 132 85 22 35 24 49 22 125 -3 85 -2 87 33 133 20 26 41 47 46 47 6 0 23 -13 37 -29 15 -16 46 -50 70 -74 23 -25 42 -50 42 -55 0 -6 11 -13 25 -16 29 -7 65 -43 65 -66 0 -8 13 -21 29 -27 17 -6 45 -32 63 -59 36 -52 94 -114 107 -114 8 0 71 -74 71 -84 0 -11 57 -62 97 -88 23 -14 53 -47 68 -72 14 -25 79 -92 143 -150 64 -58 149 -135 187 -171 39 -36 88 -78 111 -94 22 -16 65 -56 94 -90 29 -33 61 -61 71 -61 11 0 24 -9 31 -20 7 -12 31 -32 53 -45 22 -13 60 -44 85 -69 24 -25 52 -46 62 -46 10 0 21 -7 25 -15 3 -9 27 -27 53 -40 26 -13 68 -47 93 -74 25 -28 50 -51 55 -51 6 0 17 -8 24 -19 7 -10 27 -25 44 -34 27 -14 90 -60 136 -101 9 -8 61 -44 115 -79 54 -35 111 -78 127 -96 17 -17 35 -31 41 -31 7 0 20 -9 29 -19 10 -11 28 -22 41 -25 14 -4 29 -15 35 -26 6 -11 17 -20 25 -20 8 0 20 -8 27 -18 7 -9 37 -28 66 -42 29 -13 70 -42 90 -65 20 -22 52 -47 72 -56 19 -9 50 -30 67 -47 17 -18 36 -32 41 -32 5 0 17 -9 27 -20 10 -11 26 -20 36 -20 10 0 26 -11 37 -25 11 -14 25 -25 30 -25 6 0 17 -8 24 -19 7 -10 28 -22 46 -26 18 -4 36 -14 39 -22 3 -8 29 -25 57 -37 28 -13 60 -33 70 -45 28 -31 87 -29 121 4 14 14 25 29 25 33 0 3 12 16 27 28 23 18 27 30 31 88 3 42 0 72 -7 79 -6 6 -11 17 -11 24 0 19 -79 117 -101 125 -11 4 -22 14 -25 23 -4 8 -10 15 -16 15 -5 0 -47 38 -94 85 -46 47 -89 85 -94 85 -6 0 -25 14 -43 30 -18 17 -52 49 -77 72 -25 24 -61 50 -81 59 -19 9 -66 51 -104 93 -38 42 -74 76 -81 76 -7 0 -19 8 -26 18 -7 10 -25 22 -41 26 -15 3 -37 21 -50 41 -12 19 -29 35 -38 35 -9 0 -48 32 -88 70 -39 39 -74 70 -77 70 -9 0 -74 67 -74 76 0 5 -20 20 -45 33 -24 13 -67 48 -94 77 -28 30 -55 54 -60 54 -5 0 -13 9 -16 20 -3 11 -11 20 -17 20 -6 0 -21 10 -33 23 -38 37 -58 51 -87 64 -16 7 -37 27 -48 46 -11 18 -31 40 -45 47 -14 8 -35 29 -46 47 -11 18 -24 33 -28 33 -4 0 -23 14 -41 30 -18 17 -37 30 -42 30 -4 0 -8 6 -8 13 0 6 -17 26 -37 42 -20 17 -44 38 -54 47 -11 10 -24 18 -29 18 -6 0 -15 11 -20 25 -5 14 -15 25 -21 25 -7 0 -30 19 -53 43 -23 24 -54 47 -71 51 -41 10 -55 24 -55 52 0 14 -6 24 -14 24 -14 0 -56 37 -91 81 -11 13 -39 37 -63 52 -23 15 -52 43 -65 62 -12 19 -32 39 -44 44 -13 6 -23 17 -23 25 0 8 -9 18 -20 21 -11 4 -34 24 -52 46 -17 21 -36 39 -42 39 -11 0 -137 120 -186 177 -14 16 -40 35 -58 42 -18 8 -39 26 -47 41 -17 33 -113 130 -128 130 -7 0 -23 11 -37 24 -14 14 -44 43 -67 65 -24 23 -43 45 -43 50 0 5 -16 19 -34 31 -51 31 -56 57 -16 93 35 31 35 36 5 116 -18 50 -14 95 16 176 10 28 21 84 24 124 3 47 12 88 25 113 17 32 20 58 20 154 0 83 -4 123 -15 144 -8 16 -18 58 -22 92 -5 54 -11 69 -43 104 -21 23 -41 52 -45 65 -8 24 -60 79 -75 79 -5 0 -15 8 -22 18 -7 10 -28 24 -46 31 -18 8 -36 20 -40 28 -5 8 -37 18 -81 24 -88 12 -187 0 -235 -30 -18 -12 -44 -21 -57 -21 -14 0 -32 -9 -42 -20 -9 -11 -28 -20 -42 -20 -14 0 -33 -9 -42 -20 -10 -11 -23 -20 -29 -20 -6 0 -25 -13 -42 -30 -18 -16 -38 -30 -45 -30 -6 0 -18 -9 -25 -20 -7 -11 -19 -20 -28 -20 -9 0 -26 -12 -38 -27 -18 -24 -21 -40 -21 -124 0 -54 -3 -101 -7 -105 -14 -14 -81 31 -154 104 -40 39 -77 72 -82 72 -5 0 -17 9 -27 20 -10 11 -24 20 -32 20 -7 0 -13 4 -13 8 0 4 -16 14 -36 21 -19 7 -40 23 -46 37 -6 13 -19 24 -29 24 -9 0 -39 17 -66 38 -26 21 -60 42 -75 45 -15 4 -35 18 -44 32 -9 14 -21 25 -26 25 -16 0 -88 76 -88 93 0 9 9 22 20 30 27 19 32 107 7 135 -10 11 -21 37 -24 58 -3 22 -12 48 -19 59 -8 11 -14 30 -14 42 0 26 -16 56 -42 85 -10 10 -18 29 -18 42 0 13 -8 34 -18 47 -11 13 -22 37 -26 53 -4 16 -16 41 -27 54 -10 14 -19 35 -19 47 0 12 -9 30 -20 40 -11 10 -20 28 -20 41 0 13 -6 27 -14 31 -17 11 -36 47 -36 71 0 10 -9 27 -21 38 -26 23 -54 78 -64 123 -4 19 -14 41 -21 48 -7 8 -18 32 -25 55 -6 23 -17 47 -25 55 -8 8 -14 21 -14 28 0 8 -8 19 -19 24 -10 6 -22 26 -25 46 -4 20 -15 50 -25 68 -11 18 -22 49 -25 70 -4 20 -10 37 -15 37 -12 0 -31 47 -31 78 0 15 -9 38 -20 52 -11 14 -20 37 -20 52 0 15 -11 44 -25 64 -13 20 -27 52 -31 73 -4 20 -15 45 -25 56 -28 31 -40 73 -46 165 -5 64 -11 92 -27 113 -14 19 -23 53 -29 105 -12 116 -12 115 -25 139 -6 12 -12 38 -12 57 0 20 -4 36 -9 36 -6 0 -10 8 -10 18 0 9 -7 42 -15 72 -9 30 -16 64 -16 77 0 12 -5 25 -11 29 -6 3 -9 15 -6 25 3 10 -12 58 -33 106 -51 120 -69 196 -81 343 -8 88 -17 138 -32 170 -16 36 -21 66 -21 151 -1 62 -6 112 -12 120 -19 24 -33 81 -35 149 -2 35 -11 87 -22 114 -10 28 -21 82 -24 121 -3 40 -12 77 -21 87 -8 9 -17 39 -19 65 -3 26 -16 76 -29 110 -13 34 -33 114 -44 177 -11 64 -29 135 -41 157 -12 25 -22 69 -26 112 -3 45 -12 81 -22 97 -41 58 -53 96 -61 186 -6 70 -13 99 -29 121 -14 19 -22 45 -23 74 -1 24 -7 51 -14 59 -7 9 -20 43 -28 75 -8 33 -22 78 -30 100 -8 22 -15 57 -16 79 0 21 -9 53 -20 72 -12 18 -24 57 -27 86 -3 29 -14 64 -25 77 -10 13 -18 38 -18 55 -1 17 -8 49 -16 71 -9 22 -22 65 -29 95 -7 30 -20 72 -29 92 -9 21 -16 58 -16 83 0 31 -8 61 -24 88 -29 50 -52 130 -62 212 -3 33 -14 68 -22 78 -10 11 -18 43 -20 84 -3 48 -11 75 -28 101 -14 20 -24 49 -24 69 0 20 -9 46 -20 60 -11 14 -20 36 -20 49 0 12 -5 26 -10 29 -6 4 -8 10 -5 15 3 4 -2 10 -10 14 -8 3 -15 14 -15 24 0 10 -11 29 -25 42 -14 13 -25 32 -25 43 0 11 -11 30 -25 43 -14 13 -25 32 -25 43 0 11 -9 25 -20 31 -11 6 -20 15 -20 21 0 17 -50 80 -128 162 -15 15 -42 34 -59 42 -18 9 -33 21 -33 26 0 16 -129 7 -202 -14z m-114 -2906 c4 -5 -10 -19 -29 -31 -31 -19 -35 -26 -35 -63 0 -23 7 -51 15 -61 16 -21 22 -161 7 -170 -4 -2 -6 24 -4 58 3 47 0 72 -13 97 -16 31 -19 32 -26 14 -4 -11 -5 7 -2 40 5 53 9 64 42 92 42 37 38 36 45 24z m-103 -204 c-10 -9 -11 -8 -5 6 3 10 9 15 12 12 3 -3 0 -11 -7 -18z m-834 -309 c-3 -7 -5 -2 -5 12 0 14 2 19 5 13 2 -7 2 -19 0 -25z m-109 -39 c19 -30 11 -32 -11 -3 -10 13 -14 24 -10 24 5 0 14 -9 21 -21z m-4599 -481 l132 -257 -46 -27 c-61 -36 -184 -83 -216 -84 -29 0 -62 31 -79 75 -17 44 -60 302 -60 360 0 28 9 68 19 90 20 45 99 121 111 108 4 -4 67 -124 139 -265z m313 -53 c21 -26 38 -51 38 -54 0 -12 -44 -48 -66 -55 -27 -8 -49 16 -63 72 -7 23 -16 42 -21 42 -6 0 -10 11 -10 24 0 22 3 24 42 21 37 -3 47 -9 80 -50z m-672 -26 c0 -11 11 -64 24 -117 31 -123 40 -188 29 -195 -18 -11 -141 -20 -187 -13 -44 7 -46 9 -40 34 4 15 15 46 24 69 25 57 133 242 143 243 4 0 7 -9 7 -21z m668 -324 c-6 -46 -44 -132 -123 -270 -61 -109 -83 -169 -99 -281 -16 -104 -28 -130 -78 -167 -60 -44 -62 -43 -114 40 -65 104 -172 246 -292 387 -108 126 -120 154 -79 181 20 12 33 13 83 4 85 -16 233 -5 334 25 47 13 137 47 200 74 63 28 128 50 144 51 28 1 29 0 24 -44z m1631 -695 c131 -19 155 -25 236 -65 255 -125 471 -308 657 -558 135 -182 132 -217 -36 -407 -313 -351 -697 -561 -1097 -599 -52 -5 -268 -7 -481 -4 l-385 6 58 76 c60 79 167 270 214 382 96 226 98 429 8 611 -40 80 -148 200 -246 273 l-58 45 78 51 c149 97 314 163 488 193 124 22 390 20 564 -4z m-1415 -323 c101 -48 205 -151 300 -295 90 -137 106 -174 106 -250 0 -57 -5 -72 -65 -188 -202 -395 -408 -574 -660 -577 -94 -1 -158 13 -275 60 -269 109 -454 374 -467 673 -10 207 49 361 195 511 78 80 91 89 124 89 20 0 64 -12 98 -27 l62 -26 -7 -36 c-9 -45 -28 -84 -75 -147 -161 -216 -160 -450 3 -655 49 -61 140 -134 214 -170 68 -34 160 -33 229 3 63 33 185 161 237 249 183 311 70 600 -287 738 -43 16 -90 38 -105 47 l-26 18 45 12 c27 8 92 12 160 11 110 -2 118 -4 194 -40z m-354 -291 c74 -36 155 -69 179 -75 45 -10 61 -23 61 -52 0 -9 7 -22 15 -29 19 -16 19 -21 -1 -108 -14 -61 -20 -72 -44 -82 -15 -6 -39 -23 -52 -37 -62 -67 -212 -110 -291 -84 -92 31 -165 176 -154 306 7 90 55 191 99 210 18 8 37 14 43 15 5 0 70 -29 145 -64z m9440 -2065 c71 -27 146 -86 177 -139 41 -70 37 -122 -27 -337 -29 -99 -55 -182 -56 -183 -1 -2 -18 1 -37 7 -77 26 -314 210 -490 381 -98 94 -115 116 -100 121 10 4 45 14 78 24 33 9 94 35 135 58 156 85 162 87 217 87 29 0 75 -9 103 -19z m-685 -2455 c30 -31 39 -64 31 -120 -9 -58 -38 -94 -82 -102 -56 -10 -64 4 -64 114 0 75 4 99 17 114 23 26 69 23 98 -6z m-1566 -838 c225 -338 232 -352 193 -409 -94 -139 -264 -313 -341 -352 -112 -56 -245 -24 -344 82 -72 76 -80 130 -46 288 42 193 129 405 251 610 34 57 65 102 69 101 4 -2 102 -146 218 -320z" transform="translate(0.000000,1500.000000) scale(0.100000,-0.100000)" style="fill: inherit;"/><path d="M1755 13261 c-14 -9 -28 -27 -31 -41 -3 -14 -14 -46 -25 -72 -14 -36 -19 -71 -19 -150 0 -62 -6 -128 -15 -163 -9 -33 -18 -109 -21 -170 -5 -126 -10 -154 -30 -176 -10 -11 -15 -47 -17 -121 -2 -82 -7 -112 -21 -133 -14 -22 -20 -58 -26 -154 -4 -69 -13 -139 -19 -154 -6 -17 -11 -93 -11 -186 0 -129 3 -161 15 -171 8 -7 15 -18 15 -25 0 -12 62 -43 102 -50 21 -5 35 31 47 124 5 40 15 79 20 84 6 6 11 34 11 62 0 31 8 66 20 89 10 21 22 59 25 85 4 25 16 59 27 75 16 22 20 43 19 88 -1 41 5 70 19 98 11 22 20 47 20 57 0 10 9 36 21 57 11 21 23 61 26 90 3 28 12 62 21 75 8 14 18 60 23 104 4 44 15 90 24 104 15 22 17 60 19 259 l1 234 -46 46 c-44 44 -49 46 -107 48 -41 2 -69 -2 -87 -13z" transform="translate(0.000000,1500.000000) scale(0.100000,-0.100000)" style="fill: inherit;"/><path d="M2611 12680 c-51 -28 -80 -60 -87 -96 -3 -18 -12 -38 -19 -44 -8 -6 -16 -29 -20 -50 -4 -21 -13 -44 -21 -51 -8 -6 -14 -19 -14 -29 0 -9 -10 -30 -22 -46 -12 -15 -23 -33 -25 -38 -14 -62 -24 -90 -36 -104 -8 -9 -18 -27 -21 -39 -4 -13 -11 -23 -15 -23 -4 0 -13 -18 -20 -40 -6 -22 -16 -40 -21 -40 -6 0 -10 -8 -10 -19 0 -10 -10 -33 -23 -52 -12 -19 -31 -51 -40 -71 -10 -21 -22 -38 -26 -38 -5 0 -12 -12 -16 -27 -6 -25 -29 -60 -71 -107 -19 -22 -36 -140 -24 -171 10 -26 15 -30 53 -39 23 -6 33 0 72 41 25 27 45 57 45 69 0 11 11 35 25 54 14 19 25 38 25 44 0 5 10 20 21 32 24 25 40 51 64 101 8 17 20 35 26 38 6 4 19 28 30 53 11 25 35 63 54 84 19 21 35 44 35 52 0 7 8 24 19 37 10 13 22 35 26 49 4 14 13 32 20 40 8 8 19 36 25 62 7 26 21 54 31 64 10 9 19 30 19 46 0 16 9 46 20 68 15 30 20 59 20 125 l0 85 -32 -1 c-18 -1 -48 -10 -67 -19z" transform="translate(0.000000,1500.000000) scale(0.100000,-0.100000)" style="fill: inherit;"/><path d="M406 12147 c-17 -12 -17 -15 5 -60 13 -26 27 -47 31 -47 12 0 168 -155 168 -167 0 -5 9 -18 19 -27 10 -10 22 -32 25 -51 4 -18 13 -38 21 -45 8 -7 15 -23 15 -35 0 -26 25 -91 39 -99 5 -3 12 -17 15 -31 4 -14 15 -34 25 -44 10 -10 20 -24 22 -30 6 -17 96 -26 114 -11 21 18 19 67 -5 97 -11 14 -20 38 -20 54 0 15 -11 49 -25 75 -14 26 -25 57 -25 69 0 13 -6 28 -14 34 -8 7 -18 26 -21 43 -4 16 -16 39 -26 49 -10 10 -19 29 -19 42 0 12 -9 28 -20 35 -11 7 -20 18 -20 25 0 16 -42 57 -58 57 -7 0 -20 8 -30 18 -51 49 -81 62 -140 62 -32 0 -66 -6 -76 -13z" transform="translate(0.000000,1500.000000) scale(0.100000,-0.100000)" style="fill: inherit;"/><path d="M1171 6253 c-25 -18 -146 -195 -174 -255 -9 -21 -21 -38 -27 -38 -5 0 -10 -9 -10 -19 0 -11 -4 -22 -9 -26 -13 -7 -41 -64 -41 -82 0 -7 -9 -30 -20 -50 -11 -21 -20 -57 -20 -81 0 -23 -7 -59 -15 -79 -20 -48 -18 -105 8 -183 21 -61 24 -65 55 -68 25 -3 39 3 63 28 30 29 32 37 39 134 4 56 12 111 18 122 6 11 14 44 18 72 4 35 14 58 30 73 13 12 24 32 24 43 1 12 9 39 20 61 11 22 19 47 20 56 0 9 9 24 20 34 11 10 23 33 26 52 4 19 12 37 19 39 7 3 16 20 19 39 4 18 13 38 21 45 9 7 15 29 15 51 0 35 -3 39 -24 39 -13 0 -30 2 -38 4 -7 3 -24 -2 -37 -11z" transform="translate(0.000000,1500.000000) scale(0.100000,-0.100000)" style="fill: inherit;"/><path d="M1663 5956 c-14 -17 -34 -51 -45 -75 -16 -39 -17 -52 -8 -91 6 -25 15 -100 20 -166 12 -147 19 -193 35 -219 7 -11 16 -30 20 -43 3 -12 19 -35 33 -49 46 -47 131 -26 166 40 18 33 18 36 1 83 -14 38 -19 95 -24 252 l-7 202 -46 46 c-60 61 -105 67 -145 20z" transform="translate(0.000000,1500.000000) scale(0.100000,-0.100000)" style="fill: inherit;"/></g></svg>