<svg xmlns="http://www.w3.org/2000/svg" xmlns:xlink="http://www.w3.org/1999/xlink" version="1.0" viewBox="0 0 344 442" style="fill: #D79AAE;" original_string_length="9640" width="440.7586930954109px" height="566.3955168282148px"><g><path d="M1492 4015 c-7 -14 -12 -35 -12 -46 0 -18 -4 -20 -30 -14 -16 4 -34 3 -40 0 -17 -11 19 -45 48 -45 l24 0 -7 -92 c-5 -67 -13 -100 -26 -117 -10 -13 -37 -79 -59 -148 -22 -68 -58 -163 -80 -210 -22 -47 -40 -90 -40 -96 0 -6 16 7 36 29 44 49 81 127 130 278 21 65 44 121 52 124 17 6 41 -22 48 -58 3 -14 9 -32 13 -40 4 -8 22 -62 40 -120 18 -58 39 -118 47 -135 23 -52 63 -159 60 -162 -2 -2 -14 5 -27 15 -42 34 -103 60 -166 72 -113 23 -258 -20 -294 -87 -17 -31 -16 -81 3 -99 13 -13 15 -12 15 16 0 68 88 131 185 132 89 1 152 -10 209 -35 64 -29 94 -58 86 -87 -3 -11 -1 -18 4 -14 17 10 9 68 -25 168 -44 129 -69 217 -97 336 -17 72 -29 101 -49 120 -26 25 -27 27 -21 120 l6 95 45 6 45 5 -28 12 c-16 7 -38 12 -49 12 -17 0 -20 4 -15 30 7 31 0 60 -12 60 -4 0 -13 -11 -19 -25z" transform="translate(0.000000,442.000000) scale(0.100000,-0.100000)" style="fill: inherit;"/><path d="M1292 3153 c-18 -7 -44 -62 -38 -80 3 -8 -1 -28 -10 -45 -14 -27 -15 -46 -5 -157 7 -69 13 -135 16 -146 2 -11 4 -38 5 -60 2 -57 18 -16 19 48 1 40 4 47 20 47 11 0 22 4 25 9 8 12 -21 34 -34 26 -6 -4 -10 6 -10 26 0 27 2 30 15 19 21 -18 51 6 34 27 -9 11 -8 17 6 27 22 16 12 36 -17 36 -16 0 -19 -5 -16 -24 3 -15 0 -27 -8 -30 -10 -4 -14 4 -14 27 0 31 3 34 46 45 49 13 69 8 60 -14 -3 -8 -1 -25 4 -38 4 -13 10 -73 12 -134 1 -61 6 -108 11 -103 14 14 21 380 8 428 -16 57 -75 88 -129 66z m66 -49 c18 -12 22 -25 22 -69 0 -48 -2 -53 -20 -48 -24 6 -26 21 -5 29 31 12 13 24 -35 24 -43 0 -50 3 -50 19 0 11 12 29 28 40 33 25 32 25 60 5z" transform="translate(0.000000,442.000000) scale(0.100000,-0.100000)" style="fill: inherit;"/><path d="M1512 3075 c-15 -32 -15 -185 -1 -312 12 -114 11 -117 -75 -127 -72 -8 -288 -82 -303 -103 -17 -23 -17 -23 17 -60 27 -29 29 -36 19 -55 -8 -15 -10 -68 -7 -175 l6 -153 -50 -88 c-75 -130 -129 -210 -187 -276 -29 -32 -50 -60 -48 -62 10 -10 76 22 110 54 20 20 37 32 37 28 0 -4 -19 -37 -42 -72 -29 -43 -47 -62 -58 -59 -8 2 -21 1 -29 -4 -12 -8 -12 -13 3 -35 9 -14 21 -26 27 -26 7 0 9 -9 5 -22 -19 -66 -26 -226 -30 -633 -3 -250 -1 -432 3 -410 16 75 38 486 46 848 5 225 7 240 26 260 21 21 109 153 109 162 0 2 16 31 35 64 20 33 36 64 36 68 1 5 10 20 21 36 27 38 8 34 -32 -8 -56 -58 -64 -45 -25 41 14 30 25 60 25 67 0 7 7 22 15 33 13 18 14 16 15 -22 0 -37 3 -42 28 -47 15 -3 63 3 107 14 44 11 101 25 128 31 36 8 51 18 67 43 11 18 20 40 20 49 0 26 14 18 35 -20 11 -20 80 -94 153 -163 74 -69 145 -142 159 -161 21 -29 24 -31 18 -10 -4 14 -23 47 -42 73 -42 59 -38 73 6 20 17 -21 31 -32 31 -26 0 12 -62 107 -139 210 -25 34 -54 73 -65 88 -12 18 -22 23 -28 17 -13 -13 -4 -48 22 -87 11 -16 27 -41 36 -55 35 -53 -95 91 -140 155 -40 58 -46 73 -43 106 2 22 0 42 -4 45 -5 3 -9 31 -10 62 -1 31 -4 68 -8 82 -10 34 -20 -83 -23 -262 l-2 -138 -49 0 c-41 0 -166 -21 -219 -36 -17 -5 -18 7 -17 168 0 95 3 190 7 212 7 36 10 39 62 56 66 21 213 91 206 97 -6 7 -92 -14 -184 -43 -145 -47 -169 -19 -26 31 49 17 106 39 127 49 61 27 97 32 97 12 0 -13 11 -40 28 -66 6 -9 22 25 22 48 0 21 2 22 28 9 15 -8 68 -24 117 -37 50 -12 94 -26 98 -30 5 -4 -3 -20 -17 -35 -37 -40 -49 -87 -42 -165 l7 -67 -73 -19 c-50 -13 -73 -24 -73 -34 0 -24 77 -17 134 11 41 20 49 28 44 46 -2 12 -2 31 2 42 6 20 7 20 43 -3 41 -27 278 -105 412 -135 47 -11 101 -24 120 -30 19 -5 70 -18 112 -29 84 -21 108 -35 108 -63 0 -10 27 -52 61 -94 33 -42 59 -78 57 -80 -2 -2 -30 4 -62 13 -55 15 -59 18 -83 69 -28 58 -53 87 -53 59 0 -17 -11 -19 -48 -10 -21 6 -52 49 -52 73 0 5 33 1 73 -10 88 -23 91 -23 47 0 -38 20 -200 67 -350 101 -52 11 -140 32 -195 45 -146 35 -165 38 -165 25 0 -13 96 -60 123 -60 20 0 34 -27 21 -40 -5 -4 -34 0 -66 10 -31 10 -77 22 -103 25 l-46 7 7 -28 c11 -48 41 -108 63 -128 12 -11 21 -24 21 -30 0 -6 27 -44 60 -85 34 -40 65 -82 71 -93 5 -10 14 -16 19 -13 5 3 24 -2 42 -11 18 -10 40 -19 48 -20 8 -1 107 -15 220 -32 113 -17 246 -34 295 -37 50 -4 94 -10 99 -13 5 -3 25 -6 45 -7 20 -1 61 -5 91 -9 l55 -6 -45 15 c-25 8 -64 17 -86 21 -34 5 -46 13 -67 45 -15 22 -21 41 -16 45 11 6 101 -12 135 -28 12 -6 50 -42 84 -81 45 -52 59 -73 48 -75 -16 -3 -195 20 -443 57 -123 18 -234 42 -350 76 -70 20 -200 25 -179 6 14 -12 261 -76 404 -104 69 -14 181 -28 250 -32 69 -4 141 -8 160 -10 19 -2 67 -4 105 -5 40 -1 80 -9 93 -17 41 -26 -87 153 -248 345 -41 49 -87 105 -102 124 -29 39 -136 84 -373 157 -71 22 -188 58 -260 80 -71 23 -145 44 -162 47 -32 6 -33 8 -33 56 0 46 3 53 42 87 l42 37 -90 47 c-49 25 -88 51 -86 57 1 6 7 73 12 148 5 75 13 164 16 197 l6 60 -21 -20 c-30 -30 -40 -102 -34 -257 l5 -137 -67 22 c-66 22 -66 22 -60 54 9 50 6 396 -3 405 -5 5 -14 -3 -20 -17z m516 -924 c51 -11 56 -15 48 -36 -9 -26 -98 1 -116 35 -10 19 -9 21 7 16 10 -3 37 -10 61 -15z m-170 -58 c23 -25 28 -43 13 -43 -27 0 -62 23 -76 50 l-16 31 28 -7 c15 -3 38 -17 51 -31z m341 20 c14 -12 18 -23 12 -31 -11 -18 -83 3 -99 29 -11 17 -9 19 27 19 22 0 48 -7 60 -17z m120 -15 c20 -7 37 -13 39 -14 2 -1 0 -13 -3 -27 -6 -23 -9 -24 -45 -15 -32 8 -60 38 -60 63 0 9 33 5 69 -7z m-364 -38 c13 -24 13 -30 2 -30 -11 0 -37 39 -37 55 0 16 22 0 35 -25z m127 -12 c17 -8 43 -47 36 -52 -2 -1 -22 1 -46 6 -32 7 -46 16 -57 38 l-15 30 32 -7 c18 -3 41 -10 50 -15z m164 -43 c9 -14 14 -28 11 -32 -12 -11 -77 8 -87 27 -15 28 -13 30 25 30 26 0 39 -6 51 -25z m123 -24 c27 -38 26 -43 -6 -35 -27 6 -63 37 -63 55 0 22 50 7 69 -20z m-435 -27 c31 -56 31 -54 6 -54 -12 0 -29 15 -45 40 -30 48 -31 60 -6 60 13 0 28 -16 45 -46z m532 28 c13 -8 34 -46 34 -60 0 -21 -52 2 -65 29 -8 15 -15 30 -15 34 0 7 33 6 46 -3z m-433 -46 c43 -52 44 -56 15 -56 -27 0 -58 27 -58 51 0 10 -4 21 -10 24 -14 9 -12 25 3 25 7 0 29 -20 50 -44z m145 -23 c17 -19 32 -37 32 -41 0 -4 -20 -6 -44 -4 -39 3 -48 9 -70 43 -14 21 -26 41 -26 43 0 3 17 2 38 -1 25 -4 48 -17 70 -40z m133 -19 c28 -26 23 -34 -21 -34 -34 0 -42 4 -55 30 -8 16 -15 31 -15 33 0 11 73 -13 91 -29z m85 10 c12 -3 27 -17 33 -31 11 -24 11 -25 -21 -18 -42 9 -45 11 -51 35 -5 21 3 24 39 14z m138 -36 c9 -12 14 -24 11 -26 -10 -10 -55 10 -65 28 -9 17 -8 20 14 20 14 0 31 -9 40 -22z m185 -33 c14 -14 23 -27 20 -29 -8 -8 -117 20 -134 34 -8 7 -15 18 -15 25 0 21 101 -2 129 -30z m-739 15 l25 -20 -27 0 c-17 0 -31 7 -38 20 -14 27 6 27 40 0z m148 -26 c7 -2 11 -8 8 -13 -7 -10 -106 8 -106 20 0 8 65 4 98 -7z m133 -20 c12 -15 9 -16 -41 -9 -74 10 -88 25 -23 25 34 0 55 -5 64 -16z m110 -3 c33 -26 19 -35 -38 -25 -33 6 -49 15 -51 27 -5 24 58 23 89 -2z m120 -13 c25 -31 24 -38 -6 -38 -33 0 -81 24 -88 45 -11 26 70 20 94 -7z m90 13 c4 -1 19 -17 33 -36 l27 -35 -34 0 c-38 0 -72 23 -82 57 -5 19 -3 21 22 18 15 -2 31 -4 34 -4z" transform="translate(0.000000,442.000000) scale(0.100000,-0.100000)" style="fill: inherit;"/><path d="M1302 2685 c0 -40 2 -45 22 -45 22 0 46 17 46 32 0 4 -12 8 -27 8 -26 1 -27 2 -9 15 21 16 14 35 -13 35 -14 0 -18 -9 -19 -45z" transform="translate(0.000000,442.000000) scale(0.100000,-0.100000)" style="fill: inherit;"/><path d="M1372 1738 c-7 -7 -12 -22 -12 -35 0 -13 -6 -23 -14 -23 -8 0 -18 -5 -21 -10 -9 -15 14 -40 36 -40 10 0 19 -9 22 -22 l4 -23 8 23 c4 12 19 29 33 36 25 13 25 14 4 20 -16 5 -24 18 -28 47 -7 41 -13 46 -32 27z" transform="translate(0.000000,442.000000) scale(0.100000,-0.100000)" style="fill: inherit;"/><path d="M1944 1645 c-18 -84 -5 -1028 17 -1235 9 -91 16 324 12 740 -5 485 -11 580 -29 495z" transform="translate(0.000000,442.000000) scale(0.100000,-0.100000)" style="fill: inherit;"/><path d="M2996 1488 c-13 -33 -17 -84 -19 -218 -3 -235 4 -479 13 -455 9 23 20 188 21 295 0 41 5 148 11 238 11 178 4 219 -26 140z" transform="translate(0.000000,442.000000) scale(0.100000,-0.100000)" style="fill: inherit;"/><path d="M2310 1479 c-7 -11 -9 -23 -7 -25 3 -3 -1 -28 -8 -56 -16 -60 -19 -255 -6 -353 6 -38 8 -78 5 -87 -3 -10 -2 -24 3 -32 7 -13 14 -12 51 4 52 23 54 40 6 40 l-37 0 6 223 c4 210 9 257 26 257 22 0 30 -60 33 -250 4 -215 10 -251 34 -205 19 36 17 110 -5 288 -11 81 -17 156 -14 166 3 12 -4 24 -18 35 -32 22 -56 20 -69 -5z" transform="translate(0.000000,442.000000) scale(0.100000,-0.100000)" style="fill: inherit;"/><path d="M2593 1480 c-25 -10 -39 -51 -28 -77 5 -10 9 -70 10 -133 2 -110 10 -220 21 -267 3 -19 11 -23 39 -23 41 0 48 10 51 69 15 292 14 331 -1 337 -10 4 -13 14 -9 30 4 16 -1 30 -20 48 -27 28 -30 29 -63 16z m55 -73 c2 -15 8 -27 13 -27 6 0 5 -9 -2 -22 -8 -16 -10 -66 -5 -180 l7 -158 -23 0 -23 0 0 210 c0 182 2 210 15 208 8 -2 16 -16 18 -31z" transform="translate(0.000000,442.000000) scale(0.100000,-0.100000)" style="fill: inherit;"/><path d="M1335 1414 c-74 -38 -135 -137 -162 -261 -19 -89 -31 -709 -14 -726 8 -8 11 0 11 31 0 22 5 63 10 89 6 26 14 167 19 313 8 227 12 275 31 334 34 107 93 186 140 186 17 0 17 -4 4 -52 -9 -35 -14 -108 -14 -216 0 -95 -4 -161 -9 -158 -5 4 -16 3 -25 0 -18 -7 -21 -49 -6 -89 9 -23 13 -25 25 -15 13 11 15 4 17 -51 1 -35 3 -98 4 -139 2 -41 3 -115 4 -165 2 -163 20 -57 27 164 4 113 9 198 11 189 10 -47 42 16 42 81 0 50 -13 69 -35 51 -14 -12 -16 4 -13 193 2 138 7 207 14 207 30 0 100 -111 130 -205 18 -57 41 -319 51 -568 3 -92 10 -170 15 -173 11 -7 2 410 -13 591 -13 149 -31 222 -76 304 -53 94 -116 123 -188 85z" transform="translate(0.000000,442.000000) scale(0.100000,-0.100000)" style="fill: inherit;"/><path d="M2910 719 c-102 -13 -371 -110 -566 -205 -286 -138 -318 -154 -307 -154 10 0 169 60 263 100 116 49 344 135 488 184 166 56 201 70 186 78 -5 2 -34 1 -64 -3z" transform="translate(0.000000,442.000000) scale(0.100000,-0.100000)" style="fill: inherit;"/><path d="M900 412 c0 -37 89 -53 177 -31 40 11 49 10 77 -7 28 -17 54 -19 246 -20 221 -1 522 -18 542 -30 7 -4 8 -3 4 4 -12 20 -135 52 -223 59 -52 4 -90 12 -99 20 -8 8 -14 10 -14 4 0 -6 -7 -11 -15 -11 -7 0 -18 -7 -22 -15 -7 -12 -19 -13 -68 -5 -33 5 -114 12 -180 15 -66 4 -133 8 -150 11 -89 12 -275 16 -275 6z" transform="translate(0.000000,442.000000) scale(0.100000,-0.100000)" style="fill: inherit;"/></g></svg>