<svg xmlns="http://www.w3.org/2000/svg" xmlns:xlink="http://www.w3.org/1999/xlink" version="1.0" viewBox="0 0 450 300" style="fill: #D79AAE;" original_string_length="18431" width="179.5407726235167px" height="119.47622323674018px"><defs><clipPath id="__id14_swlwbdqhee"><path d="M 26 26 L 424 26 L 424 269.691406 L 26 269.691406 Z M 26 26"/></clipPath></defs><g clip-path="url(#__id14_swlwbdqhee)"><path d="M 337.308594 46.21875 C 339.714844 46.234375 342.125 46.347656 344.527344 46.238281 C 350.28125 45.984375 355.722656 47.273438 360.726562 49.945312 C 368.167969 53.914062 375.316406 58.441406 381.382812 64.355469 C 387.640625 70.457031 390.289062 77.769531 388.492188 86.6875 C 387.136719 93.414062 385.5 99.902344 381.457031 105.554688 C 374.425781 115.382812 364.429688 119.980469 352.75 120.789062 C 342.9375 121.472656 333.128906 120.488281 323.40625 118.839844 C 311.601562 116.835938 299.792969 114.828125 287.964844 112.921875 C 284.015625 112.285156 280.015625 111.960938 276.046875 111.453125 C 270.128906 110.703125 265.800781 108.1875 261.308594 102.820312 C 264.292969 103.691406 267.042969 104.496094 269.800781 105.300781 C 273.105469 107.441406 276.972656 107.066406 280.613281 107.601562 C 291.074219 109.136719 301.542969 110.589844 312.023438 111.941406 C 320.730469 113.066406 329.453125 114.160156 338.199219 114.960938 C 342.789062 115.382812 347.429688 115.136719 352.050781 115.222656 C 363.980469 115.453125 372.734375 109.8125 379.0625 100.191406 C 381.582031 96.359375 382.488281 91.796875 383.589844 87.304688 C 385.945312 77.707031 382.886719 70.414062 375.25 64.75 C 372.203125 62.492188 368.730469 60.804688 365.71875 58.507812 C 361.429688 55.226562 356.789062 55.589844 351.992188 56.519531 C 350.816406 56.746094 349.625 57.015625 348.523438 57.464844 C 337.441406 61.976562 325.902344 65.632812 317.007812 74.265625 C 315.726562 75.503906 314.164062 76.515625 312.585938 77.367188 C 307.207031 80.292969 302.851562 84.417969 298.875 88.953125 C 293.332031 95.261719 286.496094 99.707031 278.863281 102.933594 C 275.976562 104.152344 272.773438 104.609375 269.710938 105.40625 C 272.113281 104.039062 274.460938 102.554688 276.9375 101.335938 C 284.972656 97.382812 291.957031 92.320312 297.34375 84.941406 C 299.886719 81.457031 303.550781 78.714844 306.972656 75.960938 C 311.652344 72.195312 316.492188 68.601562 321.457031 65.207031 C 324.5625 63.082031 327.933594 61.292969 331.34375 59.667969 C 334.402344 58.207031 337.636719 57.097656 340.847656 55.96875 C 344.222656 54.792969 347.664062 53.792969 351.058594 52.722656 C 345.894531 51.933594 340.703125 51.9375 335.429688 53.285156 C 324.992188 55.957031 314.457031 58.28125 304.03125 61 C 302 61.527344 300 62.921875 298.445312 64.394531 C 293.292969 69.269531 287.28125 72.875 281.316406 76.582031 C 279.273438 77.855469 277.105469 78.980469 275.253906 80.496094 C 271.296875 83.722656 266.574219 85.839844 263.882812 90.867188 C 262.042969 94.296875 258.730469 97.390625 253.523438 99.480469 C 254.699219 97.597656 255.230469 96.667969 255.839844 95.78125 C 256.179688 95.292969 256.710938 94.933594 257.035156 94.429688 C 263.3125 84.527344 273.105469 78.457031 282.070312 71.472656 C 286.175781 68.273438 290.265625 65.003906 294.003906 61.386719 C 297.601562 57.90625 301.636719 55.5625 306.515625 54.796875 C 312.726562 53.820312 318.457031 51.625 324.039062 48.792969 C 329.921875 45.804688 335.777344 42.804688 341.59375 39.675781 C 349.980469 35.164062 358.914062 33.054688 368.804688 35.007812 C 374.148438 36.066406 379.421875 36.917969 384.140625 39.628906 C 386.339844 40.894531 388.390625 42.65625 390.050781 44.585938 C 392.390625 47.304688 394.234375 50.4375 396.414062 53.304688 C 401.472656 59.960938 402.964844 67.742188 403.753906 75.773438 C 404.53125 83.707031 402.902344 91.1875 400.132812 98.621094 C 396.542969 108.253906 391.335938 116.992188 386.199219 125.796875 C 383.167969 130.988281 378.691406 134.652344 373.5 137.46875 C 364.179688 142.519531 354.199219 145.019531 343.59375 145.238281 C 339.304688 145.324219 335.28125 144.394531 331.230469 143.210938 C 320.664062 140.117188 309.855469 138.207031 298.953125 136.667969 C 295.867188 136.230469 292.777344 135.019531 289.980469 133.585938 C 284.457031 130.761719 279.230469 127.339844 273.699219 124.53125 C 269.980469 122.644531 265.957031 121.371094 262.058594 119.859375 C 259.515625 118.867188 256.945312 117.941406 254.828125 117.144531 C 251.203125 120.367188 247.636719 123.542969 244.011719 126.769531 C 244.804688 133.15625 249.984375 136.25 255.382812 138.996094 C 264.902344 143.839844 273.535156 150.039062 282.144531 156.253906 C 290.179688 162.054688 295.734375 169.761719 298.257812 180.074219 C 299.640625 173.425781 297.015625 168.242188 294.191406 163.265625 C 290.765625 157.226562 285.71875 152.617188 279.84375 148.9375 C 276.449219 146.804688 272.917969 144.882812 269.632812 142.605469 C 264.433594 139.011719 260.46875 134.214844 257.289062 128.796875 C 255.230469 125.296875 255.300781 125.074219 256.328125 120.902344 C 256.8125 121.324219 257.390625 121.585938 257.550781 122.007812 C 260.011719 128.484375 264.867188 132.964844 270.261719 136.882812 C 273.488281 139.226562 276.976562 141.246094 280.480469 143.183594 C 288.214844 147.457031 294.425781 153.296875 299.089844 160.753906 C 301.355469 164.386719 302.617188 168.277344 302.46875 172.683594 C 302.195312 180.550781 300.738281 188.105469 297.621094 195.363281 C 295.816406 199.578125 294.238281 203.882812 292.617188 208.175781 C 292.125 209.46875 291.65625 210.808594 291.496094 212.167969 C 290.929688 216.921875 292.378906 219.34375 296.960938 220.792969 C 299.988281 221.742188 303.046875 221.925781 306.386719 221.617188 C 319.066406 220.449219 329.089844 213.988281 338.320312 206.167969 C 348.617188 197.441406 359.148438 189.210938 371.742188 183.992188 C 373.21875 183.382812 374.621094 182.59375 376.054688 181.882812 C 388.816406 175.570312 395.992188 165.074219 399.039062 151.433594 C 399.328125 150.15625 400.171875 149.003906 401.3125 146.660156 C 402.226562 149.40625 403.164062 151.09375 403.320312 152.851562 C 404.164062 162.410156 410.585938 166.535156 418.761719 169.046875 C 419.144531 169.160156 419.574219 169.105469 419.949219 169.234375 C 422.761719 170.179688 423.820312 171.804688 423.140625 174.0625 C 422.492188 176.230469 420.585938 176.941406 417.6875 176.097656 C 410.175781 173.90625 405.070312 169.683594 399.695312 161.117188 C 397.695312 164.539062 395.992188 168.09375 393.71875 171.230469 C 389.792969 176.648438 384.703125 180.859375 378.757812 183.992188 C 375.574219 185.675781 372.378906 187.355469 369.105469 188.863281 C 360.257812 192.925781 352.722656 198.828125 345.410156 205.148438 C 340.265625 209.59375 334.804688 213.695312 329.371094 217.796875 C 321.601562 223.671875 312.519531 226.191406 303.019531 226.699219 C 298.089844 226.964844 292.976562 226.003906 289.222656 221.972656 C 286.316406 218.851562 284.671875 215.40625 286.167969 211.0625 C 287.402344 207.484375 288.589844 203.894531 289.8125 200.320312 C 292.09375 193.644531 293.59375 186.871094 292.261719 179.136719 C 289.816406 185.21875 287.625 190.789062 285.335938 196.328125 C 283.585938 200.574219 281.894531 204.859375 279.835938 208.953125 C 278.226562 212.152344 277.675781 215.460938 278.105469 218.851562 C 279.285156 228.171875 282.761719 236.15625 291.582031 240.941406 C 297.285156 244.035156 303.203125 245.769531 309.707031 246.65625 C 325.554688 248.796875 339.265625 243.941406 352.339844 235.734375 C 363.980469 228.417969 374.109375 219.292969 383.984375 209.863281 C 393.875 200.425781 403.957031 191.253906 415.328125 183.597656 C 416.902344 182.535156 418.5625 181.582031 420.238281 180.542969 C 421.203125 182.933594 419.679688 183.988281 418.59375 185.011719 C 414.21875 189.136719 409.730469 193.148438 405.296875 197.210938 C 395.683594 206.019531 386.113281 214.878906 376.445312 223.636719 C 366.308594 232.828125 355.546875 241.191406 343.136719 247.15625 C 332.054688 252.480469 320.496094 254.390625 308.125 252.835938 C 300.355469 251.867188 293.445312 249.414062 286.730469 245.625 C 278.890625 241.199219 275.476562 234.03125 273.363281 225.855469 C 272.382812 222.070312 273.152344 218.367188 273.53125 214.609375 C 274.367188 206.1875 278.894531 199.324219 282.652344 192.109375 C 284.953125 187.683594 286.925781 183.082031 289.289062 178.6875 C 290.628906 176.191406 290.113281 174.195312 288.765625 171.972656 C 286.113281 167.59375 282.640625 163.976562 278.527344 161.0625 C 270.515625 155.382812 262.339844 149.941406 254.230469 144.402344 C 252.902344 143.496094 251.574219 142.601562 250.230469 141.722656 C 245.125 138.382812 241.363281 134.234375 242.082031 127.566406 C 231.675781 128.964844 226.261719 125.109375 225.894531 114.332031 C 224.101562 114.84375 221.640625 114.332031 221.734375 117.472656 C 221.738281 117.773438 220.433594 118.21875 219.679688 118.417969 C 212.488281 120.375 205.820312 123.574219 199.378906 127.203125 C 192.570312 131.042969 187.761719 137.035156 183.394531 143.308594 C 178.214844 150.75 174.742188 159.046875 172.082031 167.671875 C 169.546875 175.902344 170.796875 184.328125 170.816406 194.019531 C 173.960938 185.394531 176.277344 177.890625 179.410156 170.746094 C 185.945312 155.828125 195.09375 142.722656 208.746094 133.390625 C 212.972656 130.5 217.976562 128.683594 222.746094 126.660156 C 224.398438 125.957031 226.421875 126.125 229.328125 125.765625 C 227.980469 127.023438 227.617188 127.632812 227.121094 127.785156 C 212.957031 132.160156 203.171875 141.917969 194.933594 153.644531 C 186.890625 165.09375 182.28125 178.058594 178.09375 191.21875 C 175.378906 199.765625 172.257812 208.160156 170.574219 217.035156 C 169.757812 221.339844 167.453125 225.21875 164.253906 228.472656 C 156.613281 236.261719 147.886719 242.652344 138.722656 248.484375 C 137.046875 249.546875 135.179688 250.398438 133.296875 251.027344 C 121.742188 254.898438 110.117188 258.535156 98.070312 260.617188 C 97.480469 260.71875 96.867188 260.746094 96.265625 260.777344 C 87.441406 261.226562 78.621094 261.738281 69.800781 262.089844 C 60.75 262.460938 51.894531 263.691406 43.355469 266.894531 C 40.382812 268.003906 37.269531 268.746094 34.175781 269.671875 C 32.417969 266.886719 32.230469 264.175781 32.023438 261.402344 C 31.65625 256.417969 31.425781 251.390625 30.5 246.496094 C 29.851562 243.058594 29.460938 239.316406 26.683594 236.554688 C 26.308594 236.179688 26.410156 235.089844 26.636719 234.445312 C 26.757812 234.09375 27.769531 233.65625 28.074219 233.816406 C 32.554688 236.226562 36.988281 233.878906 41.4375 233.785156 C 45.023438 233.703125 48.628906 233.441406 52.195312 233.703125 C 62.761719 234.472656 73.226562 236.410156 83.941406 234.628906 C 90.433594 233.550781 97.128906 233.28125 103.730469 233.28125 C 112.316406 233.28125 120.441406 231.546875 128.222656 228.152344 C 136.667969 224.46875 145.164062 220.832031 152.507812 215.101562 C 153.453125 214.363281 154.480469 213.707031 155.371094 212.910156 C 167.027344 202.417969 166.148438 201.125 165.84375 189.617188 C 165.8125 188.414062 165.886719 187.199219 165.765625 186.003906 C 164.222656 170.425781 169.78125 156.898438 178.203125 144.347656 C 181.609375 139.265625 185.796875 134.699219 190.042969 129.375 C 186.875 130.71875 184.253906 132.054688 181.480469 132.96875 C 161.792969 139.519531 142.933594 137.804688 124.800781 127.472656 C 117.683594 123.414062 111.707031 118.269531 107.105469 111.585938 C 105.648438 109.472656 104.019531 108.199219 101.578125 107.386719 C 98.492188 106.363281 95.816406 104.449219 94.601562 101.195312 C 91.1875 92.046875 87.046875 83.074219 84.726562 73.65625 C 83.136719 67.207031 82.960938 59.902344 84.234375 53.386719 C 85.824219 45.234375 91.273438 38.621094 97.625 33.160156 C 102.859375 28.675781 109.257812 27.582031 115.988281 26.753906 C 128.773438 25.171875 141.144531 27.953125 153.527344 29.753906 C 165.832031 31.539062 176.449219 38.082031 186.136719 45.636719 C 193.402344 51.304688 200.039062 57.777344 206.953125 63.898438 C 210.410156 66.960938 213.742188 70.175781 217.339844 73.054688 C 223.851562 78.269531 228.535156 85.042969 233.558594 91.539062 C 233.914062 91.585938 234.339844 91.785156 234.605469 91.65625 C 236.203125 90.914062 237.828125 89.449219 239.558594 90.886719 C 240.871094 91.984375 241.832031 93.539062 242.796875 94.984375 C 243.019531 95.320312 242.785156 96.203125 242.457031 96.558594 C 242.269531 96.761719 241.34375 96.574219 240.972656 96.277344 C 239.242188 94.898438 238.015625 96.125 237.761719 97.390625 C 236.546875 103.445312 235.410156 109.539062 234.6875 115.664062 C 234.285156 119.046875 235.839844 119.871094 239.175781 118.605469 C 245.628906 116.15625 249.445312 109.566406 249.257812 104.882812 C 249.171875 102.722656 249.339844 100.550781 249.414062 97.558594 C 254.992188 101.628906 255.859375 106.664062 255.839844 112.417969 C 258.273438 112.96875 260.777344 113.542969 263.285156 114.09375 C 272.242188 116.054688 280.058594 120.714844 287.691406 125.355469 C 293.730469 129.03125 300.082031 130.5 306.777344 131.773438 C 315.78125 133.480469 324.75 135.480469 333.609375 137.8125 C 338.179688 139.011719 342.699219 139.433594 347.296875 139.050781 C 356.566406 138.28125 365.558594 136.265625 373.265625 130.753906 C 376.316406 128.570312 379.390625 125.964844 381.414062 122.878906 C 387.5625 113.515625 393.261719 103.859375 397.054688 93.21875 C 399.433594 86.542969 399.917969 79.925781 399.46875 72.710938 C 398.785156 61.648438 392.78125 53.679688 386.96875 45.355469 C 384.28125 41.5 379.824219 40.21875 375.585938 39.214844 C 362.257812 36.0625 349.804688 38.960938 338 45.394531 C 337.714844 45.550781 337.617188 46.03125 337.429688 46.359375 C 337.234375 46.359375 337.03125 46.308594 336.851562 46.359375 C 336.316406 46.5 335.785156 46.683594 335.253906 46.851562 C 335.402344 46.964844 335.617188 47.210938 335.691406 47.171875 C 336.246094 46.890625 336.777344 46.554688 337.3125 46.234375 Z M 162.398438 210.304688 C 160.726562 212.007812 159.148438 213.800781 157.378906 215.382812 C 149.242188 222.640625 139.855469 227.804688 129.859375 232.109375 C 121.097656 235.878906 112.144531 237.890625 102.589844 238.117188 C 95.222656 238.289062 87.890625 239.601562 80.519531 239.972656 C 75.144531 240.246094 69.710938 240.085938 64.34375 239.625 C 55.796875 238.894531 47.292969 237.707031 38.757812 236.816406 C 36.667969 236.597656 34.53125 236.785156 32.230469 236.785156 C 34.828125 243.800781 35.835938 250.445312 35.546875 257.316406 C 35.445312 259.699219 35.613281 262.097656 35.652344 264.488281 C 35.464844 264.722656 35.277344 264.957031 35.089844 265.199219 C 35.242188 264.925781 35.390625 264.65625 35.546875 264.382812 C 37.015625 263.839844 38.46875 263.230469 39.964844 262.769531 C 44.714844 261.292969 49.398438 259.230469 54.269531 258.574219 C 61.789062 257.5625 69.445312 257.398438 77.042969 257.09375 C 91.058594 256.539062 104.871094 255.113281 118.449219 251.15625 C 131.175781 247.445312 142.625 242.160156 152.050781 232.453125 C 158.269531 226.042969 161.195312 218.648438 162.25 210.144531 C 162.410156 210.078125 162.597656 210.039062 162.730469 209.929688 C 162.820312 209.863281 162.839844 209.710938 162.894531 209.59375 C 162.730469 209.828125 162.570312 210.0625 162.410156 210.296875 Z M 212.226562 98.628906 C 207.632812 93.191406 202.957031 88.992188 197.179688 86.003906 C 193.09375 83.894531 189.195312 81.410156 185.113281 79.289062 C 179.269531 76.25 173.460938 73.09375 167.402344 70.523438 C 157.417969 66.289062 147.585938 62.03125 139.574219 54.324219 C 135.769531 50.660156 130.632812 49.261719 125.3125 48.679688 C 117.363281 47.800781 111.296875 51.683594 105.878906 56.539062 C 100.027344 61.777344 96.3125 68.152344 96.867188 76.578125 C 97.171875 81.109375 96.222656 85.710938 96.089844 90.292969 C 96.035156 92.226562 96.285156 94.316406 96.976562 96.105469 C 100.121094 104.195312 107.066406 108.152344 114.484375 111.40625 C 116.261719 112.183594 118.347656 112.492188 120.308594 112.59375 C 131.363281 113.132812 142.378906 112.664062 153.125 109.828125 C 172.273438 104.769531 191.902344 102.359375 212.214844 98.636719 Z M 110.492188 113.460938 C 112.574219 115.222656 114.496094 117.21875 116.757812 118.714844 C 126.199219 124.949219 136.453125 128.992188 147.726562 130.78125 C 161.707031 133.003906 174.742188 130.453125 187.277344 124.339844 C 189.800781 123.113281 192.308594 121.859375 194.832031 120.636719 C 204.257812 116.046875 213.945312 112.34375 224.671875 112.773438 C 226.871094 112.859375 227.523438 111.574219 228.011719 110.066406 C 229.480469 105.535156 230.917969 100.980469 232.125 96.371094 C 232.359375 95.480469 231.84375 93.96875 231.136719 93.320312 C 225.523438 88.175781 219.808594 83.144531 214.070312 78.136719 C 211.054688 75.5 207.925781 72.980469 204.882812 70.367188 C 196.65625 63.324219 188.695312 55.945312 180.167969 49.289062 C 172.40625 43.226562 163.699219 38.511719 153.996094 36.25 C 148.960938 35.070312 143.652344 35.0625 138.589844 33.964844 C 129.875 32.070312 121.234375 31.351562 112.378906 32.953125 C 108.539062 33.648438 105 34.675781 101.898438 37.050781 C 96.015625 41.574219 92.246094 47.625 89.429688 54.351562 C 89.125 55.078125 88.824219 55.871094 88.804688 56.648438 C 88.523438 66.074219 87.886719 75.566406 93.546875 84.832031 C 93.347656 81.734375 93.554688 79.269531 92.96875 77.011719 C 91.742188 72.265625 92.636719 67.957031 94.574219 63.632812 C 97.175781 57.820312 101.027344 52.964844 106.046875 49.179688 C 110.023438 46.179688 114.210938 43.140625 119.375 42.636719 C 129.148438 41.691406 138.140625 43.910156 145.613281 50.558594 C 151.527344 55.824219 158.296875 59.425781 165.503906 62.621094 C 173.519531 66.183594 181.316406 70.34375 188.894531 74.773438 C 198.570312 80.433594 208.113281 86.328125 214.804688 95.808594 C 216.882812 98.761719 220.71875 99.5 224.082031 100.617188 C 225.496094 101.09375 226.90625 101.589844 228.320312 102.078125 C 226.007812 103.054688 223.828125 103.214844 221.679688 103.023438 C 217.441406 102.648438 213.375 103.050781 209.222656 104.152344 C 203.640625 105.640625 197.917969 106.636719 192.222656 107.644531 C 183.378906 109.203125 174.480469 110.429688 165.664062 112.082031 C 153.667969 114.339844 141.761719 116.9375 129.402344 116.242188 C 123.171875 115.886719 117.121094 115.070312 110.488281 113.457031 Z M 110.492188 113.460938" style="fill: inherit;"/></g></svg>