<svg xmlns="http://www.w3.org/2000/svg" xmlns:xlink="http://www.w3.org/1999/xlink" version="1.0" viewBox="0 0 1500 1500" style="fill: rgb(0, 0, 0);" original_string_length="12957" width="330.5602117027727px" height="330.5602117027727px"><g><path d="M10190 13673 c-114 -16 -276 -117 -505 -314 -124 -107 -526 -519 -660 -675 -60 -71 -135 -154 -165 -184 -31 -30 -66 -71 -79 -90 -61 -89 -96 -130 -112 -130 -10 0 -28 -19 -43 -44 -14 -24 -32 -46 -40 -49 -8 -3 -25 -22 -38 -41 -39 -58 -140 -190 -165 -213 -13 -12 -23 -27 -23 -33 0 -7 -48 -65 -107 -131 -59 -66 -128 -150 -154 -187 -27 -37 -66 -89 -88 -116 -41 -50 -58 -86 -85 -186 -9 -32 -30 -72 -49 -95 -19 -22 -40 -51 -47 -65 -7 -14 -142 -203 -300 -420 -480 -662 -717 -1004 -832 -1200 -31 -52 -106 -196 -166 -320 -129 -262 -222 -424 -415 -720 -164 -252 -166 -256 -209 -338 -81 -158 -260 -328 -793 -757 -443 -357 -629 -522 -747 -662 -73 -88 -99 -100 -144 -68 -12 7 -48 28 -80 46 -32 17 -75 42 -94 54 -64 43 -170 49 -170 10 0 -16 -15 -21 -92 -30 -42 -5 -67 -14 -95 -37 -21 -16 -51 -37 -68 -45 -37 -19 -94 -69 -233 -204 -60 -58 -124 -116 -142 -129 -17 -12 -68 -61 -113 -107 -71 -73 -203 -206 -236 -238 -80 -76 -502 -510 -514 -529 -9 -13 -24 -27 -34 -30 -10 -3 -26 -20 -35 -36 -10 -17 -25 -33 -34 -37 -25 -9 -76 -61 -138 -141 -34 -43 -73 -80 -96 -92 -22 -11 -40 -24 -40 -29 0 -7 -92 -103 -162 -168 -39 -37 -62 -60 -81 -82 -30 -34 -256 -266 -465 -478 -94 -96 -172 -179 -172 -184 0 -5 -13 -17 -29 -27 -17 -10 -55 -49 -87 -88 -31 -38 -104 -117 -163 -175 -58 -59 -131 -134 -161 -169 -30 -34 -84 -92 -120 -129 -36 -37 -78 -84 -95 -104 -16 -21 -55 -63 -85 -95 -30 -31 -75 -83 -98 -115 -24 -32 -50 -61 -58 -64 -7 -3 -23 -20 -34 -38 -23 -37 -27 -125 -7 -164 18 -36 70 -63 126 -64 47 -2 50 -1 142 84 270 248 808 811 809 846 0 7 6 10 14 7 16 -6 78 44 73 59 -2 6 20 34 47 64 28 29 78 83 111 120 33 36 79 86 102 109 24 24 58 63 77 88 19 25 51 63 72 85 66 67 156 168 173 194 9 13 41 50 71 82 30 31 73 76 95 99 22 22 56 64 77 91 20 28 69 82 110 120 41 39 111 119 157 178 47 59 127 151 178 205 52 53 101 109 109 124 7 14 29 39 48 55 19 15 49 48 67 73 18 25 69 86 113 135 45 50 167 190 271 313 105 123 197 232 207 243 9 10 19 19 22 19 4 0 32 -20 64 -45 55 -44 57 -44 64 -23 4 17 6 18 7 5 2 -30 30 -64 104 -124 40 -32 86 -72 103 -88 17 -17 53 -44 80 -60 57 -33 140 -91 274 -191 52 -39 107 -77 121 -85 135 -74 284 -169 389 -249 41 -31 122 -88 180 -125 108 -69 192 -133 290 -218 30 -27 69 -55 86 -62 17 -7 40 -24 51 -39 12 -14 26 -26 32 -26 6 0 11 -4 11 -10 0 -5 7 -10 15 -10 9 0 26 -10 39 -23 12 -12 41 -31 64 -41 23 -10 44 -27 47 -37 4 -11 14 -19 23 -19 8 0 25 -9 36 -19 12 -11 46 -33 76 -49 155 -84 225 -123 240 -137 9 -8 25 -15 36 -15 10 0 34 -9 52 -20 19 -12 56 -25 84 -30 27 -6 62 -19 77 -29 15 -11 40 -23 57 -27 16 -4 52 -17 79 -29 28 -13 66 -26 86 -29 47 -8 68 -31 51 -54 -7 -10 -15 -25 -18 -34 -4 -10 -10 -18 -15 -18 -5 0 -20 -17 -33 -38 -13 -22 -47 -62 -75 -91 -28 -29 -51 -57 -51 -62 0 -5 -4 -9 -9 -9 -4 0 -26 -27 -47 -59 -22 -32 -66 -88 -99 -123 -33 -34 -66 -74 -73 -88 -21 -43 -90 -132 -147 -191 -30 -31 -55 -62 -55 -68 0 -6 -4 -11 -9 -11 -4 0 -26 -30 -47 -66 -22 -37 -66 -97 -100 -133 -33 -36 -67 -78 -75 -92 -19 -36 -97 -143 -136 -189 -18 -21 -33 -43 -33 -49 0 -6 -4 -11 -8 -11 -5 0 -38 -44 -74 -97 -36 -54 -101 -141 -145 -193 -44 -52 -103 -130 -131 -172 -29 -43 -78 -106 -110 -140 -59 -65 -75 -87 -91 -125 -6 -12 -16 -25 -23 -30 -16 -9 -93 -111 -128 -168 -14 -22 -49 -67 -78 -100 -67 -76 -72 -82 -72 -94 0 -5 -16 -27 -35 -48 -19 -21 -35 -42 -35 -46 0 -5 -15 -27 -34 -50 -19 -23 -42 -56 -52 -73 -11 -17 -35 -52 -54 -79 -19 -26 -60 -82 -90 -124 -31 -42 -104 -144 -164 -227 -59 -84 -133 -183 -165 -220 -31 -38 -79 -100 -106 -139 -73 -105 -163 -222 -223 -294 -29 -35 -62 -84 -73 -108 -11 -25 -28 -58 -39 -74 -25 -34 -18 -77 14 -85 12 -3 41 -1 65 5 37 8 58 25 143 115 54 58 116 128 137 156 22 29 48 58 60 66 12 9 43 48 71 87 27 40 76 101 109 136 34 35 61 69 61 75 0 12 36 58 115 146 28 30 72 88 99 127 26 40 77 105 113 145 36 40 88 107 116 148 28 41 61 83 74 93 13 10 23 24 23 30 0 7 24 39 53 72 81 94 112 135 151 202 20 34 50 70 66 80 17 9 30 21 30 26 0 4 12 20 27 35 15 15 53 61 84 102 31 41 90 112 130 156 41 45 101 117 134 160 33 44 77 97 98 119 56 59 59 64 115 145 28 42 67 91 87 110 19 19 35 40 35 46 0 7 6 17 13 21 7 4 49 59 92 122 44 63 103 139 130 169 68 74 144 171 208 267 30 44 86 118 125 165 39 47 72 90 72 95 0 6 21 33 46 60 25 28 54 66 64 85 10 20 47 72 82 115 35 44 103 136 151 205 48 69 127 177 177 240 49 63 115 153 146 199 68 103 164 230 219 291 22 25 47 58 55 73 8 15 28 45 44 65 47 56 56 78 50 111 -5 25 -17 36 -60 56 -29 14 -56 30 -59 35 -3 6 -14 10 -23 10 -10 0 -35 9 -57 20 -22 11 -47 20 -56 20 -9 0 -27 8 -40 18 -26 21 -99 41 -151 43 -18 1 -25 3 -15 6 12 3 16 10 12 24 -5 14 37 72 173 236 192 234 446 554 552 695 36 48 69 87 74 88 5 0 45 35 90 77 300 287 485 385 1006 533 210 59 257 68 503 90 686 61 809 80 993 151 56 21 65 22 101 10 38 -13 48 -11 149 22 60 20 199 63 309 96 544 163 751 257 905 411 77 77 119 150 127 222 3 29 11 56 17 60 6 4 63 8 126 8 168 0 270 28 410 113 164 99 270 217 312 346 17 54 21 89 20 189 0 105 2 123 16 131 9 5 69 16 132 25 235 34 355 89 406 188 64 124 -29 337 -207 474 -89 69 -174 104 -282 118 -51 6 -97 15 -104 19 -6 4 -28 58 -48 120 -66 203 -171 363 -329 499 -77 67 -411 294 -551 375 -174 101 -481 234 -592 258 -28 5 -33 11 -33 34 0 27 6 29 358 155 712 256 757 275 868 364 69 56 145 147 175 211 29 62 29 142 0 199 -80 156 -305 175 -841 71 -218 -42 -956 -225 -1009 -250 -81 -38 -284 -72 -305 -52 -8 8 71 83 87 83 22 0 883 608 1047 738 130 104 236 211 260 263 27 60 26 146 -2 205 -31 67 -63 79 -213 78 -113 -1 -127 -3 -240 -42 -215 -73 -624 -255 -671 -299 -13 -11 -40 -27 -61 -33 -61 -20 -125 -55 -182 -100 -28 -23 -82 -54 -119 -69 -37 -15 -89 -42 -116 -59 -28 -18 -56 -32 -64 -32 -7 0 -29 -12 -49 -27 -31 -24 -33 -28 -17 -34 12 -4 5 -6 -20 -6 -30 1 -44 -5 -60 -24 -11 -14 -107 -80 -211 -146 -105 -66 -202 -127 -216 -136 -21 -14 -28 -15 -42 -4 -16 11 -6 26 96 147 385 459 564 707 703 977 137 267 120 395 -56 425 -14 3 -36 3 -50 1z m8 -175 c29 -29 13 -82 -72 -235 -123 -221 -197 -327 -450 -643 -136 -170 -410 -504 -464 -564 -63 -72 -75 -99 -67 -155 l6 -47 -69 -46 c-38 -26 -92 -65 -118 -88 -27 -23 -100 -75 -163 -116 -159 -104 -233 -169 -229 -203 2 -15 14 -31 29 -40 25 -14 29 -13 70 21 24 20 54 39 67 42 12 4 22 13 22 19 0 7 30 25 65 42 36 16 65 33 65 37 0 4 15 16 33 25 36 19 104 63 430 277 294 192 343 222 555 342 103 58 195 114 205 125 10 10 24 19 33 19 22 0 124 60 124 73 0 7 35 28 78 46 42 19 183 90 313 158 250 130 439 217 712 327 244 99 290 99 232 1 -47 -82 -272 -253 -721 -550 -353 -234 -448 -301 -634 -445 -185 -144 -183 -142 -177 -197 7 -64 -15 -84 -116 -106 -43 -9 -95 -26 -115 -36 -20 -10 -62 -22 -92 -26 -71 -9 -244 -54 -429 -111 -157 -48 -201 -77 -201 -129 0 -25 31 -65 50 -65 6 0 66 16 133 36 67 19 264 64 437 99 388 78 781 176 1505 375 362 100 512 136 670 164 206 35 296 41 384 22 122 -26 143 -53 102 -134 -33 -64 -102 -118 -233 -181 -142 -68 -198 -90 -673 -256 -192 -68 -442 -156 -555 -197 -113 -42 -216 -78 -230 -82 -14 -3 -152 -13 -306 -21 -178 -10 -299 -21 -330 -30 -27 -8 -72 -15 -100 -15 -137 0 -999 -101 -1017 -119 -17 -17 4 -64 36 -79 33 -16 259 -6 772 33 176 14 353 25 393 25 70 0 75 -1 109 -35 20 -19 38 -35 41 -35 3 0 47 13 97 30 176 56 303 63 525 29 74 -11 155 -23 180 -26 24 -3 51 -12 58 -20 7 -7 22 -13 32 -13 10 0 21 -4 24 -9 4 -5 45 -30 91 -55 165 -89 506 -298 619 -379 231 -166 399 -333 466 -468 54 -105 160 -428 160 -484 0 -60 -17 -125 -32 -125 -16 0 -202 115 -268 165 -94 72 -160 146 -238 265 -132 201 -355 402 -510 460 -183 69 -455 109 -749 110 -231 0 -460 -35 -658 -101 -209 -70 -315 -180 -318 -330 -2 -64 19 -104 66 -127 40 -19 71 -6 151 67 138 126 284 180 556 206 235 24 511 30 622 16 177 -24 364 -85 444 -146 19 -14 34 -22 34 -18 0 4 79 -73 175 -171 96 -99 174 -181 172 -182 -2 -2 -46 -15 -98 -28 -244 -62 -411 -191 -485 -376 -22 -55 -27 -86 -31 -197 -6 -145 5 -213 58 -370 16 -48 29 -90 29 -95 0 -14 -89 -9 -220 12 -153 24 -151 24 -143 3 6 -17 5 -17 -13 -1 -11 9 -109 40 -219 68 -110 29 -243 65 -295 82 -200 64 -313 145 -365 260 -25 55 -29 79 -36 217 -4 86 -8 243 -9 349 0 113 -4 201 -10 213 -8 13 -21 19 -45 19 -52 0 -63 -26 -75 -171 -5 -68 -17 -209 -25 -312 -36 -445 -11 -602 115 -727 77 -78 159 -110 410 -159 187 -37 250 -42 610 -51 361 -8 513 -23 531 -51 21 -34 9 -70 -40 -119 -96 -96 -155 -127 -436 -226 -368 -129 -784 -307 -893 -381 -34 -23 -79 -47 -100 -52 -94 -25 -260 -31 -757 -29 -543 3 -619 -1 -805 -42 -405 -91 -688 -244 -988 -534 -132 -128 -245 -271 -429 -543 -190 -281 -483 -678 -515 -698 -36 -21 -77 -10 -183 50 -44 25 -123 66 -175 91 -52 25 -138 67 -190 94 -97 50 -270 119 -350 140 -202 54 -1320 513 -1320 542 0 5 120 126 267 270 148 144 385 379 528 522 143 144 292 288 330 321 105 89 202 184 249 245 45 57 315 444 542 775 408 595 591 890 1091 1760 255 443 349 614 364 660 4 11 7 14 8 7 1 -7 6 -10 11 -7 6 4 8 15 5 26 -5 13 -2 19 7 17 7 -2 13 4 13 12 0 8 6 19 13 23 6 4 12 17 12 27 0 11 4 20 10 20 5 0 16 15 25 33 8 17 43 63 76 101 63 72 63 71 44 141 -4 15 25 54 121 160 69 77 146 167 171 200 25 33 57 67 71 77 13 9 34 31 46 50 11 18 40 51 63 73 23 22 54 58 69 80 14 22 42 53 60 68 19 16 41 41 49 56 8 16 56 70 108 122 51 52 96 99 98 106 8 24 739 751 831 827 53 43 149 116 214 162 120 84 163 101 192 72z m2800 -3989 c36 -18 87 -53 114 -80 41 -41 48 -54 48 -88 0 -30 -6 -44 -25 -59 -30 -24 -200 -58 -238 -48 -36 9 -35 40 1 63 50 32 54 52 16 90 -23 23 -30 25 -80 18 -62 -7 -64 -4 -34 55 45 89 91 100 198 49z m-829 -223 c155 -34 312 -152 373 -282 28 -59 33 -80 33 -144 0 -60 -5 -86 -26 -130 -29 -60 -76 -113 -123 -137 -96 -50 -289 -67 -415 -38 -98 23 -196 80 -277 160 -106 104 -135 177 -114 286 27 143 124 245 270 285 60 17 200 16 279 0z m-868 -898 c17 -32 5 -30 -19 2 -16 21 -18 28 -7 24 9 -4 20 -15 26 -26z m-2096 -1034 c-66 -8 -142 -27 -178 -46 -42 -21 -65 -18 -25 3 47 25 134 48 183 47 28 -1 37 -3 20 -4z m393 -1 c-54 -2 -142 -2 -195 0 -54 1 -10 3 97 3 107 0 151 -2 98 -3z m220 -10 c-21 -2 -55 -2 -75 0 -21 2 -4 4 37 4 41 0 58 -2 38 -4z m-925 -10 c-7 -2 -19 -2 -25 0 -7 3 -2 5 12 5 14 0 19 -2 13 -5z m-48 -8 c-5 -3 -84 -21 -175 -41 -261 -57 -556 -170 -648 -249 -26 -23 -43 -47 -49 -72 -7 -30 -14 -38 -33 -40 -25 -3 -25 -3 -2 7 13 6 22 18 22 32 0 13 8 37 18 53 43 70 394 215 673 279 129 29 232 45 194 31z m-1058 -478 c-111 -101 -258 -266 -365 -411 -122 -163 -135 -185 -140 -240 -5 -46 -6 -48 -13 -22 -5 18 -3 43 5 67 17 48 163 249 287 393 102 119 295 306 316 306 7 0 -34 -42 -90 -93z m-3812 -274 c193 -180 756 -468 1535 -788 261 -107 352 -148 665 -294 72 -34 135 -61 141 -61 6 0 31 -11 55 -24 47 -26 158 -66 184 -66 11 0 14 7 10 28 -4 22 -4 23 4 7 5 -11 12 -28 15 -38 11 -33 144 -83 393 -147 l42 -11 -190 -234 c-169 -209 -193 -235 -219 -235 -18 0 -146 60 -332 155 -167 86 -320 160 -340 164 -21 5 -55 23 -77 40 -21 17 -66 43 -98 58 -59 27 -132 73 -258 162 -66 46 -203 126 -465 271 -63 35 -288 152 -500 260 -212 108 -445 231 -518 274 -181 104 -451 282 -459 302 -11 29 148 173 245 220 72 36 85 32 167 -43z m-385 -297 c0 -5 -13 3 -30 19 -16 16 -30 32 -30 37 0 4 14 -4 30 -19 17 -14 30 -31 30 -37z m3324 -570 c-12 -8 -46 -53 -78 -100 -59 -88 -69 -96 -117 -96 -16 0 -46 -7 -66 -15 -19 -8 -41 -15 -47 -14 -24 1 81 38 110 38 39 1 52 12 105 91 56 84 79 110 98 110 12 0 10 -4 -5 -14z m-394 -216 c0 -5 -4 -10 -10 -10 -5 0 -14 -15 -19 -32 l-9 -33 -1 31 c-1 28 14 54 31 54 4 0 8 -4 8 -10z m-5222 -1600 c-7 -10 -14 -17 -17 -15 -4 4 18 35 25 35 2 0 -1 -9 -8 -20z" transform="translate(0.000000,1500.000000) scale(0.100000,-0.100000)" style="fill: inherit;"/><path d="M11998 9181 c-53 -17 -98 -53 -126 -99 -37 -64 -38 -172 -2 -247 67 -140 250 -243 364 -205 88 29 136 102 136 208 0 106 -22 155 -104 238 -39 39 -86 79 -105 88 -39 21 -124 29 -163 17z m141 -196 c56 -64 50 -119 -13 -130 -70 -14 -131 54 -107 118 22 56 76 62 120 12z" transform="translate(0.000000,1500.000000) scale(0.100000,-0.100000)" style="fill: inherit;"/><path d="M13625 10484 c-41 -21 -71 -51 -108 -104 -91 -136 -203 -280 -219 -286 -10 -3 -18 -15 -18 -28 0 -12 -6 -28 -12 -34 -7 -7 -13 -16 -14 -20 0 -4 -6 -20 -12 -35 -7 -16 -12 -36 -12 -46 0 -22 38 -73 50 -66 4 3 10 -2 14 -10 8 -21 34 -19 41 5 3 11 102 115 219 232 163 162 216 222 226 252 15 46 8 135 -11 147 -23 14 -112 10 -144 -7z m-358 -526 c-3 -7 -5 -2 -5 12 0 14 2 19 5 13 2 -7 2 -19 0 -25z m10 -60 c-3 -7 -5 -2 -5 12 0 14 2 19 5 13 2 -7 2 -19 0 -25z" transform="translate(0.000000,1500.000000) scale(0.100000,-0.100000)" style="fill: inherit;"/><path d="M13920 10076 c-135 -42 -150 -49 -213 -90 -91 -60 -137 -109 -137 -148 0 -18 7 -44 16 -57 15 -22 21 -23 78 -17 33 4 72 15 86 25 14 9 75 34 135 56 61 21 126 46 146 56 75 37 103 136 54 184 -13 14 -32 25 -42 25 -10 -1 -65 -16 -123 -34z" transform="translate(0.000000,1500.000000) scale(0.100000,-0.100000)" style="fill: inherit;"/><path d="M14420 9639 c-127 -20 -252 -32 -455 -43 -154 -8 -288 -18 -297 -21 -23 -9 -23 -53 0 -83 26 -33 70 -39 352 -47 339 -10 493 7 672 75 l57 21 -20 47 c-41 95 -41 95 -309 51z" transform="translate(0.000000,1500.000000) scale(0.100000,-0.100000)" style="fill: inherit;"/></g></svg>