<svg xmlns="http://www.w3.org/2000/svg" xmlns:xlink="http://www.w3.org/1999/xlink" version="1.0" viewBox="0 0 224.88 300" style="fill: rgb(238, 238, 223);" original_string_length="8267" width="497.1011109441861px" height="663.6058519885978px"><defs><clipPath id="__id4_stgs8l2yeb"><path d="M 13 9 L 209 9 L 209 293.886719 L 13 293.886719 Z M 13 9"/></clipPath></defs><g clip-path="url(#__id4_stgs8l2yeb)"><path d="M 199.777344 273.871094 C 208.585938 266.050781 197.726562 255.800781 192.65625 249.222656 C 210.851562 234.386719 199.785156 218.097656 193.96875 200.480469 C 203.726562 185.515625 206.894531 179.5 200.054688 161.421875 C 198.261719 156.8125 194.785156 151.65625 195.792969 146.574219 C 195.792969 146.574219 195.804688 146.582031 195.804688 146.582031 C 201.480469 139.871094 208.859375 133.042969 208.984375 123.613281 C 208.273438 109.792969 200.328125 97.820312 192.386719 86.980469 C 208.75 73.199219 208.003906 58.183594 191.613281 44.757812 C 206.398438 32.816406 199.914062 16.367188 180.886719 17.695312 C 176.292969 17.96875 173.203125 19.863281 170.574219 21.808594 C 167.242188 23.210938 163.515625 25.398438 162.808594 25.917969 C 162.769531 25.464844 162.226562 24.269531 161.484375 22.921875 C 155.132812 6.058594 133.394531 12.484375 120.851562 20.3125 C 114.996094 23.890625 117.105469 22.25 112.800781 18.433594 C 102.140625 7.007812 85.210938 7.257812 71.992188 13.871094 C 67.472656 15.941406 69.644531 17.820312 64.671875 15.25 C 59.5 12.980469 54.140625 10.867188 48.492188 10.167969 C 35.519531 8.851562 21.804688 15.949219 26.351562 30.796875 C 4.359375 36.179688 19.214844 56.046875 25.089844 68.695312 C 24.945312 68.765625 24.804688 68.851562 24.660156 68.945312 C 8.660156 77.949219 13.796875 95.53125 27.902344 103.734375 C 12.789062 115.65625 8.664062 128.648438 23.066406 143.453125 C 14.625 151.894531 13.550781 165.046875 16.695312 176.058594 C 19.421875 181.679688 23.011719 187.128906 26.027344 192.679688 C 20.5 197.210938 14.667969 202.734375 13.726562 210.1875 C 13.097656 219.734375 16.53125 230.132812 24.890625 235.394531 C 12.605469 244.492188 13.808594 275.089844 33.949219 269.117188 C 29.078125 282.304688 42.566406 287.574219 53.515625 286.234375 C 61.136719 285.628906 67.648438 282.246094 73.660156 277.828125 C 75.421875 298.308594 101.183594 288.113281 111.605469 280.523438 C 112.382812 282.0625 113.246094 283.554688 114.300781 284.914062 C 114.332031 284.941406 114.359375 284.964844 114.386719 284.992188 C 120.417969 292.867188 130.703125 295.628906 140.71875 293.585938 C 147.941406 292.257812 151.625 287.421875 157.554688 283.976562 C 161.257812 289.46875 167.292969 294.113281 174.175781 294.238281 C 180.453125 294.820312 184.640625 290.09375 187.425781 285.167969 C 197.941406 298.390625 210.832031 281.433594 199.777344 273.871094 Z M 162.324219 31.59375 C 162.679688 35.394531 162.382812 41.257812 158.128906 42.695312 C 153.316406 41.085938 160.121094 33.398438 162.324219 31.59375 Z M 115.757812 266.871094 C 117.449219 268.988281 112.871094 273.585938 111.578125 275.316406 C 110.421875 272.289062 111.59375 266.015625 115.757812 266.871094 Z M 189.828125 283.257812 C 188.585938 282.3125 186.976562 282.671875 186.070312 283.898438 C 179.910156 293.199219 165.210938 293.804688 159.765625 283.492188 C 159.128906 282.414062 159.121094 280.839844 157.839844 280.25 C 155.097656 279.167969 152.570312 284.125 150.289062 285.335938 C 144.707031 288.765625 138.226562 291.441406 131.632812 291.820312 C 125.238281 291.964844 120.449219 287.003906 116.832031 282.292969 C 115.507812 280.929688 114.890625 278.648438 113.320312 277.578125 C 115.894531 275.367188 118.191406 272.554688 118.878906 269.191406 C 119.695312 265.722656 116.652344 261.113281 112.859375 263.246094 C 108.128906 266.027344 107.960938 272.523438 110.066406 277.042969 C 109.65625 277.507812 109.230469 277.964844 108.792969 278.398438 C 104.699219 280.429688 101.175781 284.132812 96.695312 285.476562 C 90.082031 288.40625 79.167969 287.839844 76.554688 279.882812 C 75.90625 271.722656 73.5625 275.699219 68.195312 277.132812 C 61.390625 279.359375 55.207031 283.851562 47.832031 284.039062 C 41.894531 284.097656 36.148438 279.195312 36.511719 273.035156 C 36.414062 270.839844 39.753906 265.242188 35.59375 265.425781 C 30.152344 266.566406 26.292969 268.8125 22.335938 263.367188 C 14.886719 254.695312 19.886719 247.28125 26.390625 240.125 C 29.792969 236.9375 28.589844 234.242188 24.738281 232.355469 C 12.957031 222.957031 13.203125 203.429688 26.957031 195.957031 C 27.183594 195.859375 27.386719 195.75 27.574219 195.632812 C 27.914062 195.550781 28.261719 195.5 28.628906 195.5 C 30.550781 198.203125 33.507812 200.789062 36.964844 201.039062 C 50.949219 200.859375 43.878906 187.714844 29.609375 193.183594 C 29.335938 192.839844 29.074219 192.488281 28.8125 192.132812 C 27.632812 187.695312 20.3125 181.121094 19.929688 176.890625 C 12.355469 141.125 31.507812 148.890625 23.636719 138.355469 C 20.878906 135.113281 17.484375 131.988281 16.554688 127.671875 C 13.929688 114.058594 33.523438 107.195312 30.300781 102.488281 C 20.726562 96.695312 10.566406 78.503906 23.910156 72.484375 C 24 72.523438 24.085938 72.570312 24.191406 72.613281 C 25.429688 72.570312 26.367188 71.546875 27.523438 71.1875 C 28.917969 73.210938 30.632812 75.191406 33.003906 76.0625 C 40.484375 77.449219 37.609375 64.027344 28.25 67.460938 C 26.605469 62.777344 18.109375 55.636719 18.183594 49.03125 C 17.851562 45.414062 16.21875 40.875 18.90625 37.832031 C 21.863281 34.640625 29.816406 36.382812 29.179688 31.046875 C 21.597656 9.46875 53.128906 11.316406 64.976562 18.875 C 72.945312 24.433594 68.925781 13.816406 83.25 13.097656 C 110.210938 8.300781 110.421875 30.28125 119.441406 24.496094 C 131.421875 17.648438 141.347656 12 155.085938 18.949219 C 158.785156 21 159.429688 25.660156 160.398438 28.175781 C 156.398438 32.785156 151.316406 43.347656 158.289062 46.015625 C 165.738281 45.664062 165.65625 35.351562 164.144531 29.996094 C 166.097656 28.386719 168.007812 26.6875 170.160156 25.328125 C 171.640625 24.175781 173.746094 23.980469 175.25 22.933594 C 178.878906 21.652344 182.628906 20.359375 186.480469 21.210938 C 191.472656 22.328125 199.121094 25.535156 196.804688 31.878906 C 195.527344 36.167969 192.25 39.320312 189.382812 42.59375 C 185.3125 48.152344 201.902344 51.71875 201.253906 64.867188 C 200.789062 81.09375 187.9375 83 191.222656 90.101562 C 202.492188 105.011719 212.414062 121.078125 199.683594 138.757812 C 191.984375 147.261719 191.605469 147.214844 196.175781 158.117188 C 201.226562 172.585938 204.929688 184.773438 192.570312 196.847656 C 192.359375 197.0625 192.171875 197.285156 192.015625 197.511719 C 189.933594 193.605469 184.4375 192.40625 184.304688 198.273438 C 184.5 201.84375 187.574219 203.6875 190.539062 201.324219 C 191.441406 202.789062 191.640625 205.449219 192.960938 206.394531 C 192.972656 206.398438 192.984375 206.40625 192.988281 206.410156 C 193.605469 207.703125 194.214844 208.964844 194.535156 210.148438 C 199.90625 221.753906 204.03125 237.472656 192.304688 246.675781 C 191.210938 247.601562 189.945312 248.734375 190.375 250.339844 C 191.257812 253.339844 194.882812 254.296875 196.453125 256.917969 C 198.851562 260.871094 202.332031 267.714844 197.785156 271.292969 C 196.945312 272.265625 197.253906 274.355469 198.746094 274.414062 C 205.886719 282.6875 198.589844 289.933594 189.828125 283.257812 Z M 31.449219 195.125 C 34.457031 194.929688 38.074219 193.980469 40.78125 195.621094 C 41.429688 197.050781 39.101562 197.792969 38 197.796875 C 35.507812 198.03125 33.222656 196.789062 31.449219 195.125 Z M 29.652344 70.605469 C 31.300781 70.355469 33.53125 70.890625 34.097656 72.648438 C 34.03125 72.734375 33.925781 72.816406 33.820312 72.84375 C 32.207031 72.710938 30.71875 71.792969 29.652344 70.605469 Z M 189.902344 200.003906 C 189.425781 200.222656 188.894531 200.3125 188.371094 200.324219 C 185.066406 199.59375 187.816406 194.910156 189.902344 200.003906 Z M 192.949219 206.371094 C 192.953125 206.375 192.960938 206.375 192.964844 206.375 C 192.972656 206.382812 192.976562 206.386719 192.988281 206.394531 C 192.984375 206.398438 192.949219 206.371094 192.949219 206.371094 Z M 192.949219 206.371094" style="fill: inherit;"/></g></svg>