<svg xmlns="http://www.w3.org/2000/svg" xmlns:xlink="http://www.w3.org/1999/xlink" version="1.0" viewBox="0 0 224.88 300" style="fill: rgb(238, 238, 223);" original_string_length="9872" width="348.03315399129457px" height="464.60736576507765px"><defs><clipPath id="__id20_sihuckf4gq"><path d="M 6.386719 145 L 123 145 L 123 276 L 6.386719 276 Z M 6.386719 145"/></clipPath><clipPath id="__id21_sihuckf4gq"><path d="M 102 24 L 218.523438 24 L 218.523438 154 L 102 154 Z M 102 24"/></clipPath><clipPath id="__id22_sihuckf4gq"><path d="M 100 147 L 218.523438 147 L 218.523438 276 L 100 276 Z M 100 147"/></clipPath><clipPath id="__id23_sihuckf4gq"><path d="M 6.386719 24 L 125 24 L 125 153 L 6.386719 153 Z M 6.386719 24"/></clipPath></defs><g clip-path="url(#__id20_sihuckf4gq)"><path d="M 9.542969 147.5 L 10.835938 245.3125 L 10.835938 245.273438 C 11.253906 255.898438 12.589844 262.078125 14.84375 263.808594 C 15.085938 263.992188 15.265625 264.246094 15.363281 264.53125 C 17.277344 270.101562 52.605469 272.574219 121.355469 271.941406 C 122.210938 271.933594 122.910156 272.621094 122.917969 273.472656 C 122.925781 274.328125 122.238281 275.027344 121.382812 275.035156 C 51.148438 275.675781 14.832031 272.511719 12.4375 265.535156 L 12.957031 266.257812 C 9.9375 263.941406 8.199219 256.984375 7.742188 245.394531 L 7.742188 245.355469 L 6.449219 147.539062 C 6.4375 146.6875 7.121094 145.988281 7.976562 145.976562 C 8.832031 145.964844 9.53125 146.648438 9.542969 147.5 Z M 9.542969 147.5" style="fill: inherit;"/></g><g clip-path="url(#__id21_sihuckf4gq)"><path d="M 215.378906 152.164062 L 214.085938 54.351562 L 214.085938 54.390625 C 213.667969 43.765625 212.332031 37.585938 210.078125 35.855469 C 209.835938 35.671875 209.65625 35.421875 209.558594 35.132812 C 207.644531 29.5625 172.316406 27.09375 103.566406 27.722656 C 102.710938 27.730469 102.011719 27.046875 102.003906 26.191406 C 101.996094 25.339844 102.683594 24.640625 103.539062 24.632812 C 173.777344 23.988281 210.089844 27.152344 212.484375 34.128906 L 211.964844 33.40625 C 214.984375 35.726562 216.722656 42.679688 217.179688 54.269531 L 217.179688 54.3125 L 218.472656 152.125 C 218.484375 152.976562 217.800781 153.679688 216.945312 153.691406 C 216.089844 153.703125 215.390625 153.019531 215.378906 152.164062 Z M 215.378906 152.164062" style="fill: inherit;"/></g><g clip-path="url(#__id22_sihuckf4gq)"><path d="M 215.402344 148.984375 L 212.695312 246.769531 L 212.695312 246.726562 C 212.125 257.347656 210.699219 263.503906 208.421875 265.203125 C 208.175781 265.386719 207.992188 265.632812 207.890625 265.921875 C 205.898438 271.460938 170.535156 273.421875 101.800781 271.800781 C 100.949219 271.78125 100.238281 272.457031 100.21875 273.308594 C 100.199219 274.164062 100.875 274.871094 101.730469 274.890625 C 171.949219 276.546875 208.308594 273.90625 210.800781 266.964844 L 210.269531 267.679688 C 213.324219 265.40625 215.164062 258.476562 215.785156 246.894531 L 215.789062 246.855469 L 218.496094 149.070312 C 218.519531 148.214844 217.84375 147.503906 216.992188 147.480469 C 216.136719 147.457031 215.425781 148.128906 215.402344 148.984375 Z M 215.402344 148.984375" style="fill: inherit;"/></g><g clip-path="url(#__id23_sihuckf4gq)"><path d="M 9.519531 150.683594 L 12.226562 52.898438 L 12.226562 52.9375 C 12.796875 42.316406 14.222656 36.160156 16.5 34.460938 C 16.746094 34.28125 16.929688 34.03125 17.03125 33.746094 C 19.023438 28.203125 54.386719 26.242188 123.121094 27.863281 C 123.972656 27.882812 124.683594 27.207031 124.703125 26.355469 C 124.722656 25.503906 124.046875 24.792969 123.191406 24.773438 C 52.972656 23.117188 16.613281 25.757812 14.121094 32.699219 L 14.652344 31.984375 C 11.597656 34.257812 9.757812 41.1875 9.136719 52.773438 L 9.132812 52.8125 L 6.425781 150.597656 C 6.402344 151.449219 7.078125 152.160156 7.929688 152.183594 C 8.785156 152.207031 9.496094 151.535156 9.519531 150.683594 Z M 9.519531 150.683594" style="fill: inherit;"/></g><path d="M 17.984375 148.105469 C 16.496094 173.792969 15.582031 209.875 15.25 256.347656 L 15.238281 256.148438 L 17.128906 271.441406 L 17.128906 271.449219 C 17.21875 272.21875 17.441406 272.882812 17.796875 273.449219 C 17.847656 273.53125 17.890625 273.617188 17.921875 273.703125 C 17.917969 273.6875 17.914062 273.679688 17.90625 273.671875 C 18.386719 274.402344 20.6875 275.03125 24.8125 275.5625 C 24.871094 275.570312 24.929688 275.578125 24.984375 275.59375 C 27.082031 276.105469 39.027344 277.132812 60.828125 278.671875 C 60.859375 278.671875 60.894531 278.675781 60.925781 278.679688 C 68.738281 279.714844 85.84375 279.835938 112.242188 279.042969 C 113.097656 279.015625 113.808594 279.6875 113.835938 280.539062 C 113.859375 281.394531 113.1875 282.105469 112.335938 282.132812 C 85.769531 282.929688 68.496094 282.800781 60.515625 281.742188 L 60.613281 281.753906 C 38.636719 280.203125 26.515625 279.152344 24.246094 278.59375 L 24.417969 278.628906 C 19.351562 277.976562 16.316406 276.886719 15.320312 275.367188 C 15.207031 275.195312 15.117188 275.019531 15.042969 274.835938 L 15.171875 275.085938 C 14.570312 274.128906 14.199219 273.039062 14.054688 271.8125 L 14.054688 271.820312 L 12.167969 256.527344 C 12.160156 256.460938 12.15625 256.390625 12.15625 256.324219 C 12.488281 209.800781 13.402344 173.667969 14.894531 147.925781 C 14.945312 147.074219 15.675781 146.421875 16.53125 146.472656 C 17.382812 146.519531 18.035156 147.25 17.984375 148.105469 Z M 17.984375 148.105469" style="fill: inherit;"/><path d="M 206.9375 151.5625 C 208.429688 125.871094 209.339844 89.792969 209.671875 43.316406 L 209.683594 43.519531 L 207.796875 28.222656 L 207.792969 28.214844 C 207.703125 27.449219 207.480469 26.78125 207.125 26.214844 C 207.074219 26.132812 207.035156 26.050781 207 25.960938 C 207.003906 25.976562 207.007812 25.988281 207.015625 25.992188 C 206.535156 25.265625 204.234375 24.632812 200.109375 24.105469 C 200.050781 24.097656 199.992188 24.085938 199.9375 24.074219 C 197.84375 23.558594 185.894531 22.535156 164.09375 20.996094 C 164.0625 20.992188 164.03125 20.988281 164 20.984375 C 156.183594 19.949219 139.078125 19.828125 112.679688 20.625 C 111.828125 20.648438 111.113281 19.976562 111.085938 19.125 C 111.0625 18.273438 111.734375 17.558594 112.585938 17.535156 C 139.152344 16.734375 156.425781 16.863281 164.40625 17.921875 L 164.3125 17.910156 C 186.285156 19.460938 198.40625 20.515625 200.675781 21.070312 L 200.503906 21.039062 C 205.570312 21.691406 208.605469 22.777344 209.601562 24.300781 C 209.714844 24.472656 209.808594 24.648438 209.878906 24.832031 L 209.75 24.578125 C 210.351562 25.535156 210.722656 26.628906 210.867188 27.851562 L 210.867188 27.84375 L 212.753906 43.140625 C 212.761719 43.207031 212.765625 43.273438 212.765625 43.339844 C 212.433594 89.867188 211.519531 126 210.027344 151.742188 C 209.976562 152.59375 209.246094 153.242188 208.390625 153.195312 C 207.539062 153.144531 206.886719 152.414062 206.9375 151.5625 Z M 206.9375 151.5625" style="fill: inherit;"/><path d="M 206.953125 149.464844 C 208.070312 175.171875 208.460938 211.265625 208.121094 257.738281 L 208.136719 257.539062 L 206.027344 272.804688 L 206.027344 272.8125 C 205.925781 273.578125 205.691406 274.242188 205.332031 274.800781 C 205.277344 274.882812 205.234375 274.964844 205.199219 275.054688 C 205.203125 275.039062 205.210938 275.027344 205.214844 275.023438 C 204.726562 275.746094 202.414062 276.339844 198.28125 276.8125 C 198.222656 276.816406 198.167969 276.828125 198.109375 276.839844 C 196.007812 277.324219 184.046875 278.175781 162.226562 279.402344 C 162.195312 279.402344 162.164062 279.40625 162.132812 279.410156 C 154.300781 280.332031 137.195312 280.207031 110.8125 279.03125 C 109.960938 278.996094 109.238281 279.65625 109.199219 280.507812 C 109.160156 281.359375 109.820312 282.082031 110.675781 282.121094 C 137.226562 283.300781 154.5 283.421875 162.492188 282.480469 L 162.398438 282.488281 C 184.394531 281.253906 196.53125 280.375 198.804688 279.851562 L 198.632812 279.882812 C 203.710938 279.304688 206.757812 278.261719 207.777344 276.753906 C 207.894531 276.582031 207.988281 276.410156 208.0625 276.226562 L 207.933594 276.476562 C 208.542969 275.527344 208.933594 274.441406 209.09375 273.21875 L 209.09375 273.226562 L 211.203125 257.960938 C 211.210938 257.894531 211.21875 257.828125 211.21875 257.761719 C 211.558594 211.234375 211.164062 175.089844 210.042969 149.332031 C 210.007812 148.476562 209.285156 147.816406 208.429688 147.855469 C 207.578125 147.890625 206.914062 148.613281 206.953125 149.464844 Z M 206.953125 149.464844" style="fill: inherit;"/><path d="M 17.972656 150.199219 C 16.851562 124.492188 16.460938 88.402344 16.800781 41.929688 L 16.785156 42.128906 L 18.894531 26.859375 L 18.894531 26.855469 C 18.996094 26.089844 19.230469 25.425781 19.59375 24.863281 C 19.644531 24.785156 19.6875 24.699219 19.722656 24.613281 C 19.71875 24.625 19.710938 24.636719 19.707031 24.644531 C 20.195312 23.921875 22.507812 23.324219 26.640625 22.855469 C 26.699219 22.847656 26.753906 22.839844 26.8125 22.824219 C 28.914062 22.34375 40.875 21.488281 62.695312 20.265625 C 62.726562 20.261719 62.757812 20.261719 62.792969 20.257812 C 70.621094 19.332031 87.726562 19.460938 114.109375 20.632812 C 114.960938 20.671875 115.683594 20.011719 115.722656 19.160156 C 115.761719 18.304688 115.101562 17.582031 114.246094 17.546875 C 87.695312 16.363281 70.421875 16.242188 62.429688 17.1875 L 62.523438 17.179688 C 40.527344 18.410156 28.390625 19.289062 26.117188 19.8125 L 26.289062 19.78125 C 21.210938 20.359375 18.164062 21.40625 17.144531 22.914062 C 17.027344 23.082031 16.933594 23.257812 16.859375 23.441406 L 16.992188 23.1875 C 16.378906 24.136719 15.992188 25.222656 15.828125 26.445312 L 15.828125 26.4375 L 13.71875 41.707031 C 13.710938 41.773438 13.707031 41.839844 13.703125 41.90625 C 13.363281 88.429688 13.757812 124.574219 14.878906 150.335938 C 14.914062 151.1875 15.636719 151.847656 16.492188 151.8125 C 17.347656 151.773438 18.007812 151.054688 17.972656 150.199219 Z M 17.972656 150.199219" style="fill: inherit;"/></svg>