<svg version="1.2" xmlns="http://www.w3.org/2000/svg" viewBox="0 0 245 125" width="245" height="125"><style>.a{fill:#fff}</style><path class="a" d="m140.1 12.1c-0.8 0.2-1.5 0.5-3.3 1.6-1.7 1.2-2.4 1.6-3.9 2.4-2.4 1.5-3.7 2.1-7.9 4.2-1.5 0.8-3.2 1.7-3.6 1.9-2.8 1.6-5.4 3.7-8.3 6.6-1.9 1.9-3.1 3.4-4.1 5.1-2.3 3.9-3.1 5.3-3.9 7-1.6 3.8-2.7 7.1-3.4 11.5-0.2 1-0.5 2.7-0.9 5.8-0.8 5.4-1.1 6.9-1.6 8.5-0.4 1.5-1 2.6-1.8 3.6-1.2 1.6-2.8 2.7-4.5 3.1-0.5 0.1-1.6 0.1-2 0-0.8-0.2-1.4-0.5-2.2-1-1.1-0.7-1.8-0.9-3-1-0.7-0.1-2-0.1-2.6 0-1.3 0.3-2.5 0.8-4.1 1.9-1.1 0.7-1.8 1.3-2.4 1.9q-1.8 2.1-2.4 4.8c-0.2 1-0.3 1.6-0.1 1.9 0.1 0.2 0.4 0.4 0.5 0.4 0.3 0.1 1.1-0.5 1.3-1.1 0.1-0.1 0.3-0.4 0.3-0.7 0.4-1.1 0.8-1.9 1.5-2.8 1.1-1.4 2.6-2.5 4.4-3.2 1.8-0.7 3.5-0.7 4.9 0.2 1.3 0.7 2 0.9 3.1 1q1 0 1.8-0.2c0.7-0.2 1.1-0.3 1.5-0.4 1.1-0.1 1.7-0.3 2.6-0.6 2.3-0.9 4.1-2.8 5.4-5.6q1.2-2.5 1.6-5.2c0-0.2 0.2-1.9 0.5-3.6 1-7.7 1.3-10 2.1-12.8 0.5-2.2 1.2-4.4 2.1-6.6 0.4-0.9 1.9-4 2.5-5 1.1-2 2.5-3.7 4.1-5.4q2-1.9 4.2-3.8c0.4-0.4 1-0.8 1.2-1 2.1-1.8 4.4-3.1 7.3-4.2 3.2-1.2 5.7-2.5 8.4-4.2 1.9-1.3 4.3-2.5 4.8-2.5 0.1 0 0.3 0.4 0.4 0.7 0.1 0.4 0.1 1.1 0 1.4-0.1 0.4-0.3 0.8-0.7 1.4-0.8 1.2-1.6 2.4-3 3.8-0.2 0.3-1.3 1.4-2.3 2.6-1 1.2-2.3 2.5-2.7 3-0.9 1.1-1.1 1.3-1 1.6 0 0.3 0.2 0.5 0.9 0.7l0.4 0.1h2.5c1.3 0 2.6 0.1 2.8 0.1 1.2 0.1 2.4 0.5 3 0.8 0.5 0.2 0.9 0.7 1.1 1.2 0.1 0.7-0.1 1.4-0.9 2.6-0.8 1.2-1.2 1.6-3.1 3.4-0.8 0.8-1.4 1.5-2.3 2.7-0.6 0.7-1.2 1.6-1.3 1.9q-0.4 0.8 0.2 1.3c0.3 0.2 0.7 0.4 1 0.5 1 0.3 1.3 0.4 1.8 0.8 0.6 0.3 1.3 1 1.9 1.8 0.6 0.9 0.9 1.8 1 2.8 0.1 1.2-0.2 2.4-0.9 3.5-0.4 0.4-1.4 1.4-2.4 2.2-0.5 0.4-1 0.9-1.2 1.1-0.7 0.6-4.3 4-5 4.7-0.4 0.5-0.6 0.7-0.6 1.1-0.1 0.2 0 0.7 0 0.8 0.1 0 1.1-0.4 1.8-0.7 0.9-0.5 6.8-4.5 8-5.4 0.4-0.4 1.1-1.1 1.5-1.6 0.9-1.1 1.7-2.8 1.9-4 0.1-0.5 0-1.6-0.1-2.3-0.2-0.9-0.5-1.7-0.9-2.6-0.6-1.1-1.2-1.9-1.9-2.6-0.7-0.7-1.3-1.1-2-1.4-0.5-0.1-1.2-0.4-1.2-0.4 0.1-0.1 1.5-1.2 2-1.7 2.1-1.4 3.5-2.8 4.4-4.1 0.5-0.8 0.9-1.7 1.1-2.6 0.1-0.4 0.1-1.4 0.1-1.8-0.3-1.6-1.3-2.9-2.9-3.7-0.5-0.3-0.8-0.4-1.6-0.6-1.2-0.3-2.2-0.4-4.4-0.4-1.4 0-1.6 0-1.6-0.1 0.1 0 1.3-0.8 1.7-1 0.4-0.3 1.4-1.2 4-3.5 1.7-1.5 2.4-2.3 3-3.6 0.5-0.9 0.7-1.5 0.8-2.1 0.1-1.1 0-2.1-0.6-3.2-0.5-1-1-1.6-1.8-1.7-0.3-0.1-0.6-0.1-1 0z"/><path class="a" d="m185.5 13.4c-1.5 0.2-2.7 0.9-3.8 2.3-1.6 2.1-2.2 3.4-4 8-1 2.8-1.2 3.4-2.9 7.3-0.6 1.5-1.4 3.2-1.7 3.9-0.8 1.9-1.3 2.8-2.1 4-0.6 0.7-1.5 1.7-2.3 2.4-1.8 1.5-3.8 2.6-6.1 3.3-1.2 0.4-2.2 0.6-4.4 0.9-3.9 0.5-5.6 0.7-7.7 1-2.5 0.4-3.7 0.8-5 1.6-0.6 0.3-0.8 0.5-0.9 0.8 0 0.1 0 0.2 0 0.4 0.1 0.4 0.4 0.5 0.9 0.6 0.5 0.1 0.7 0 3.2-0.4 1.2-0.2 2-0.3 6-0.5 2-0.2 2.7-0.2 3.5-0.3 3.5-0.2 6.5-1.1 9.6-2.8 1.6-0.9 2.8-1.8 4.1-3.2 1.4-1.3 2.2-2.4 3.1-4 0.7-1.3 1.7-3.5 2.6-5.6 1.2-3.1 1.7-4.6 2.5-6.8 1.3-3.6 1.8-4.8 2.6-6.5 0.7-1.4 1.1-2 1.8-2.7 0.6-0.7 0.9-0.9 1.3-0.9q0.5 0 0.7 0.7c0 0.2 0 0.4 0.1 0.8 0 0.8-0.1 1.2-0.4 3.3-0.5 3.3-0.5 3.6-0.2 4.3l0.2 0.2 0.4-0.4c0.2-0.2 0.4-0.4 0.5-0.5 0 0 0.3-0.1 0.5-0.1 0.7-0.3 1.3-0.7 2.4-1.6 0.8-0.6 0.9-0.8 1.6-1.2 0.3-0.2 1.1-0.8 1.7-1.3 1.6-1.2 2.1-1.5 2.7-1.8q0.8-0.4 1.8-0.4c0.7-0.1 0.9-0.1 1.1 0.1 0.2 0.2 0.2 0.4 0.2 0.8-0.1 0.5-0.2 0.9-0.6 2-0.2 0.5-0.4 1.3-0.5 1.6-0.2 0.4-0.4 1-0.5 1.3-0.4 1.1-0.4 1.3-0.4 2.1 0 0.4 0 0.7 0 0.7 0 0 0.2 0 0.9-0.2 1.6-0.5 3-0.9 3.9-1.2 1.4-0.5 2.4-0.8 3.6-1 1.1-0.1 2.6-0.2 3.4-0.2 0.4 0 1.1 0.2 1.4 0.3 0.3 0.2 0.5 0.5 0.5 0.9 0 0.5-0.2 0.8-1.3 2.1-1.1 1.4-1.8 2.2-2.4 2.9-0.7 0.7-0.9 1-1.3 1.6-0.4 0.6-1.1 1.9-1 1.9 0 0 0.4-0.1 0.8-0.3 1-0.4 1.4-0.4 1.9-0.5 0.4 0 1.2 0.1 1.9 0.2 0.2 0 0.8 0 1.4 0 2.1 0.1 3 0.3 4.2 0.9 1 0.5 1.3 0.7 1.4 1.2q0.2 0.6 0 1.2c-0.4 1-0.8 1.6-1.7 2.3-1.5 1.4-3.2 2.5-5 3.3-1.4 0.6-4 1.5-8.9 3.3-1.1 0.4-2.3 0.8-2.7 1-0.3 0.1-1 0.3-1.5 0.5-1.4 0.5-2.2 0.8-3.4 1.4-1.2 0.6-1.8 1-2.8 1.7-0.7 0.4-1.6 1-2 1.4-0.3 0.3-0.5 0.3-0.7 0.4-0.3 0-0.7 0.2-0.9 0.5-0.3 0.2-0.4 0.5-0.7 1.4-2.1 5.4-3.4 7.8-5.6 10.8-2.2 3-5.7 6.4-9.3 9-2.8 2.2-4.5 3.3-7.9 5.1-0.6 0.3-1.5 0.8-2.1 1.1-0.9 0.5-0.9 0.5-1.2 0.5-0.3 0.1-2.8 0-2.9-0.1 0 0 0.2-0.3 0.5-0.7 0.5-0.7 0.7-1.1 0.8-1.6 0.1-0.2 0.1-0.4 0.1-0.9 0-0.7 0-0.7-0.1-1.1-0.2-0.6-0.5-1.1-0.9-1.6q-0.5-0.6-1.7-1.2c-2.3-1.3-5.5-1.7-9.7-1.3-1.5 0.2-3.2 0.4-3.5 0.5-0.3 0.1-0.6 0.4-0.8 0.6l-0.2 0.2 0.3 0.1c0.1 0.1 0.4 0.2 0.6 0.3 0.5 0.2 0.8 0.2 3.4 0.6 3.2 0.5 5.3 0.9 7.3 1.4 0.9 0.2 1.3 0.4 1.8 0.9q0.5 0.5 0.3 1c-0.2 0.4-1.1 1-2.7 1.8-1 0.5-1.2 0.7-1.4 0.9-0.2 0.1-0.3 0.3-0.3 0.5-0.1 0.2-0.1 0.2 0 0.3 0.2 0.3 0.6 0.5 2.1 0.9 0.3 0.1 0.8 0.3 1.1 0.4 1.3 0.4 2.9 0.9 4.4 1.1 1.1 0.2 1.7 0.3 3.9 0.5q2.8 0.3 4.7 1.1c0.6 0.2 1.9 0.9 2.4 1.2 1 0.7 1.9 1.9 1.9 2.6 0 0.4-0.1 0.7-1.2 1.7-0.7 0.7-0.8 0.8-0.9 1.1-0.1 0.2-0.2 0.3-0.1 0.4q0 0.4 0.4 0.6c0.1 0.1 0.7 0.3 1.7 0.5 0.9 0.1 2.1 0.4 2.7 0.5 0.6 0.2 1.4 0.3 1.8 0.4 0.9 0.2 3.4 0.8 4 0.9 0.9 0.3 1.6 0.6 2.5 1 0.5 0.3 0.7 0.5 0.8 0.7 0.1 0.3 0 0.6-0.4 1.1-0.2 0.2-0.3 0.3-0.8 0.5-0.3 0.2-0.9 0.5-1.3 0.7-1.2 0.7-2 1.1-2.6 1.3-0.5 0.1-2.2 0.5-3.2 0.7q-3.2 0.6-7.2 1c-0.3 0-0.7 0-1 0.1-1.8 0.1-3.3 0.3-4.2 0.5-0.6 0.1-2.2 0.5-3.2 0.7-3.6 1-6.6 2-12.6 4.1-5.1 1.9-6.5 2.4-8.4 2.8-1.5 0.3-2.9 0.4-4.6 0.4-2.1 0.1-3.4-0.1-5.3-0.5q-2.7-0.7-5.6-2.2c-1.9-1-3.9-2.1-5.6-3.3-1-0.7-2.9-2.1-3.1-2.3-1.5-1.1-4.1-3.7-7.2-7.3-2.3-2.6-3.1-3.4-4.8-4.6-0.8-0.6-1.3-0.9-2-1.2-0.8-0.5-1.7-0.8-2.5-1-0.2-0.1-0.4-0.1-0.4-0.1-0.1 0 0-0.3 0.1-0.6 0-0.2 0.1-0.5 0.1-0.5-0.1 0-0.7-0.1-1.1-0.1-0.5 0-0.9 0.1-2.1 0.3-2.1 0.5-3.5 0.7-5.2 0.7-2.1 0-4-0.3-5.8-1-0.9-0.3-1.6-0.6-2.3-1-0.9-0.5-1-0.6-1.4-0.6-0.3 0-0.5 0.1-0.7 0.3-0.7 0.7-0.1 1.7 1.6 2.8 0.8 0.6 1.7 1 2.6 1.2 0.9 0.3 1.5 0.4 3.3 0.5 3.1 0.2 5.2 0.2 5.9 0.1q1-0.2 1.9-0.5c0.7-0.3 0.8-0.3 1.4-0.1 1.5 0.5 3 1.1 3.8 1.7 2 1.3 3.3 2.6 6.5 6.5 2.1 2.6 3.3 3.9 4.5 5 0.6 0.5 2.5 2.2 3.3 2.8 1.3 1.1 2.8 2.1 5.8 3.9 1.3 0.8 1.9 1.1 3.1 1.7 1 0.5 1.8 0.8 2.8 1.2 1.7 0.6 2.5 0.8 5.1 1.3l1.7 0.2h1.4c1.2 0 1.3 0 1.8-0.1 0.3 0 1.4-0.2 2.3-0.3 2.6-0.4 3.2-0.5 4.4-0.8 1.4-0.4 3.3-1 6.1-2 0.9-0.4 2.1-0.8 2.5-0.9 0.5-0.2 1.7-0.6 2.6-1 4-1.4 5.2-1.8 7.4-2.3 2.9-0.7 6.4-1.3 9.2-1.5 3.2-0.2 4.9-0.5 7.3-1.2 2-0.6 4-1.3 5.1-1.8 1.1-0.6 1.8-1 2.5-1.7 0.9-0.9 1.5-1.8 1.7-2.7 0.1-0.4 0-1-0.1-1.4-0.2-0.8-0.8-1.7-1.6-2.3-0.3-0.2-1.5-0.8-2.1-1.1-2.1-0.9-4.3-1.3-6.7-1.3-0.5 0-1.2 0-1.6 0l-0.6-0.1 0.1-0.2c0-0.1 0.2-0.3 0.3-0.5 0.2-0.3 0.5-0.8 0.6-1.1 0.1-0.4 0.1-1.1 0-1.5-0.1-0.6-0.4-1.2-0.9-2-1.1-1.7-2.7-3-4.5-3.8-0.3-0.1-1-0.3-3.5-1.2-0.1 0-0.2-0.1-0.2-0.1 0 0 0.3-0.2 0.7-0.5 2.7-1.5 3.1-1.8 4.8-2.9 2.5-1.6 5.1-3.5 6.4-4.8 2-1.8 4.6-4.6 5.5-5.8 0.9-1.1 1.4-1.9 2.7-4 0.7-1.2 1.5-2.8 2.5-5.4 0.8-2 1-2.4 1.7-3.2 0.3-0.5 1.1-1.3 1.6-1.7 1-0.8 2.4-1.5 3.7-2.1 1.3-0.5 4.7-1.5 8.5-2.6 4-1.1 6-1.8 7.9-2.7 1.3-0.6 2.2-1.2 3.4-2 0.9-0.6 1.5-1.1 2.1-1.7 1.5-1.4 2.3-2.7 2.7-4.1 0.1-0.4 0.1-0.5 0.1-1.1 0-0.7 0-0.8-0.1-1.2-0.1-0.4-0.4-1.1-0.7-1.5-0.2-0.3-0.8-0.9-1.1-1.2-1-0.8-2.3-1.3-3.8-1.6-0.4-0.1-0.6-0.1-1.9-0.1h-1.6l0.8-0.8c1.7-1.7 1.9-2 2.2-2.6 0.2-0.5 0.3-1 0.4-1.6 0-1.8-1-3.3-2.8-4.1q-0.7-0.3-1.4-0.4c-0.8-0.1-2.4 0-3.6 0.2-1.1 0.2-1.7 0.4-4.4 1.3-0.7 0.2-1.2 0.4-1.2 0.4-0.1 0 0-0.1 0.1-0.3 0.3-0.5 0.7-1.5 0.8-1.9 0.3-0.8 0.4-1.2 0.4-2 0-0.8-0.1-0.9-0.1-1.2-0.4-1.3-1.3-2-2.9-2.2-1.1-0.2-2.7 0.1-4 0.8-1.5 0.7-2.8 1.8-5.4 4.4l-1.1 1v-0.3c0.1-0.2 0.1-0.4 0.4-1.3q0.5-1.6 0.4-3.1c0-1-0.2-1.5-0.6-2.2-0.6-0.9-1.8-1.4-3.1-1.3z"/><path class="a" d="m48 34.6c-1.1 0.1-2.3 0.5-3.2 1-1.3 0.7-3.8 2.6-5.5 3.9-1.3 1-1.9 1.5-2.9 2-0.8 0.4-1.5 0.6-2.6 0.9-0.8 0.3-1.3 0.5-1.9 0.8-1.8 0.9-3.1 2.5-3.7 4.6-0.3 1.1-0.5 2.9-0.3 4q0.2 2.1 1.5 3.7c0.4 0.5 0.7 0.9 1 1.4 0.6 1 0.8 1.2 1.3 1.7 0.8 0.9 1.5 1.3 2.8 1.7 1.2 0.4 1.6 0.5 3.3 1.4 1 0.6 1.6 0.7 2.4 0.7 0.5 0 0.9-0.1 1.4-0.5l0.4-0.2 0.8 0.2c0.9 0.3 1 0.3 1 0.4 0 0 0 0.1 0 0.2-0.2 0.4-0.2 0.8-0.2 1.1 0.1 0.8 0.4 1.6 1.2 2.8 1.2 1.8 2.1 2.9 3.7 4.5 1.5 1.5 2.5 2.3 3.8 3.2 2.1 1.4 4 2.2 6.2 2.5 0.4 0 0.8 0 1.6 0 1.1 0 1.5 0 2.5-0.2 0.5-0.1 0.8-0.1 1 0.1 0.2 0.1 1.4 1.2 2.3 2.1 0.8 0.8 1.3 1.4 2.1 2.3 0.7 0.8 0.9 1 1.2 1.3 0.5 0.4 1.3 0.6 1.4 0.4 0 0 0-0.2 0.1-0.4 0.1-1.5-1.4-4.2-3.6-6.4l-0.4-0.4 0.2-0.2c0.2-0.1 0.3-0.3 0.4-0.4l0.2-0.2-0.2-0.2c-0.4-0.5-0.8-0.7-2-1-0.8-0.2-1.2-0.3-1.6-0.6-0.1-0.1-0.2-0.1-0.2-0.2 0 0 0.2-0.5 0.3-1.1 0.3-1.9 0.5-2.4 1.2-3.5 0.2-0.2 0.4-0.7 0.7-1q0.9-1.6 2.2-3.1c0.6-0.5 1.1-1 2.4-2 2.5-2 2.9-2.4 3.7-3.1 1.1-1.1 2.2-2.6 2.6-3.6 0.4-1 0.5-2.2 0.4-3-0.2-0.9-0.5-1.6-1.1-2.2q-1.6-1.6-4.3-0.8c-1.3 0.4-3.1 1.7-4.4 3.2-1.4 1.5-2.4 3-3.5 5.2-1.7 3.4-2.7 6.7-3.1 10.6-0.1 0.7-0.2 1.1-0.3 1.2 0 0-0.2-0.2-0.3-0.4-1.2-1.7-1.9-3.6-2.3-6.4-0.1-0.4-0.2-0.8-0.2-0.8 0 0-0.2 0-0.5 0-0.2 0-0.4-0.1-0.4-0.1-0.1 0-0.1-2.4-0.3-8.7 0-2 0-2.9 0.2-4.1 0.2-0.9 0.5-1.8 1.1-2.6 0.7-1.1 1.1-1.2 1.6-0.4 0.5 0.8 0.6 1.3 0.6 3 0 1.5-0.1 2.2-0.4 3.6-0.5 2.3-0.8 4.6-0.9 7.4 0 0.6-0.1 1.3-0.2 1.6-0.1 0.6-0.1 1.6 0 2.3 0.1 0.7 0.3 1.7 0.4 2 0.1 0.2 0.4 0.7 0.5 1l0.2 0.2 0.1-0.2c0.3-0.4 0.6-1 0.7-1.6 0.1-0.1 0.1-0.4 0.1-0.6 0.1-0.4 1-6.5 1.7-11.2 0.5-3.2 0.5-3.3 0.5-4.3 0-1.3-0.2-2.5-0.6-3.7-0.2-0.5-0.3-0.8-0.6-1.1-0.4-0.6-1.2-1.1-1.9-1.3-0.3-0.1-1-0.1-1.4 0-0.1 0-0.5 0.1-0.8 0.2-0.3 0.1-0.6 0.2-0.6 0.2-0.1 0-0.2-0.8-0.3-1.6-0.1-2-1.1-3.7-2.9-5.4-0.6-0.6-1-0.8-1.5-1.1-0.7-0.4-1.4-0.6-2.5-0.7-0.6-0.1-0.9-0.1-1.4 0zm1.6 2.4c0.5 0.1 0.9 0.3 1.5 0.8 1.6 1.2 2.5 2.6 2.6 4 0 0.1 0.1 0.3 0.1 0.3 0 0.1-0.1 0.2-0.9 0.9-1.4 1.1-1.7 1.5-2.1 2.2-0.3 0.4-0.4 0.8-0.8 2-0.2 0.6-0.4 1-0.4 1 0 0.1-1.5-0.2-1.5-0.2-0.1-0.1-0.1-0.1 0.1-0.5 0.1-0.2 0.4-0.5 0.6-0.8 1.3-1.5 1.6-2.2 1.5-3.4 0-0.6-0.1-1-0.3-1.5-0.4-0.9-1-1.5-1.9-2-0.9-0.5-1.7-0.7-2.6-0.7-0.6 0-0.9 0.1-1.9 0.3-0.4 0.1-0.7 0.1-0.7 0.1-0.1 0 1.1-0.9 1.5-1.2 1.2-0.8 2.2-1.2 3.4-1.4 0.3 0 1.4 0 1.8 0.1zm-4.1 4.9c0.5 0.1 0.7 0.1 1.1 0.3 0.7 0.4 1 1 0.8 1.6-0.2 0.5-0.4 0.8-1.9 3-0.5 0.6-0.9 1.2-1 1.3-0.2 0.3-0.7 0.8-1 0.9-0.7 0.5-1.5 0.6-2.5 0.5-0.7-0.1-1.8-0.3-1.8-0.4 0 0 0.1 0 0.2-0.1 0.5 0 1.4-0.3 1.9-0.5 1.1-0.4 1.9-1 2.5-1.8 0.3-0.5 0.9-1.6 1.1-2.2 0.1-0.4 0.1-0.5 0.1-0.9 0-0.2 0-0.6 0-0.7 0-0.3 0-0.3-0.4-0.2-0.5 0.1-0.8 0.4-1.4 1.2-1.1 1.4-1.9 2-2.9 2.3-0.4 0.1-1.4 0.3-1.4 0.3 0 0 0-0.2 0.1-0.3 0.2-0.2 0.7-0.7 1.9-1.9 0.8-0.9 1.7-1.7 1.8-1.8 0.8-0.5 1.8-0.8 2.8-0.6zm-6.9 1c0.1 0.1 0.1 0.1-0.2 0.4-0.9 0.8-1.7 1.6-2 2.1-0.3 0.5-0.4 1.2-0.2 1.7q0.2 1 1.4 1.7l0.3 0.2-0.8 0.1c-1.6 0.3-1.8 0.4-2.5 0.4-0.7 0-1.1 0-1.4-0.2-0.6-0.3-0.9-0.7-0.7-1.3 0.1-0.8 0.8-1.7 1.8-2.6 0.9-0.8 1.7-1.3 2.8-1.9 0.3-0.2 1.3-0.7 1.4-0.7q0.1 0 0.1 0.1zm16.1 2.4c0 0.5-0.1 0.9-0.4 1.8-0.1 0.5-0.3 1-0.3 1.2-0.1 0.1-0.1 0.6-0.1 1.2-0.1 0.5-0.1 1.4-0.2 2-0.1 1.3 0 1.3-0.4 0.6-0.9-1.4-1.2-2.5-1.1-3.6 0.1-1 0.4-1.9 0.9-2.5 0.2-0.2 0.7-0.6 0.9-0.8 0.3-0.1 0.7-0.2 0.7-0.2 0 0 0.1 0.1 0 0.3zm-24.2 2.3c0 0.1 0 0.4 0 0.6 0.1 0.6 0.2 1 0.4 1.5 0.4 0.8 1 1.3 1.9 1.5 0.4 0.1 0.4 0.1 1.7 0.1 0.7 0 1.9 0 2.5 0 1.4 0 1.8 0 2.7 0.2 1 0.2 1.5 0.3 2.2 0.3 0.6 0 0.7 0 1.1 0 0.3-0.1 0.6-0.2 0.8-0.2l0.3-0.1v1.6 1.7l-0.2-0.1c-0.1 0-0.5-0.2-1-0.4-2-1-2.6-1.1-3.8-1-1.1 0-1.9 0.3-2.9 0.9q-1.7 1.1-2.1 2.7v0.3l-0.2-0.1c-0.1 0-0.3-0.2-1-1.1-2.5-3.3-2.9-4.1-2.9-6.2 0-0.5 0.1-0.9 0.1-1.3q0.2-1.1 0.3-1.1c0 0 0.1 0.1 0.1 0.2zm17.5 2.1c0.7 0.4 1.2 0.7 1.6 1.1 0.4 0.4 0.5 0.6 1 1.4 0.1 0.3 0.4 0.7 0.5 0.9 0.3 0.5 1.1 1.7 1.2 1.9 0.3 0.3 0.6 0.3 1.1 0 0.1-0.1 0.3-0.2 0.3-0.2 0 0 0 0.2 0 0.5 0 0.3 0 0.5-0.1 0.7-0.1 0.6-1.3 3.8-1.5 4.2q-0.3 0.7-0.9 0.8c-0.3 0-0.4 0-0.4-0.2-0.1-0.3-0.4-1.6-0.5-1.9-0.5-1.4-1.6-2.6-3.1-3.2-0.4-0.2-0.6-0.3-0.8-0.4q-0.4-0.4-0.4-1.1c0-0.8 0.3-2.2 0.6-2.9 0.2-0.6 0.8-1.8 0.8-1.8 0.1 0 0.3 0.1 0.6 0.2zm25.5 2.2c0.2 0 0.3 0.1 0.4 0.2 0.4 0.5 0.3 1.1-0.3 2.2-0.4 0.9-0.8 1.5-1.4 2.1-0.4 0.5-1.5 1.4-2.8 2.5-1.8 1.4-2.4 1.9-2.9 2.4-0.7 0.8-1.7 2-2.4 2.8-0.2 0.2-0.3 0.4-0.3 0.3 0 0 0.2-0.7 0.3-1.2 0.2-0.7 0.4-1.2 1.3-3.1 1-2.3 1.7-3.4 3-4.9 0.5-0.6 1.6-1.7 2-2 0.7-0.6 1.9-1.3 2.3-1.4 0.2-0.1 0.6 0 0.8 0.1zm-33.7 3.7c0.5 0.1 0.6 0.1 1.4 0.5 1.1 0.5 1.9 0.8 3.4 1.2 0.7 0.3 1.4 0.5 1.5 0.6 0.7 0.3 1.2 0.8 1.6 1.2 0.1 0.3 0.2 0.4 0.6 1.4q0.4 0.7 1 1.4c0.4 0.4 0.8 0.7 1.2 0.8 0.3 0.1 0.4 0.1 0.8 0.1 0.5 0 0.6 0 0.8-0.1 0.6-0.2 1-0.5 1.5-1.2 0.2-0.1 0.3-0.2 0.3-0.2 0 0 0.1 0.3 0.2 0.6 0.6 1.6 1 2.7 1.1 2.9 0 0.1 0.2 0.4 0.4 0.7 0.5 0.8 0.7 1.3 0.7 1.8v0.2l-0.5-0.4c-0.3-0.2-0.9-0.6-1.4-0.9-3.1-2.3-4.6-3.3-6.3-4.1-1.2-0.6-2.1-0.7-3.3-0.6-0.6 0.1-0.9 0.1-1.9-0.2-0.3-0.1-0.7-0.2-0.8-0.3-0.1 0-0.3-0.1-0.3-0.1-0.1-0.2-0.2-0.2-0.5-0.3-0.8-0.1-1.6-0.5-2.7-1.1-1.2-0.8-1.7-1.1-2.3-1.3-0.3-0.1-0.4-0.2-0.4-0.2-0.1 0-0.1-0.4-0.1-0.5 0.1-0.5 0.3-0.8 1-1.2 1-0.7 2-0.9 3-0.7zm7.8 9.3c2.2 1.4 5 3.3 7.7 5.4 1.3 1 5.5 4.4 5.5 4.5 0 0-1.3-0.3-2.1-0.5-4.5-1.3-8.1-4.2-11.6-9.3-0.2-0.3-0.4-0.6-0.4-0.6q0 0 0.1 0.1c0.1 0 0.4 0.2 0.8 0.4z"/><path class="a" d="m82.9 78c-0.6 0.4-0.9 0.7-1 1-0.3 0.4-0.2 0.7 0.1 0.9 0.3 0.1 0.6 0.2 0.9 0.1 0.4-0.1 1-0.4 1.1-0.7 0.1-0.1 0.1-0.2 0.1-0.4 0-0.4 0-0.5-0.5-0.9-0.1-0.1-0.3-0.2-0.3-0.2 0 0-0.2 0.1-0.4 0.2z"/><path class="a" d="m75 82.9c-0.2 0-0.6 0.1-0.9 0.2q-2.4 0.7-4.1 2.5c-0.6 0.7-0.8 1.1-0.7 1.5 0 0.2 0.1 0.3 0.3 0.5 0.2 0.2 0.3 0.3 0.7 0.3 0.3 0 0.6-0.1 1.2-0.5 1.1-0.6 2.1-0.9 4.1-1.3 0.6-0.1 1-0.2 1-0.2 0 0 0.1-0.3 0.1-0.7 0.1-0.6 0.1-0.7 0.1-1-0.2-0.9-0.8-1.4-1.8-1.3z"/><path class="a" d="m73.7 89.2c-0.1 0.1-0.4 0.3-0.5 0.5-0.1 0.2-0.1 0.2-0.1 0.6 0 0.6 0 0.7 0.4 1.7 0.5 1.2 0.7 2 0.8 3.1 0.1 0.4 0.1 0.8 0.1 2.7 0 1.3 0 2.3 0 2.3-0.1 0.1-0.1 3.9 0 5 0 0.4 0 0.9 0.1 1.1 0.1 0.8 0.5 1.6 1.1 2.3 0.2 0.3 1.1 1.1 1.3 1.2 0.4 0.2 0.9 0 1-0.5 0.1-0.2 0-0.4-0.2-1-0.4-1.4-0.7-2.7-0.8-4.2 0-1 0.1-3.6 0.2-5.4 0.2-1.4 0.1-2.8-0.1-4-0.2-1.1-0.7-2.5-1-3.2-0.5-0.8-1.3-1.9-1.6-2.1-0.2 0-0.6-0.1-0.7-0.1z"/></svg>