<svg xmlns="http://www.w3.org/2000/svg" xmlns:xlink="http://www.w3.org/1999/xlink" version="1.0" viewBox="0 0 6250 6250" style="fill: #c2c9a8;" original_string_length="22775" width="181.58516055985157px" height="181.58516055985157px"><g><path d="M38100 54814 c-307 -56 -623 -220 -1074 -559 -241 -181 -388 -322 -587 -565 -319 -390 -474 -680 -599 -1121 -59 -208 -74 -323 -67 -514 9 -234 34 -543 53 -631 56 -273 201 -465 419 -557 104 -44 191 -55 440 -59 l230 -3 120 37 c316 97 520 185 673 291 143 98 208 197 282 422 23 72 111 319 195 550 84 231 172 481 195 555 23 74 70 223 105 330 124 382 146 493 146 725 l0 160 34 56 c55 89 59 125 29 265 -14 65 -41 199 -59 296 -19 98 -41 194 -51 213 -24 52 -61 73 -166 94 -139 28 -221 32 -318 15z" transform="translate(0.000000,6250.000000) scale(0.100000,-0.100000)" style="fill: inherit;"/><path d="M28125 52519 c-155 -14 -357 -38 -495 -59 -69 -10 -215 -33 -325 -49 -110 -17 -321 -44 -470 -61 -437 -49 -792 -97 -1260 -171 -800 -125 -987 -177 -1345 -368 -91 -49 -253 -133 -360 -186 -309 -156 -477 -281 -766 -569 -304 -306 -742 -842 -1003 -1231 -245 -364 -363 -580 -584 -1065 -96 -212 -119 -283 -151 -465 -84 -491 -90 -762 -27 -1465 16 -184 35 -396 41 -470 37 -454 106 -820 208 -1106 22 -60 75 -188 120 -284 44 -96 124 -274 177 -395 161 -367 298 -610 434 -769 35 -41 56 -77 67 -115 23 -82 82 -218 122 -281 19 -30 61 -85 94 -122 50 -57 67 -87 119 -215 106 -261 258 -547 396 -742 179 -254 554 -678 993 -1125 367 -372 588 -568 1005 -890 400 -308 650 -460 886 -536 115 -38 112 -36 276 -172 198 -163 273 -213 473 -313 194 -97 269 -143 899 -550 211 -136 409 -259 439 -272 62 -29 159 -40 213 -25 l36 10 28 -57 c60 -124 174 -252 288 -325 32 -20 121 -64 198 -97 158 -67 200 -91 279 -159 92 -78 232 -167 475 -300 261 -143 247 -134 417 -253 122 -85 149 -107 131 -107 -4 0 -46 -9 -93 -20 -50 -12 -282 -38 -569 -65 -507 -47 -598 -57 -746 -80 -158 -24 -332 -44 -660 -75 -515 -48 -828 -88 -1355 -170 -258 -40 -540 -75 -845 -105 -446 -44 -688 -74 -2020 -255 -284 -38 -715 -95 -958 -125 -562 -71 -1016 -139 -1997 -299 -151 -25 -373 -61 -493 -81 -121 -19 -395 -63 -610 -96 -215 -33 -427 -69 -471 -80 -403 -103 -725 -311 -951 -614 -226 -301 -347 -713 -332 -1129 6 -170 18 -228 77 -354 l39 -83 16 -262 c8 -144 19 -395 25 -557 28 -802 87 -1264 251 -1975 138 -595 161 -748 254 -1693 31 -319 34 -372 28 -546 l-6 -193 68 -114 c77 -129 165 -262 237 -361 44 -60 59 -72 131 -107 45 -22 120 -55 167 -74 47 -19 117 -48 157 -65 120 -51 236 -63 387 -42 52 8 125 6 310 -10 287 -23 789 -66 936 -80 58 -6 114 -10 126 -10 15 0 26 -14 45 -57 35 -84 36 -225 3 -721 -25 -394 -26 -434 -17 -732 9 -275 13 -323 32 -380 27 -86 26 -135 -5 -236 -26 -83 -26 -87 -15 -212 17 -193 48 -720 76 -1287 33 -666 41 -769 71 -960 30 -191 40 -353 49 -780 14 -761 31 -1003 155 -2200 27 -264 72 -725 100 -1025 67 -718 100 -1053 161 -1590 90 -806 155 -1357 383 -3255 109 -903 126 -1087 166 -1785 15 -267 27 -400 45 -495 13 -71 26 -172 30 -222 15 -230 93 -386 249 -498 33 -24 77 -60 96 -80 l35 -36 0 -102 1 -102 65 -155 c37 -85 77 -186 89 -225 70 -217 228 -386 408 -434 23 -7 113 -16 200 -21 188 -11 281 -29 421 -81 58 -22 169 -53 246 -70 77 -16 176 -42 220 -56 156 -52 262 -33 361 61 l49 47 15 -23 c29 -45 67 -76 110 -89 52 -16 116 -4 340 64 80 24 235 70 345 102 188 55 204 61 270 111 40 29 91 58 117 65 53 14 1257 -1 2003 -26 242 -8 575 -19 740 -25 982 -33 2802 -56 3100 -39 161 9 292 10 570 1 467 -15 1604 -26 2395 -23 457 2 717 -2 970 -14 487 -23 1758 -32 2080 -15 269 14 895 3 1450 -25 162 -9 567 -17 940 -19 487 -3 750 -10 1025 -25 432 -24 841 -37 1635 -51 540 -9 767 -18 1090 -40 90 -7 200 -6 330 1 141 8 286 8 520 0 179 -6 469 -16 645 -21 176 -5 408 -17 515 -26 362 -30 1491 -15 1658 22 87 19 116 36 202 119 43 42 115 97 169 129 126 75 245 162 287 208 48 53 49 99 3 197 -16 35 -29 73 -29 85 0 43 -40 208 -66 274 -42 105 -108 210 -205 322 -98 114 -125 160 -141 247 -9 51 -7 76 20 213 17 85 40 232 52 325 12 94 35 232 51 308 16 75 42 199 58 275 36 166 48 272 61 507 5 99 21 270 35 379 13 110 32 301 40 425 15 217 49 606 61 683 6 41 5 41 -79 53 -47 6 -49 8 -42 33 13 56 53 100 115 129 l60 28 0 484 0 484 -35 38 c-61 67 -59 128 5 206 73 88 111 150 125 204 14 54 45 435 45 554 0 41 -9 86 -26 136 -37 103 -38 179 -2 239 15 25 40 57 57 73 23 21 31 39 36 81 8 59 11 289 5 376 -2 44 3 66 23 110 30 63 33 98 12 140 -11 20 -12 36 -5 57 22 68 162 1021 190 1294 6 58 15 202 20 320 5 118 14 243 20 279 14 95 12 238 -5 303 -22 84 -51 134 -116 203 l-59 61 95 18 c112 21 96 -17 126 300 14 157 21 312 23 540 2 292 5 330 26 428 25 117 24 127 -21 348 -16 78 -6 119 42 169 l41 42 -6 62 c-19 184 -18 249 8 411 14 88 31 203 36 255 16 153 23 622 12 785 -6 90 -6 186 -1 240 4 50 11 153 15 230 6 124 4 150 -14 223 l-21 84 24 49 c39 77 54 160 60 349 4 96 16 263 27 370 23 231 36 772 27 1165 -6 249 -8 267 -42 425 -58 269 -69 421 -42 585 26 161 15 229 -62 384 -45 90 -46 94 -30 120 8 14 27 35 42 46 24 18 39 20 181 17 157 -3 253 4 474 38 69 10 168 21 220 25 285 19 433 121 476 326 19 89 14 146 -27 321 -64 274 -75 466 -38 638 80 373 78 355 119 975 65 995 97 1638 110 2224 13 581 -2 1479 -30 1861 -30 409 -34 653 -21 1185 6 264 16 811 21 1215 10 678 12 742 31 830 52 247 26 456 -87 697 -64 135 -136 205 -245 238 -99 31 -133 50 -238 133 -125 100 -165 124 -267 161 -109 40 -215 55 -327 47 -50 -3 -207 -13 -347 -21 -315 -19 -421 -29 -485 -50 -241 -77 -514 -118 -1018 -155 -150 -11 -351 -29 -447 -40 -178 -19 -451 -41 -775 -60 -341 -20 -698 -55 -1050 -101 l-230 -30 -91 -48 c-88 -48 -91 -48 -125 -34 -47 20 -160 27 -244 15 -38 -6 -164 -27 -280 -47 -298 -51 -371 -57 -565 -44 -197 14 -324 6 -705 -45 -143 -19 -336 -42 -430 -50 -161 -15 -272 -31 -375 -55 -55 -12 -318 -58 -413 -71 -46 -7 -98 -7 -161 1 -124 14 -257 0 -463 -50 -197 -48 -257 -56 -330 -41 -65 13 -154 52 -173 75 -11 13 44 73 356 388 671 676 839 856 932 997 76 116 125 178 347 445 184 221 196 238 294 420 57 105 131 228 165 275 105 144 121 176 147 314 11 58 15 64 128 179 64 65 188 186 276 268 280 260 431 442 540 652 49 93 70 121 158 210 221 221 326 409 357 638 15 107 29 139 91 206 83 92 142 230 174 408 9 50 23 113 31 140 17 60 101 280 178 465 44 106 59 158 71 240 18 118 30 159 108 350 46 112 62 170 96 340 113 574 181 972 181 1069 0 78 -24 180 -57 244 -21 42 -19 100 6 140 26 42 26 68 3 138 -24 69 -38 149 -58 323 -19 171 -50 275 -109 361 -28 40 -45 76 -45 94 0 33 -58 204 -101 301 -126 276 -444 597 -1094 1100 -88 68 -239 187 -335 264 -295 236 -502 362 -713 435 -103 36 -364 91 -592 126 -492 75 -1053 54 -1820 -66 -323 -50 -368 -65 -690 -219 -230 -110 -315 -147 -503 -216 -266 -97 -382 -165 -665 -388 -266 -210 -316 -256 -756 -706 -741 -758 -781 -802 -911 -995 -84 -125 -143 -201 -225 -285 -171 -178 -243 -278 -537 -746 -79 -126 -188 -287 -242 -359 -55 -71 -110 -147 -123 -169 -14 -21 -117 -237 -229 -480 -182 -391 -279 -576 -304 -576 -15 0 -98 184 -134 295 -19 61 -49 165 -66 232 -43 174 -72 261 -162 493 -44 113 -114 306 -154 429 -53 161 -90 255 -131 330 -130 241 -166 332 -268 681 -120 409 -294 844 -422 1053 -36 60 -105 193 -153 295 -182 389 -316 609 -801 1312 -205 296 -264 374 -420 550 -100 113 -198 235 -220 273 -21 37 -57 98 -78 135 -27 46 -99 131 -219 258 -303 318 -503 490 -744 639 -139 86 -277 189 -470 351 -220 185 -334 256 -495 310 -109 36 -168 70 -199 116 -33 48 -51 57 -209 113 -68 24 -161 64 -207 89 -245 132 -521 206 -1024 277 -170 24 -465 33 -619 18z m-1092 -2235 c90 -20 238 -89 325 -151 36 -25 122 -94 191 -151 143 -120 191 -152 311 -210 115 -55 175 -101 370 -283 91 -85 258 -236 370 -335 237 -209 403 -377 515 -519 43 -55 167 -190 275 -300 206 -211 277 -303 363 -470 26 -49 72 -121 103 -160 109 -135 152 -206 294 -475 54 -102 146 -271 206 -375 117 -206 293 -562 342 -690 17 -44 42 -125 57 -180 51 -187 120 -350 632 -1480 395 -870 573 -1290 645 -1515 27 -85 100 -312 164 -505 130 -399 148 -462 289 -1045 57 -234 133 -528 168 -655 35 -126 88 -329 117 -450 28 -121 74 -310 102 -420 42 -170 51 -222 58 -345 8 -142 55 -406 175 -989 37 -178 40 -189 83 -253 22 -35 24 -46 23 -145 -2 -106 -1 -111 50 -253 107 -305 111 -319 112 -408 0 -46 -4 -87 -9 -92 -5 -5 -107 174 -243 426 -128 239 -237 437 -242 440 -5 3 -47 -5 -94 -17 -47 -12 -88 -19 -91 -17 -2 3 3 22 12 44 21 50 15 127 -15 184 -21 42 -246 340 -500 665 -69 88 -191 228 -271 310 -80 83 -183 196 -228 251 -149 186 -298 332 -577 564 -108 90 -438 331 -521 380 -25 15 -66 57 -101 105 -109 146 -230 250 -620 532 -55 39 -137 101 -182 137 -46 36 -87 66 -92 66 -6 0 -46 14 -90 32 -71 28 -83 36 -101 72 -49 97 -71 114 -568 456 -487 335 -569 400 -835 660 -104 102 -255 245 -335 316 -241 218 -277 256 -607 652 -92 110 -148 221 -164 322 -15 103 -36 157 -67 178 -54 36 -139 129 -165 182 -15 30 -47 111 -71 180 -59 167 -84 217 -166 333 -77 110 -163 279 -270 532 -123 288 -212 454 -320 597 -75 100 -180 293 -236 439 -45 116 -204 566 -250 709 -19 58 -55 188 -80 290 -25 102 -67 275 -94 386 -60 240 -61 276 -21 516 17 95 39 259 51 363 31 275 61 387 152 569 62 123 80 152 193 301 103 136 108 143 200 315 78 147 119 199 189 245 98 66 146 76 396 86 184 7 243 13 325 34 139 34 131 33 218 34 43 0 110 -6 150 -15z m13995 -2593 c44 -24 300 -263 444 -416 291 -309 472 -605 558 -911 32 -111 107 -471 126 -596 31 -209 9 -401 -130 -1158 -78 -420 -109 -552 -174 -725 -33 -88 -74 -214 -90 -280 -41 -161 -151 -476 -294 -838 -108 -273 -246 -467 -580 -812 -213 -222 -325 -348 -474 -535 -192 -242 -239 -315 -343 -537 -230 -491 -466 -834 -830 -1207 -167 -170 -325 -308 -666 -581 -132 -106 -384 -318 -560 -470 -345 -300 -571 -475 -745 -580 -134 -81 -402 -211 -604 -295 -276 -113 -320 -124 -573 -135 l-152 -7 24 89 c13 48 53 148 89 222 76 157 91 215 81 322 l-6 78 58 111 58 112 8 361 c4 199 8 385 9 412 1 28 -4 88 -11 135 -24 162 5 346 106 669 49 159 55 187 60 295 l6 118 47 47 c61 61 94 133 137 299 41 161 43 166 99 214 88 79 158 220 279 571 67 192 115 298 181 399 l48 73 -3 86 c-3 116 18 169 115 289 95 119 112 151 130 257 22 124 46 179 141 321 98 145 119 189 210 432 78 210 77 207 268 540 259 452 397 676 564 920 146 212 206 304 434 665 139 220 324 452 587 738 313 340 344 377 541 632 107 139 189 227 310 331 118 101 148 151 132 220 l-10 44 41 10 c94 23 124 33 181 61 70 34 121 37 173 10z m8562 -10841 c30 -6 55 -11 56 -13 1 -1 -11 -202 -27 -447 -25 -364 -29 -480 -24 -635 5 -128 3 -211 -5 -253 -48 -263 -61 -602 -36 -952 9 -129 21 -361 26 -515 6 -154 17 -395 25 -535 24 -431 27 -570 16 -710 -6 -74 -16 -211 -21 -305 -17 -275 -29 -404 -65 -690 -19 -148 -41 -342 -50 -430 -8 -88 -24 -231 -35 -317 -11 -86 -25 -226 -30 -309 -15 -231 -45 -273 -228 -318 -48 -12 -242 -64 -432 -116 -614 -166 -682 -184 -860 -219 -443 -89 -906 -116 -1290 -75 -70 7 -218 9 -440 4 -206 -4 -449 -2 -630 6 -162 6 -545 13 -850 14 -485 2 -578 5 -740 24 -257 29 -440 39 -920 50 -1109 27 -2167 22 -2560 -13 -467 -42 -703 -59 -1165 -86 -1250 -73 -1241 -73 -1375 -60 -69 6 -125 12 -126 13 -4 6 -34 247 -40 322 -8 106 -19 130 -94 210 -68 72 -90 107 -69 114 8 2 31 21 52 41 43 44 47 73 17 139 -16 35 -19 56 -14 105 5 52 0 82 -35 204 -23 78 -41 155 -41 170 0 15 11 90 25 167 43 245 51 376 37 632 -17 300 -26 383 -58 520 l-26 115 18 62 c29 93 25 271 -10 461 -30 163 -140 638 -180 776 -98 337 -283 649 -517 874 -106 102 -152 133 -295 202 -62 30 -114 58 -114 61 0 13 65 182 70 182 3 0 16 -25 28 -55 39 -88 40 -89 92 -69 36 13 102 18 330 24 312 9 326 10 967 105 676 99 938 141 1076 175 148 35 271 39 350 11 47 -16 58 -15 410 21 571 59 760 76 943 87 215 14 286 26 614 107 280 69 1045 223 1233 249 62 8 252 29 422 45 1264 123 1734 184 2120 275 61 14 184 32 275 40 155 15 222 24 445 61 169 28 359 37 490 24 106 -11 131 -10 200 4 44 10 150 21 235 26 439 26 523 36 1055 116 969 146 1141 177 1334 239 58 19 124 39 146 44 55 12 231 13 295 1z m-14371 -1870 c52 -6 96 -12 98 -14 2 -1 -9 -29 -23 -62 -74 -167 -96 -400 -92 -969 4 -601 1 -884 -17 -1270 -14 -312 -40 -1923 -35 -2225 2 -180 53 -368 135 -504 19 -32 35 -60 35 -62 0 -2 -263 -4 -585 -4 l-586 0 8 53 c4 28 8 100 8 158 0 98 -2 108 -27 147 -15 22 -68 73 -117 112 -111 89 -232 225 -273 308 -30 61 -31 65 -25 162 l6 100 -40 77 c-46 91 -59 162 -59 333 0 63 -7 151 -15 195 -9 44 -22 186 -30 316 -16 250 -29 338 -68 459 -24 72 -25 90 -31 435 -11 565 -27 768 -86 1063 -25 123 -30 176 -30 289 0 76 -9 224 -20 328 -11 105 -23 220 -26 256 l-7 65 74 21 c98 28 174 40 349 53 277 21 432 54 537 116 l44 25 115 -22 115 -23 182 47 c200 50 290 57 486 37z m-3195 -254 c40 -23 42 -23 104 -8 l63 15 45 -44 c81 -79 89 -108 89 -309 0 -98 -8 -248 -18 -340 -23 -210 -24 -285 -9 -905 25 -1078 30 -1264 36 -1316 3 -30 13 -119 22 -199 27 -253 124 -893 145 -959 29 -92 60 -148 129 -235 80 -101 174 -173 477 -368 139 -90 253 -168 253 -174 0 -16 -41 -51 -74 -64 -21 -8 -162 -2 -580 25 -1193 75 -1728 94 -2146 74 -365 -18 -447 -17 -605 4 -71 10 -308 27 -525 38 -271 13 -467 29 -625 49 -212 27 -535 60 -732 75 -51 4 -135 0 -230 -11 -185 -21 -523 -15 -820 15 -520 52 -819 49 -2048 -19 -802 -45 -1300 -62 -2065 -70 -815 -9 -844 -11 -1605 -75 -308 -27 -477 -47 -957 -115 -152 -22 -283 -40 -291 -40 -11 0 -15 35 -20 193 -19 559 -110 1056 -341 1858 -122 423 -172 611 -200 751 -26 127 -88 543 -127 846 -35 280 -27 290 231 276 279 -16 442 -7 1615 86 894 71 1135 87 1480 100 274 10 363 18 563 50 140 23 187 24 280 9 56 -9 132 -6 452 20 346 28 612 48 1290 96 682 49 768 56 1229 110 74 9 245 20 380 25 171 6 315 18 471 39 124 16 347 46 495 66 208 28 329 38 525 45 242 9 1126 81 1405 116 72 8 189 26 262 40 105 19 166 24 295 24 151 0 517 36 1138 110 94 12 139 25 280 80 53 21 107 40 120 43 42 9 100 -2 144 -27z m15825 -7049 c36 -7 66 -18 68 -24 2 -6 -12 -132 -31 -280 -53 -401 -64 -505 -81 -773 -25 -396 -103 -1064 -229 -1950 -110 -770 -110 -767 -191 -1900 -41 -576 -48 -638 -80 -798 -50 -246 -73 -442 -85 -717 -6 -132 -22 -337 -35 -455 -31 -278 -32 -284 -55 -755 -32 -635 -52 -815 -131 -1202 -43 -214 -163 -880 -193 -1073 -28 -185 -41 -339 -56 -710 -37 -901 -64 -1115 -234 -1845 -108 -465 -137 -650 -216 -1359 -57 -510 -58 -515 -186 -1186 -52 -272 -117 -617 -143 -766 -27 -149 -56 -287 -66 -307 -9 -20 -34 -47 -54 -59 -34 -22 -49 -23 -326 -30 -772 -18 -1905 -30 -3745 -38 -1108 -5 -2202 -15 -2430 -21 -228 -7 -696 -12 -1040 -10 -832 3 -774 3 -1832 -4 -511 -3 -928 -4 -928 -2 0 14 51 130 72 162 30 47 89 102 125 116 13 5 44 9 68 9 40 0 46 3 80 49 48 67 101 170 119 234 9 29 22 106 31 172 8 66 40 223 71 349 67 275 66 260 29 821 -53 815 -59 878 -120 1315 -24 173 -49 371 -55 440 -10 112 -15 130 -45 185 -56 100 -59 138 -52 720 7 525 3 651 -29 870 -13 89 -14 143 -7 275 16 316 -43 1417 -102 1893 -25 204 -28 250 -45 717 -6 151 -22 455 -35 675 -14 220 -29 499 -35 620 -10 230 -25 336 -66 466 -24 77 -24 79 -8 150 15 66 15 85 0 263 -10 105 -24 252 -32 326 -9 74 -19 205 -23 290 -9 162 -21 212 -63 257 -21 23 -21 24 -5 96 29 126 38 206 38 348 0 162 -11 255 -53 468 -28 146 -31 177 -39 486 -10 430 -25 518 -105 651 -83 137 -94 191 -52 264 l23 38 -25 44 c-24 41 -25 50 -25 223 0 165 -3 189 -28 285 -40 151 -155 545 -178 610 -11 30 -26 84 -35 120 -53 213 -231 386 -435 420 -131 22 -227 -3 -286 -74 -32 -40 -142 -312 -172 -431 -34 -129 -44 -244 -32 -354 13 -108 8 -150 -38 -336 -45 -179 -174 -1179 -216 -1660 -8 -99 -24 -335 -35 -525 -11 -190 -27 -444 -35 -565 -9 -121 -22 -375 -30 -565 -18 -419 -25 -515 -75 -975 -57 -520 -67 -658 -90 -1165 -30 -672 -45 -889 -89 -1282 -42 -366 -63 -707 -86 -1393 -8 -247 -20 -540 -27 -650 -15 -239 -14 -846 1 -1070 7 -88 21 -238 31 -333 54 -473 47 -833 -25 -1347 -47 -337 -44 -632 11 -1045 33 -245 35 -253 88 -289 75 -52 98 -90 170 -281 37 -97 70 -163 118 -235 58 -89 84 -115 220 -231 84 -71 198 -164 253 -205 285 -215 561 -329 794 -329 74 0 215 32 273 61 40 20 65 23 86 10 20 -12 -12 -83 -48 -104 -16 -10 -76 -23 -142 -32 -62 -7 -131 -16 -153 -19 -22 -3 -596 -10 -1275 -16 -935 -7 -1298 -13 -1495 -25 -304 -19 -1108 -32 -2920 -45 -704 -6 -1435 -13 -1624 -16 l-344 -6 8 64 c23 201 23 213 3 373 -26 217 -59 376 -109 525 -38 112 -43 137 -47 246 -2 66 0 179 6 250 15 177 2 304 -49 501 -23 87 -57 217 -76 288 -30 115 -35 152 -42 315 -8 180 -9 187 -45 279 -46 119 -60 214 -52 361 8 140 -7 263 -40 347 -24 60 -25 67 -13 138 17 105 1 198 -47 275 -71 115 -81 220 -39 386 14 54 25 99 25 100 0 1 -25 18 -56 38 -53 36 -56 39 -49 69 52 241 48 387 -19 717 -39 191 -50 287 -71 650 -20 346 -32 423 -111 744 l-67 270 14 125 c36 325 8 548 -107 839 -43 108 -46 120 -40 181 25 260 19 356 -34 636 -39 203 -47 267 -70 575 -38 488 -39 496 -92 574 -65 96 -68 105 -68 201 -1 248 -61 374 -217 454 l-58 29 50 22 c28 12 60 26 72 31 18 6 22 14 18 36 -3 15 -12 102 -20 193 -26 266 -39 337 -110 570 -53 173 -141 539 -160 665 -7 50 -20 145 -29 211 -24 187 -48 250 -148 391 -27 37 -28 43 -31 193 -3 175 -10 200 -87 300 l-42 55 5 100 c8 144 -7 242 -54 358 -32 80 -41 119 -49 205 -28 303 -30 310 -194 761 -89 244 -143 415 -226 719 -96 353 -115 440 -101 475 23 58 35 59 565 56 428 -3 491 -1 576 15 52 9 107 22 121 28 22 8 46 3 123 -21 161 -52 275 -66 672 -82 305 -13 359 -6 443 52 l44 31 66 -31 c36 -16 93 -37 126 -46 75 -19 223 -19 295 0 82 22 146 19 241 -14 193 -65 498 -121 657 -121 37 0 121 7 187 15 168 21 223 19 545 -16 l285 -32 295 16 c391 22 1570 20 1610 -2 91 -51 283 -72 480 -52 85 9 150 9 250 1 298 -24 387 -24 530 -2 265 41 610 62 1055 62 171 0 306 5 395 16 113 13 278 15 1045 15 500 -1 1011 -2 1135 -3 124 -1 279 4 345 11 116 12 122 12 169 -10 71 -31 196 -24 324 20 110 37 148 38 259 10 80 -20 84 -21 205 -4 336 45 396 48 554 36 124 -9 204 -9 435 4 156 9 318 20 359 25 41 6 129 18 195 27 99 13 134 14 201 4 76 -10 84 -10 130 11 49 23 50 23 459 18 628 -7 778 -4 1210 25 220 15 519 29 665 30 301 4 441 15 621 50 162 31 309 45 489 45 219 0 467 16 855 55 193 19 427 39 520 45 370 24 1153 92 1375 120 129 16 314 34 410 40 316 18 398 28 539 67 87 24 98 25 160 14 151 -29 290 -26 701 13 83 7 220 4 279 -7z" transform="translate(0.000000,6250.000000) scale(0.100000,-0.100000)" style="fill: inherit;"/><path d="M56240 47524 c-462 -118 -598 -159 -774 -231 -258 -104 -437 -213 -791 -478 -410 -307 -678 -547 -1054 -945 -164 -173 -387 -407 -495 -520 -112 -117 -213 -231 -233 -265 -20 -33 -69 -107 -108 -165 -170 -248 -417 -668 -443 -750 -20 -66 -21 -218 -3 -305 16 -73 40 -121 78 -157 53 -50 95 -61 273 -69 148 -6 179 -4 305 17 92 16 179 24 256 24 268 0 413 55 851 322 291 177 430 267 583 378 137 99 663 489 835 620 199 150 333 245 507 361 92 62 204 140 248 173 194 147 566 507 645 625 55 82 137 254 145 306 13 77 26 104 70 139 50 41 58 62 79 201 32 206 46 365 36 416 -27 141 -97 186 -392 254 -346 80 -461 89 -618 49z" transform="translate(0.000000,6250.000000) scale(0.100000,-0.100000)" style="fill: inherit;"/><path d="M13970 43073 c-160 -16 -426 -76 -567 -129 -301 -111 -572 -329 -756 -605 -127 -192 -137 -302 -46 -498 86 -185 220 -353 495 -621 162 -159 315 -289 494 -422 236 -175 410 -276 901 -523 689 -346 999 -473 1409 -575 374 -92 633 -124 964 -118 196 4 228 7 286 27 90 31 174 83 320 198 l124 99 23 72 c47 151 46 278 -5 397 -17 39 -51 129 -77 200 -49 135 -99 240 -139 289 l-24 28 -78 -26 c-44 -14 -82 -26 -87 -26 -4 0 5 19 20 41 40 61 44 148 10 215 -37 71 -105 144 -210 223 -101 76 -136 111 -217 215 -54 69 -133 139 -170 151 -11 4 -27 21 -34 38 -30 69 -103 143 -212 217 -60 40 -156 113 -214 160 -207 171 -377 288 -800 552 -307 192 -428 260 -559 312 -114 46 -285 90 -406 105 -82 10 -362 13 -445 4z" transform="translate(0.000000,6250.000000) scale(0.100000,-0.100000)" style="fill: inherit;"/><path d="M12848 31445 c-166 -26 -394 -91 -461 -131 -90 -54 -257 -224 -293 -299 -28 -57 -29 -66 -27 -185 0 -79 16 -245 42 -447 23 -177 41 -342 41 -367 0 -57 -12 -89 -54 -137 -39 -46 -50 -81 -105 -324 -64 -288 -73 -347 -75 -520 -1 -141 -4 -165 -22 -200 -12 -22 -46 -87 -77 -145 -51 -96 -93 -208 -161 -427 -14 -45 -59 -153 -99 -240 -41 -87 -100 -221 -131 -298 -59 -145 -143 -313 -198 -394 -17 -25 -64 -88 -105 -138 -64 -79 -173 -246 -173 -264 0 -3 55 -21 121 -40 94 -26 125 -39 137 -58 15 -22 14 -24 -8 -41 -13 -10 -42 -23 -64 -30 -107 -32 -177 -85 -287 -218 -88 -106 -109 -155 -109 -249 0 -80 10 -100 152 -301 169 -240 277 -381 640 -833 183 -229 389 -497 457 -595 195 -281 287 -402 382 -499 87 -90 87 -90 158 -259 40 -93 114 -252 166 -355 51 -102 116 -249 144 -326 76 -208 109 -284 148 -343 37 -55 111 -119 147 -127 12 -2 89 -6 171 -8 130 -4 169 -9 293 -41 79 -20 160 -36 181 -36 50 0 108 18 346 107 110 41 254 90 320 109 159 46 214 73 280 135 104 98 147 212 184 479 33 239 37 256 116 479 41 114 79 238 86 275 9 54 22 83 71 156 76 116 149 262 236 480 91 227 107 261 212 471 176 350 364 645 605 949 37 47 82 118 101 159 25 54 55 95 108 151 55 57 79 92 95 135 24 65 50 281 35 294 -11 10 -181 63 -280 87 -90 23 -285 22 -419 -1 -430 -74 -866 -363 -1230 -817 -117 -146 -262 -357 -380 -553 -43 -71 -107 -176 -143 -232 l-64 -102 -48 24 c-62 32 -127 97 -236 237 -164 213 -235 281 -346 334 -27 13 -39 25 -44 48 -11 52 -69 138 -141 207 -157 151 -374 325 -524 422 -225 145 -370 211 -659 302 -102 32 -187 59 -189 61 -5 4 50 79 194 264 385 494 466 649 670 1273 53 163 101 299 105 302 4 2 59 -57 121 -133 231 -278 309 -361 390 -418 44 -31 79 -58 79 -60 0 -3 -7 -16 -16 -29 -19 -30 -27 -19 197 -255 81 -85 174 -189 207 -230 105 -133 206 -219 509 -433 236 -167 307 -209 404 -241 203 -68 452 -59 679 25 156 57 429 177 464 204 49 37 99 127 117 208 7 34 13 105 14 157 0 78 -4 101 -21 130 -22 37 -85 80 -120 80 -27 0 -40 16 -49 60 -12 58 -32 79 -119 119 -46 21 -102 56 -126 77 -47 42 -385 414 -649 713 -90 102 -236 260 -324 351 -217 223 -297 316 -380 440 -39 58 -97 130 -130 160 -69 63 -72 69 -218 434 -208 517 -386 912 -471 1042 -85 130 -183 207 -303 239 -70 18 -129 18 -247 0z" transform="translate(0.000000,6250.000000) scale(0.100000,-0.100000)" style="fill: inherit;"/><path d="M54355 28929 c-33 -11 -132 -36 -220 -55 -131 -28 -172 -42 -230 -75 -111 -63 -242 -161 -341 -253 -142 -132 -189 -236 -245 -546 -34 -187 -46 -229 -99 -344 -21 -44 -88 -214 -150 -376 -156 -412 -267 -687 -417 -1035 -312 -721 -478 -1066 -674 -1395 -159 -267 -169 -289 -169 -369 0 -166 72 -332 289 -665 75 -116 157 -242 181 -281 25 -38 110 -153 190 -255 285 -363 315 -411 499 -781 156 -314 260 -561 335 -800 43 -136 49 -149 90 -187 57 -52 94 -59 366 -67 238 -7 385 6 499 45 35 11 136 58 225 104 88 45 186 88 218 95 85 18 151 56 211 120 172 186 238 475 172 747 -19 74 -25 120 -21 148 9 55 167 527 204 608 29 63 73 126 234 326 54 68 73 103 103 185 41 112 98 212 184 321 32 39 95 121 141 181 46 61 123 154 173 208 96 106 117 144 147 263 34 132 23 234 -35 325 l-34 54 87 56 c48 30 108 79 134 107 53 59 75 117 131 343 l34 137 -89 133 c-121 180 -332 438 -575 703 -89 97 -158 204 -185 287 -20 64 -30 78 -82 123 -69 60 -91 92 -142 210 -21 49 -77 148 -124 220 -99 150 -107 169 -259 686 -157 531 -192 615 -283 678 -52 36 -108 56 -217 76 -109 21 -182 19 -256 -5z m-511 -2596 c32 -43 87 -136 123 -208 80 -160 172 -305 305 -484 127 -170 375 -476 437 -538 73 -73 180 -115 388 -154 l63 -12 -98 -67 c-102 -71 -191 -163 -537 -555 -266 -303 -269 -305 -320 -305 -38 0 -67 29 -125 125 -143 239 -294 384 -513 496 -124 63 -118 59 -400 326 -60 56 -107 106 -105 111 13 33 714 1342 719 1342 3 0 32 -35 63 -77z" transform="translate(0.000000,6250.000000) scale(0.100000,-0.100000)" style="fill: inherit;"/></g></svg>