<svg xmlns="http://www.w3.org/2000/svg" xmlns:xlink="http://www.w3.org/1999/xlink" preserveAspectRatio="xMidYMid meet" version="1.0" viewBox="-1.2 -4.1 484.0 406.9" zoomAndPan="magnify" style="fill: rgb(0, 0, 0);" original_string_length="2334" width="131.94655395655212px" height="111.07500814887933px"><g id="__id23_sjw9b8v73q"><path d="M474.7,224.4c-14.1-75-35.9-148.4-64.6-219c-3.9-9.5-19.5-5.4-15.6,4.3c0.1,0.2,0.2,0.5,0.3,0.7 c-0.2,0-0.5,0-0.7,0.1c-123,20-244.5,48.2-363.8,84.3c-2.9-1.5-5.8-2.9-8.7-4.4C14,86.6,7.1,95.2,10,101.1 c-1.3,0.4-2.6,0.8-3.9,1.2c-3.5,1.1-5.9,4.1-5.9,7.8c-1.4,63,9.9,126.1,33.3,184.6c11.7,29,25.9,57.4,43.5,83.3 c7.4,10.9,16.4,20.4,30.1,22.5c15.3,2.3,30.8-4,45.2-8.4c68-20.9,135.8-42.7,203.2-65.3c32.6-10.9,65.9-20.8,97.8-33.5 c11.5-4.6,22.9-11.6,26.1-24.5C482.8,254.8,477.3,238,474.7,224.4z M383.2,28.6c-18.3,43.1-40.9,84.6-67.6,123.2 c-3.6-6.4-9-11.5-16.8-13.8c-15.5-4.6-28.5,6.9-34.7,20c-1.3,2.7-2.4,5.5-3.3,8.3c-1.2-1.8-2.4-3.5-3.7-5.2 c-8.2-10.5-23.8-19.2-37.3-14.5c-7.8,2.7-13,9.9-13.9,18c-0.7,5.9,0.8,11.6,2.9,17.1c-28-13.2-55.8-26.5-83.6-40 c-24.7-12-49.3-24.1-73.8-36.4C160.3,73.1,271.2,47.5,383.2,28.6z M279.6,164.1c-0.4,0.3-0.7,0.6-1,1c0.3-0.6,0.6-1.2,0.9-1.8 c0.1-0.2,0.2-0.4,0.4-0.6C279.8,163.2,279.7,163.6,279.6,164.1z M271.9,193.4c0,0,0-0.1,0-0.1c0.2-8.6,1.9-17.2,5.2-25 C274.9,176.5,273.2,184.9,271.9,193.4z M222.4,164.7c0.4,4,0.9,7.9,1.5,11.8c-0.6-1.6-1.1-3.2-1.5-4.9 C221.7,168.5,221.8,166.2,222.4,164.7z M302.5,170.1c-0.5-4-1.1-8-1.9-11.9c2,2.7,3.2,6.2,3.8,9.3 C303.8,168.4,303.2,169.3,302.5,170.1z M457.3,273.2c-11.3,8.2-27.9,11.3-41,15.8c-15.6,5.4-31.2,10.7-46.8,15.9 c-61.3,20.7-122.8,40.7-184.6,60c-15.7,4.9-31.4,9.8-47.2,14.6c-14.3,4.4-30.2,9.8-41.7-3c-8.9-9.9-15.6-22.9-22.1-34.4 c-7.2-12.8-13.7-25.9-19.7-39.3c-25.9-58.6-38.7-122.7-38.1-186.8c4.2-1.3,8.4-2.6,12.7-3.9c60.6,30.4,121.6,60.1,183,88.9 c2.6,1.2,5.3,2.5,8,3.8c6.4,12.3,13.9,24.5,23.3,34.1c7.8,12.6,18.4,23.3,30.8,31.4c3.6,2.3,9.1,0.8,11.1-2.9 c0.6-1.1,0.9-2.3,1-3.5c1.9-0.9,3.6-2.6,4.6-4.9c1.3-3.1,2.5-6.1,3.5-9.2c15.4-20.8,25.3-45.8,26.8-71.7c0.1-1.9,0.1-3.9,0-5.9 c1.8-2.7,3.7-5.3,5.5-8c9.5-13.6,18.4-27.4,26.9-41.6c18.3-30.7,34.2-62.6,47.9-95.6c20.3,52.2,36.8,105.9,49.2,160.6 c3.3,14.8,6.4,29.6,9.2,44.5C462,244.4,469.7,264.2,457.3,273.2z" style="fill: rgb(255, 255, 255);"/></g></svg>